#N canvas 0 23 1919 1031 16;
#X obj 269 219 soundfiler;
#X obj 269 137 openpanel;
#X obj 257 45 bng 25 250 50 0 fromLoadSFQZ1 toLoadSFQZ1 empty 17 7
0 10 -260097 -260097 -260097;
#X obj 282 321 expr 44100 / $f1;
#X obj 340 1069 phasor~;
#X obj 275 1494 *~;
#X obj 198 1773 *~;
#X floatatom 542 1627 5 0 1.5 0 - toAmpQZ1 fromAmpQZ1;
#X obj 537 1725 line~;
#X msg 537 1692 \$1 20;
#X obj 198 1805 dac~, f 7;
#X floatatom 282 353 10 0 0 0 - - -;
#N canvas 0 22 450 278 (subpatch) 0;
#X array buf1LQZ1 963254 float 2;
#X coords 0 1 963254 -1 600 100 1 0 0;
#X restore 1065 323 graph;
#X obj 1068 343 hsl 595 60 0 1 0 0 empty toGraphicIdxLQZ1 empty -2
-8 0 10 -262144 -1 -1 15085 1;
#X msg 382 136 \; pd dsp \$1;
#X obj 371 44 tgl 25 0 fromDSPQZ1 empty empty 17 7 0 10 -257985 -1
-1 0 1;
#X floatatom 285 1613 10 0 0 0 - - -;
#X obj 541 1526 loadbang;
#X msg 541 1559 1;
#X obj 215 252 f;
#N canvas 237 152 1024 621 sigasfloat 0;
#X obj 21 54 inlet~ sigin;
#X obj 138 214 snapshot~;
#X obj 161 154 metro 50;
#X obj 214 72 loadbang;
#X text 235 207 samples a signal and outputs a float each time it receives
a bang, f 34;
#X text 254 153 bangs snapshot ever 50ms;
#X text 314 73 metro needs a bang to start outputing bangs;
#X obj 90 313 outlet float out;
#X connect 0 0 1 0;
#X connect 1 0 7 0;
#X connect 2 0 1 0;
#X connect 3 0 2 0;
#X restore 422 1294 pd sigasfloat;
#X obj 215 286 t b f f;
#X obj 373 909 f;
#N canvas 237 152 1024 621 sigasfloat 0;
#X obj 21 54 inlet~ sigin;
#X obj 138 214 snapshot~;
#X obj 161 154 metro 50;
#X obj 214 72 loadbang;
#X text 235 207 samples a signal and outputs a float each time it receives
a bang, f 34;
#X text 254 153 bangs snapshot ever 50ms;
#X text 314 73 metro needs a bang to start outputing bangs;
#X obj 90 313 outlet float out;
#X connect 0 0 1 0;
#X connect 1 0 7 0;
#X connect 2 0 1 0;
#X connect 3 0 2 0;
#X restore 285 1582 pd sigasfloat;
#X text 412 45 DSP;
#X text 284 46 Load SF;
#X text 384 353 Phasor Freq;
#X text 389 1612 Curr Samp;
#X text 596 1627 Amp;
#X msg 269 186 read -resize \$1 buf1LQZ1 buf1RQZ1;
#N canvas 0 22 450 278 (subpatch) 0;
#X array buf1RQZ1 963254 float 2;
#X coords 0 1 963254 -1 600 60 1 0 0;
#X restore 1065 423 graph;
#X obj 1068 423 hsl 595 60 0 1 0 0 empty toGraphicIdxRQZ1 empty -2
-8 0 10 -262144 -1 -1 15085 1;
#X obj 55 1670 tabread4~ buf1LQZ1;
#X obj 275 1670 tabread4~ buf1RQZ1;
#X obj 265 1773 *~;
#X floatatom 360 523 8 0 0 0 - toSpdQZ1 fromSpdQZ1;
#X text 443 523 Speed;
#X obj 410 860 t b f;
#X obj 340 1013 *;
#X obj 329 404 loadbang;
#X msg 329 434 1;
#X floatatom 621 341 8 0 0 0 - toStartPctQZ1 fromStartPctQZ1;
#X floatatom 734 341 8 0 0 0 - toEndPctQZ1 fromEndPctQZ1;
#X text 618 315 Start Pct;
#X text 731 314 End Pct;
#X obj 744 572 -;
#X floatatom 871 641 5 0 0 0 - - -;
#X obj 504 1140 *~;
#N canvas 237 152 1024 621 sigasfloat 0;
#X obj 21 54 inlet~ sigin;
#X obj 138 214 snapshot~;
#X obj 161 154 metro 50;
#X obj 214 72 loadbang;
#X text 235 207 samples a signal and outputs a float each time it receives
a bang, f 34;
#X text 254 153 bangs snapshot ever 50ms;
#X text 314 73 metro needs a bang to start outputing bangs;
#X obj 90 313 outlet float out;
#X connect 0 0 1 0;
#X connect 1 0 7 0;
#X connect 2 0 1 0;
#X connect 3 0 2 0;
#X restore 556 1201 pd sigasfloat;
#X floatatom 556 1235 5 0 0 0 - - -;
#X obj 386 1210 +~;
#N canvas 237 152 1024 621 sigasfloat 0;
#X obj 21 54 inlet~ sigin;
#X obj 138 214 snapshot~;
#X obj 161 154 metro 50;
#X obj 214 72 loadbang;
#X text 235 207 samples a signal and outputs a float each time it receives
a bang, f 34;
#X text 254 153 bangs snapshot ever 50ms;
#X text 314 73 metro needs a bang to start outputing bangs;
#X obj 90 313 outlet float out;
#X connect 0 0 1 0;
#X connect 1 0 7 0;
#X connect 2 0 1 0;
#X connect 3 0 2 0;
#X restore 201 1273 pd sigasfloat;
#X floatatom 201 1307 5 0 0 0 - - -;
#X obj 650 189 loadbang;
#X msg 649 225 0;
#X msg 699 222 1;
#X obj 667 535 t b f f;
#X obj 692 642 t b f f;
#X obj 457 962 / 1;
#X obj 398 828 f;
#X obj 565 501 expr min($f1 \, $f2);
#X obj 768 501 expr max($f1 \, $f2);
#X obj 743 603 expr abs($f1);
#X obj 816 460 t b f;
#X obj 593 428 r fromStartPctQZ1;
#X obj 815 427 r fromEndPctQZ1;
#X obj 568 272 s toStartPctQZ1;
#X obj 742 272 s toEndPctQZ1;
#X obj 1068 283 hsl 595 20 0 1 0 0 toStartPctQZ1 empty empty -2 -8
0 10 -4034 -260097 -1 12200 1;
#X obj 1068 303 hsl 595 20 0 1 0 0 toEndPctQZ1 empty empty -2 -8 0
10 -4032 -257985 -1 16200 1;
#X obj 1068 323 hsl 595 20 0 1 0 0 empty toStartPctQZ1 empty -2 -8
0 10 -262144 -4034 -1 12200 1;
#X obj 1068 403 hsl 595 20 0 1 0 0 empty toEndPctQZ1 empty -2 -8 0
10 -262144 -4032 -1 16200 1;
#X obj 190 99 r fromLoadSFQZ1;
#X obj 381 103 r fromDSPQZ1;
#X obj 332 469 s toSpdQZ1;
#X text 920 122 For all of the GUI elements \, filled in the send/receive
symbol fields under properties and replaced connections with send or
receive objects. Don't forget the unique identifier, f 38;
#X obj 389 754 r fromSpdQZ1;
#X obj 351 1386 s toGraphicIdxLQZ1;
#X obj 448 1340 s toGraphicIdxRQZ1;
#X obj 540 1593 s toAmpQZ1;
#X obj 536 1659 r fromAmpQZ1;
#X connect 0 0 19 0;
#X connect 1 0 29 0;
#X connect 3 0 11 0;
#X connect 4 0 47 0;
#X connect 5 0 23 0;
#X connect 5 0 32 0;
#X connect 5 0 33 0;
#X connect 6 0 10 0;
#X connect 8 0 6 1;
#X connect 8 0 34 1;
#X connect 9 0 8 0;
#X connect 11 0 22 1;
#X connect 17 0 18 0;
#X connect 18 0 79 0;
#X connect 19 0 21 0;
#X connect 20 0 77 0;
#X connect 20 0 78 0;
#X connect 21 0 22 0;
#X connect 21 1 5 1;
#X connect 21 2 3 0;
#X connect 22 0 38 0;
#X connect 23 0 16 0;
#X connect 29 0 0 0;
#X connect 32 0 6 0;
#X connect 33 0 34 0;
#X connect 34 0 10 1;
#X connect 37 0 22 0;
#X connect 37 1 58 0;
#X connect 38 0 4 0;
#X connect 39 0 40 0;
#X connect 40 0 74 0;
#X connect 45 0 62 0;
#X connect 47 0 48 0;
#X connect 47 0 50 0;
#X connect 48 0 49 0;
#X connect 50 0 51 0;
#X connect 50 0 5 0;
#X connect 50 0 20 0;
#X connect 51 0 52 0;
#X connect 53 0 54 0;
#X connect 53 0 55 0;
#X connect 54 0 66 0;
#X connect 55 0 67 0;
#X connect 56 0 45 0;
#X connect 56 1 50 1;
#X connect 56 2 45 1;
#X connect 57 0 59 0;
#X connect 57 1 58 1;
#X connect 57 2 47 1;
#X connect 58 0 38 1;
#X connect 59 0 37 0;
#X connect 60 0 56 0;
#X connect 61 0 45 0;
#X connect 62 0 46 0;
#X connect 62 0 57 0;
#X connect 63 0 61 0;
#X connect 63 0 60 0;
#X connect 63 1 61 1;
#X connect 63 1 60 1;
#X connect 64 0 60 0;
#X connect 64 0 61 0;
#X connect 65 0 63 0;
#X connect 72 0 1 0;
#X connect 73 0 14 0;
#X connect 76 0 59 0;
#X connect 80 0 9 0;
