#N canvas 428 148 950 649 12;
#N canvas 0 22 450 278 (subpatch) 0;
#X array buf1LQZ1 86377 float 2;
#X coords 0 1 86377 -1 600 60 1 0 0;
#X restore 153 314 graph;
#X obj 156 314 hsl 595 60 0 1 0 0 empty toGraphicIdxLQZ1 empty -2 -8
0 10 -262144 -1 -1 0 1;
#X obj 152 97 tgl 25 0 fromDSP empty DSP 5 12 0 10 -257985 -1 -1 0
1;
#N canvas 0 22 450 278 (subpatch) 0;
#X array buf1RQZ1 86377 float 2;
#X coords 0 1 86377 -1 600 60 1 0 0;
#X restore 153 394 graph;
#X obj 156 394 hsl 595 60 0 1 0 0 empty toGraphicIdxRQZ1 empty -2 -8
0 10 -262144 -1 -1 0 1;
#X obj 156 294 hsl 595 20 0 1 0 0 toStartPctQZ1 empty empty -2 -8 0
10 -262144 -4034 -1 0 1;
#X obj 156 374 hsl 595 20 0 1 0 0 toEndPctQZ1 empty empty -2 -8 0 10
-262144 -4032 -1 0 1;
#N canvas 6 22 1886 1021 subpatch1 0;
#X obj 270 441 expr 44100 / $f1;
#X obj 443 1180 phasor~;
#X obj 389 1561 *~;
#X obj 590 2326 *~;
#X msg 793 2070 \$1 20;
#X obj 590 2358 dac~, f 7;
#X floatatom 270 473 10 0 0 0 - - -;
#X floatatom 412 1701 10 0 0 0 - - -;
#X msg -1837 -1332 1;
#N canvas 237 152 1024 621 sigasfloat 0;
#X obj 21 54 inlet~ sigin;
#X obj 138 214 snapshot~;
#X obj 161 154 metro 50;
#X obj 214 72 loadbang;
#X text 235 207 samples a signal and outputs a float each time it receives
a bang, f 34;
#X text 254 153 bangs snapshot ever 50ms;
#X text 314 73 metro needs a bang to start outputing bangs;
#X obj 90 313 outlet float out;
#X connect 0 0 1 0;
#X connect 1 0 7 0;
#X connect 2 0 1 0;
#X connect 3 0 2 0;
#X restore 529 1399 pd sigasfloat;
#X obj 203 406 t b f f;
#X obj 375 784 f;
#N canvas 237 152 1024 621 sigasfloat 0;
#X obj 21 54 inlet~ sigin;
#X obj 138 214 snapshot~;
#X obj 161 154 metro 50;
#X obj 214 72 loadbang;
#X text 235 207 samples a signal and outputs a float each time it receives
a bang, f 34;
#X text 254 153 bangs snapshot ever 50ms;
#X text 314 73 metro needs a bang to start outputing bangs;
#X obj 90 313 outlet float out;
#X connect 0 0 1 0;
#X connect 1 0 7 0;
#X connect 2 0 1 0;
#X connect 3 0 2 0;
#X restore 412 1670 pd sigasfloat;
#X text 516 1700 Curr Samp;
#X obj 169 1737 tabread4~ buf1LQZ1;
#X obj 389 1737 tabread4~ buf1RQZ1;
#X obj 657 2326 *~;
#X obj 412 735 t b f;
#X obj 375 841 *;
#X obj -1673 -1608 loadbang;
#X msg -1408 -1348 1;
#X obj 934 503 -;
#X floatatom 1061 572 5 0 0 0 - - -;
#X obj 494 1225 *~;
#N canvas 237 152 1024 621 sigasfloat 0;
#X obj 21 54 inlet~ sigin;
#X obj 138 214 snapshot~;
#X obj 161 154 metro 50;
#X obj 214 72 loadbang;
#X text 235 207 samples a signal and outputs a float each time it receives
a bang, f 34;
#X text 254 153 bangs snapshot ever 50ms;
#X text 314 73 metro needs a bang to start outputing bangs;
#X obj 90 313 outlet float out;
#X connect 0 0 1 0;
#X connect 1 0 7 0;
#X connect 2 0 1 0;
#X connect 3 0 2 0;
#X restore 647 1306 pd sigasfloat;
#X floatatom 647 1340 5 0 0 0 - - -;
#X obj 454 1347 +~;
#N canvas 237 152 1024 621 sigasfloat 0;
#X obj 21 54 inlet~ sigin;
#X obj 138 214 snapshot~;
#X obj 161 154 metro 50;
#X obj 214 72 loadbang;
#X text 235 207 samples a signal and outputs a float each time it receives
a bang, f 34;
#X text 254 153 bangs snapshot ever 50ms;
#X text 314 73 metro needs a bang to start outputing bangs;
#X obj 90 313 outlet float out;
#X connect 0 0 1 0;
#X connect 1 0 7 0;
#X connect 2 0 1 0;
#X connect 3 0 2 0;
#X restore 284 1392 pd sigasfloat;
#X floatatom 284 1426 5 0 0 0 - - -;
#X msg -1601 -1284 0;
#X msg -1731 -1393 1;
#X obj 857 466 t b f f;
#X obj 882 573 t b f f;
#X obj 463 798 / 1;
#X obj 400 703 f;
#X obj 763 387 expr min($f1 \, $f2);
#X obj 966 387 expr max($f1 \, $f2);
#X obj 933 534 expr abs($f1);
#X obj 1014 346 t b f;
#X obj 791 314 r fromStartPctQZ1;
#X obj 1013 313 r fromEndPctQZ1;
#X obj -1601 -1255 s toStartPctQZ1;
#X obj -1731 -1360 s toEndPctQZ1;
#X obj -1408 -1319 s toSpdQZ1;
#X obj 401 637 r fromSpdQZ1;
#X obj 458 1491 s toGraphicIdxLQZ1;
#X obj 555 1445 s toGraphicIdxRQZ1;
#X obj -1838 -1298 s toAmpQZ1;
#X obj 793 2039 r fromAmpQZ1;
#X obj -1813 -1534 t b b b b b b b b b b b b b b b b b b b b b;
#X obj 1064 2194 vline~;
#X msg 1008 2079 0 \$1;
#X obj 1007 2046 f;
#X obj 1239 2008 * 1;
#X obj 1219 1953 t b f;
#X obj 1228 2051 pack 1 15 1 0 15;
#X msg 1104 2158 \$1 \$2 \, \$3 \$4 \$5;
#X obj 1200 1834 r fromAmpQZ1;
#X obj 1173 1885 f;
#X obj 1172 1921 t f f;
#X obj 1349 1869 t f f;
#X obj 1033 2013 r fromRelQZ1;
#X obj 1018 1833 r fromTrigADSQZ1;
#X obj 1348 1836 r fromAtkQZ1;
#X obj 1482 1835 r fromSusQZ1;
#X obj 1618 1834 r fromDecayQZ1;
#X obj -938 -1323 s toAtkQZ1;
#X msg -938 -1357 15;
#X obj -1078 -1315 s toSusQZ1;
#X msg -1078 -1349 1;
#X obj -1216 -1310 s toDecayQZ1;
#X msg -1216 -1344 0;
#X obj -1296 -1282 s toRelQZ1;
#X msg -1296 -1315 100;
#X obj 1008 1984 r fromTrigRelQZ1;
#X text 377 474 Base Phasor Freq;
#X floatatom 429 896 15 0 0 0 - - -;
#X text 425 868 actual phasor freq;
#X obj 207 1030 f;
#X obj 208 1069 spigot 0;
#X obj 666 1025 r toPhasor0QZ1;
#X msg 667 1065 0;
#X obj 353 1004 r toPhasorFreqSpigotQZ1;
#X obj 52 931 r toBangPhasorFreqQZ1;
#X obj -932 -1389 s toPhasor0QZ1;
#X obj 1649 1588 s toTrigRelQZ1;
#X obj 1713 1750 s toPhasorFreqSpigotQZ1;
#X msg 1674 1717 0;
#X obj 1513 1751 s toPhasor0QZ1;
#X obj 971 1665 t b b b;
#X obj 1258 1750 s toPhasorFreqSpigotQZ1;
#X msg 1089 1702 1;
#X obj 1018 1751 s toBangPhasorFreqQZ1;
#X obj 1602 1558 t b b;
#X obj 1649 1622 r fromRelQZ1;
#X obj 1602 1652 delay;
#X obj 1602 1684 t b b;
#X obj 863 1752 s toTrigADSQZ1;
#X obj 1602 1524 r fromStopQZ1;
#X obj 971 1632 r fromStartQZ1;
#X obj 2909 1497 samplerate~;
#X obj 2909 1527 / 1000;
#X obj 2882 1562 *;
#X obj 2631 1786 f;
#X obj 455 1621 s~ toThreshQZ1;
#X obj 425 335 f;
#X obj 425 285 r toTotalSampsQZ1;
#X obj 425 368 s fromTotalSampsQZ1;
#X obj 1014 460 f;
#X obj 1013 420 r toRealEndQZ1;
#X obj 1013 501 s fromRealEndQZ1;
#X obj 2420 1856 r fromTotalSampsQZ1;
#X obj 2393 1888 *;
#X obj 2393 1823 r fromRealEndQZ1;
#X obj 2568 1950 -;
#X obj 2528 1741 t b b b;
#X obj 2429 1788 s toTotalSampsQZ1;
#X obj 2278 1787 s toRealEndQZ1;
#X obj 2393 1993 r~ toThreshQZ1;
#X obj 2553 2177 threshold~;
#X obj 2754 2412 s toStopSeqQZ1;
#X obj 1504 1494 r toStopSeqQZ1;
#X obj 2530 1605 f;
#X obj 2699 1396 r fromSpdQZ1;
#X obj 2530 1676 route 0 1;
#X obj 2863 1888 r fromTotalSampsQZ1;
#X obj 2836 1924 *;
#X obj 2806 1768 t b b b;
#X obj 2974 1817 s toTotalSampsQZ1;
#X obj 2727 1816 f;
#X obj 664 496 f;
#X obj 664 457 r toRealStartQZ1;
#X obj 664 537 s fromRealStartQZ1;
#X obj 2778 1817 s toRealStartQZ1;
#X obj 2836 1855 r fromRealStartQZ1;
#X obj 2804 1995 * -1;
#X obj 2393 2089 *~ 1;
#X obj 2430 2021 r fromSpdQZ1;
#X obj 2430 2055 expr if($f1<0 \, -1 \, 1);
#X obj 2530 1637 expr if($f1<0 \, 0 \, 1);
#X msg 2681 2059 set \$1 100 \$1 100;
#X obj 2804 1962 +;
#X obj 2432 1475 r fromStartPctQZ1;
#X obj 2432 1506 t b;
#X obj 2490 1537 t b;
#X obj 2490 1506 r fromEndPctQZ1;
#X obj 2837 1396 r fromRelQZ1;
#X obj 2844 1619 *;
#X obj 2802 1513 t b f;
#X obj 2844 1660 expr abs($f1);
#X obj 2837 1426 t b f;
#X obj 2699 1430 t f f;
#X obj -1814 -1608 r toInitQZ1;
#X obj -887 -1442 s toCalcSampRateQZ1;
#X obj 2909 1463 r toCalcSampRateQZ1;
#X obj 203 251 t f f b;
#X obj 270 336 s toInitQZ1;
#X obj 2276 1549 r toCalcThreshQZ1;
#X obj -1982 -1397 s toCalcThreshQZ1;
#X text 2548 2316 loop on;
#X obj 2536 2353 spigot 1;
#X obj 2583 2420 s toTrigRelQZ1;
#X obj 2536 2390 t b b;
#X obj 2583 2454 r fromRelQZ1;
#X obj 2536 2484 delay;
#X obj 2536 2521 s toTrigADSQZ1;
#X obj 2755 2369 spigot 0;
#X text 2848 2367 loop off;
#X obj 2756 2207 route 0 1;
#X obj 2696 2243 t b b;
#X msg 2743 2275 0;
#X msg 2696 2275 1;
#X obj 2799 2240 t b b;
#X msg 2846 2272 0;
#X msg 2799 2272 1;
#X obj -1563 -1322 s toLoopTogQZ1;
#X obj 2756 2174 r fromLoopTogQZ1;
#X obj -792 -671 t f f;
#X text -1033 -302 sends contents of the chosen buffer to the current
playback buffer, f 35;
#X obj -1023 -374 array get samp1L;
#X obj -814 -374 array get samp1R;
#X obj -1022 -334 array set buf1LQZ1;
#X obj -814 -334 array set buf1RQZ1;
#X text -618 -384 gets the array samp1L/R from the 'samplebank' subpatch
loads it into the playback array buf1L/RQZ1, f 33;
#X obj -741 -803 r fromLoadToPlaySamp1QZ1;
#X obj -745 -638 array size buf1LQZ1;
#X obj -724 -565 array size buf1RQZ1;
#X text -1064 -711 Sets size of the current Buf based on which sample
bank you want to play, f 26;
#X text -1024 -857 This loads the chosen soundfile/buffer into the
current playback buffer, f 39;
#X obj -881 -553 t b b b;
#X obj -791 -605 t b f f;
#X obj -785 -481 f;
#X text -746 -482 store total num samps from chosen samp bank;
#X obj 203 193 r fromNumSampsQZ1;
#X obj -785 -441 s fromNumSampsQZ1;
#X obj 280 -843 t f f;
#X obj 228 -570 array get samp2L;
#X obj 261 -641 array get samp2R;
#X obj 228 -539 array set buf1LQZ1;
#X obj 261 -601 array set buf1RQZ1;
#X obj 232 -936 r fromLoadToPlaySamp2QZ1;
#X obj 327 -813 array size buf1LQZ1;
#X obj 347 -753 array size buf1RQZ1;
#X obj 218 -753 t b b b;
#X obj 280 -784 t b f f;
#X obj 287 -704 f;
#X obj 287 -674 s fromNumSampsQZ1;
#X obj 630 -847 t f f;
#X obj 578 -574 array get samp3L;
#X obj 611 -645 array get samp3R;
#X obj 578 -543 array set buf1LQZ1;
#X obj 611 -605 array set buf1RQZ1;
#X obj 582 -940 r fromLoadToPlaySamp3QZ1;
#X obj 677 -817 array size buf1LQZ1;
#X obj 697 -757 array size buf1RQZ1;
#X obj 568 -757 t b b b;
#X obj 630 -788 t b f f;
#X obj 637 -708 f;
#X obj 637 -678 s fromNumSampsQZ1;
#X obj 966 -849 t f f;
#X obj 914 -576 array get samp4L;
#X obj 947 -647 array get samp4R;
#X obj 914 -545 array set buf1LQZ1;
#X obj 947 -607 array set buf1RQZ1;
#X obj 918 -942 r fromLoadToPlaySamp4QZ1;
#X obj 1013 -819 array size buf1LQZ1;
#X obj 1033 -759 array size buf1RQZ1;
#X obj 904 -759 t b b b;
#X obj 966 -790 t b f f;
#X obj 973 -710 f;
#X obj 973 -680 s fromNumSampsQZ1;
#X obj -95 -403 t f f;
#X obj -147 -130 array get samp5L;
#X obj -114 -201 array get samp5R;
#X obj -147 -99 array set buf1LQZ1;
#X obj -114 -161 array set buf1RQZ1;
#X obj -143 -496 r fromLoadToPlaySamp5QZ1;
#X obj -48 -373 array size buf1LQZ1;
#X obj -28 -313 array size buf1RQZ1;
#X obj -157 -313 t b b b;
#X obj -95 -344 t b f f;
#X obj -88 -264 f;
#X obj -88 -234 s fromNumSampsQZ1;
#X obj 246 -407 t f f;
#X obj 194 -134 array get samp6L;
#X obj 227 -205 array get samp6R;
#X obj 194 -103 array set buf1LQZ1;
#X obj 227 -165 array set buf1RQZ1;
#X obj 198 -500 r fromLoadToPlaySamp6QZ1;
#X obj 293 -377 array size buf1LQZ1;
#X obj 313 -317 array size buf1RQZ1;
#X obj 184 -317 t b b b;
#X obj 246 -348 t b f f;
#X obj 253 -268 f;
#X obj 253 -238 s fromNumSampsQZ1;
#X obj 588 -410 t f f;
#X obj 536 -137 array get samp7L;
#X obj 569 -208 array get samp7R;
#X obj 536 -106 array set buf1LQZ1;
#X obj 569 -168 array set buf1RQZ1;
#X obj 540 -503 r fromLoadToPlaySamp7QZ1;
#X obj 635 -380 array size buf1LQZ1;
#X obj 655 -320 array size buf1RQZ1;
#X obj 526 -320 t b b b;
#X obj 588 -351 t b f f;
#X obj 595 -271 f;
#X obj 595 -241 s fromNumSampsQZ1;
#X obj 927 -411 t f f;
#X obj 875 -138 array get samp8L;
#X obj 908 -209 array get samp8R;
#X obj 875 -107 array set buf1LQZ1;
#X obj 908 -169 array set buf1RQZ1;
#X obj 879 -504 r fromLoadToPlaySamp8QZ1;
#X obj 974 -381 array size buf1LQZ1;
#X obj 994 -321 array size buf1RQZ1;
#X obj 865 -321 t b b b;
#X obj 927 -352 t b f f;
#X obj 934 -272 f;
#X obj 934 -242 s fromNumSampsQZ1;
#X obj 1264 -414 t f f;
#X obj 1212 -141 array get samp9L;
#X obj 1245 -212 array get samp9R;
#X obj 1212 -110 array set buf1LQZ1;
#X obj 1245 -172 array set buf1RQZ1;
#X obj 1216 -507 r fromLoadToPlaySamp9QZ1;
#X obj 1311 -384 array size buf1LQZ1;
#X obj 1331 -324 array size buf1RQZ1;
#X obj 1202 -324 t b b b;
#X obj 1264 -355 t b f f;
#X obj 1271 -275 f;
#X obj 1271 -245 s fromNumSampsQZ1;
#X text 384 189 get number of samples from chosen sample bank;
#X obj -741 -764 s samp1TotalNumSamps;
#X obj -792 -709 r fromsamp1TotalNumSamps;
#X obj 232 -905 s samp2TotalNumSamps;
#X obj 280 -874 r fromsamp2TotalNumSamps;
#X obj 582 -909 s samp3TotalNumSamps;
#X obj 630 -878 r fromsamp3TotalNumSamps;
#X obj 918 -911 s samp4TotalNumSamps;
#X obj 966 -880 r fromsamp4TotalNumSamps;
#X obj -143 -465 s samp5TotalNumSamps;
#X obj -95 -434 r fromsamp5TotalNumSamps;
#X obj 198 -469 s samp6TotalNumSamps;
#X obj 246 -438 r fromsamp6TotalNumSamps;
#X obj 540 -472 s samp7TotalNumSamps;
#X obj 588 -441 r fromsamp7TotalNumSamps;
#X obj 879 -473 s samp8TotalNumSamps;
#X obj 927 -442 r fromsamp8TotalNumSamps;
#X obj 1216 -476 s samp9TotalNumSamps;
#X obj 1264 -445 r fromsamp9TotalNumSamps;
#X msg -1563 -1371 1;
#X connect 0 0 6 0;
#X connect 1 0 23 0;
#X connect 2 0 12 0;
#X connect 2 0 14 0;
#X connect 2 0 15 0;
#X connect 2 0 104 0;
#X connect 3 0 5 0;
#X connect 4 0 50 0;
#X connect 6 0 11 1;
#X connect 8 0 47 0;
#X connect 9 0 45 0;
#X connect 9 0 46 0;
#X connect 10 0 11 0;
#X connect 10 1 2 1;
#X connect 10 2 0 0;
#X connect 11 0 18 0;
#X connect 12 0 7 0;
#X connect 14 0 3 0;
#X connect 15 0 16 0;
#X connect 16 0 5 1;
#X connect 17 0 11 0;
#X connect 17 1 33 0;
#X connect 18 0 76 0;
#X connect 18 0 78 0;
#X connect 19 0 49 0;
#X connect 20 0 43 0;
#X connect 21 0 37 0;
#X connect 23 0 24 0;
#X connect 23 0 26 0;
#X connect 24 0 25 0;
#X connect 26 0 27 0;
#X connect 26 0 2 0;
#X connect 26 0 9 0;
#X connect 27 0 28 0;
#X connect 29 0 41 0;
#X connect 30 0 42 0;
#X connect 31 0 21 0;
#X connect 31 1 26 1;
#X connect 31 2 21 1;
#X connect 32 0 34 0;
#X connect 32 1 33 1;
#X connect 32 2 23 1;
#X connect 33 0 18 1;
#X connect 34 0 17 0;
#X connect 35 0 31 0;
#X connect 35 0 130 1;
#X connect 36 0 21 0;
#X connect 36 0 108 1;
#X connect 37 0 22 0;
#X connect 37 0 32 0;
#X connect 38 0 36 0;
#X connect 38 0 35 0;
#X connect 38 1 36 1;
#X connect 38 1 35 1;
#X connect 39 0 35 0;
#X connect 39 0 36 0;
#X connect 40 0 38 0;
#X connect 44 0 34 0;
#X connect 48 0 4 0;
#X connect 49 4 158 0;
#X connect 49 7 8 0;
#X connect 49 10 30 0;
#X connect 49 12 29 0;
#X connect 49 13 310 0;
#X connect 49 14 20 0;
#X connect 49 15 73 0;
#X connect 49 16 71 0;
#X connect 49 17 69 0;
#X connect 49 18 67 0;
#X connect 49 19 84 0;
#X connect 49 20 153 0;
#X connect 50 0 16 1;
#X connect 50 0 3 1;
#X connect 51 0 50 0;
#X connect 52 0 51 0;
#X connect 53 0 55 2;
#X connect 54 0 53 0;
#X connect 54 1 53 1;
#X connect 55 0 56 0;
#X connect 56 0 50 0;
#X connect 57 0 58 1;
#X connect 58 0 59 0;
#X connect 59 0 55 0;
#X connect 59 1 54 0;
#X connect 60 0 55 1;
#X connect 60 1 55 4;
#X connect 61 0 52 1;
#X connect 62 0 58 0;
#X connect 63 0 60 0;
#X connect 64 0 53 0;
#X connect 65 0 55 3;
#X connect 67 0 66 0;
#X connect 69 0 68 0;
#X connect 71 0 70 0;
#X connect 73 0 72 0;
#X connect 74 0 52 0;
#X connect 78 0 79 0;
#X connect 79 0 1 0;
#X connect 80 0 81 0;
#X connect 81 0 1 0;
#X connect 82 0 79 1;
#X connect 83 0 78 0;
#X connect 87 0 86 0;
#X connect 89 0 97 0;
#X connect 89 1 92 0;
#X connect 89 2 91 0;
#X connect 91 0 90 0;
#X connect 93 0 95 0;
#X connect 93 1 85 0;
#X connect 94 0 95 1;
#X connect 95 0 96 0;
#X connect 96 0 88 0;
#X connect 96 1 87 0;
#X connect 98 0 93 0;
#X connect 99 0 89 0;
#X connect 100 0 101 0;
#X connect 101 0 102 1;
#X connect 102 0 147 0;
#X connect 103 0 114 1;
#X connect 105 0 107 0;
#X connect 106 0 105 0;
#X connect 108 0 110 0;
#X connect 109 0 108 0;
#X connect 111 0 112 1;
#X connect 112 0 114 0;
#X connect 113 0 112 0;
#X connect 114 0 140 0;
#X connect 115 0 117 0;
#X connect 115 1 116 0;
#X connect 115 2 103 0;
#X connect 118 0 136 0;
#X connect 119 0 160 0;
#X connect 119 0 166 0;
#X connect 121 0 93 0;
#X connect 122 0 139 0;
#X connect 123 0 151 0;
#X connect 124 0 127 0;
#X connect 124 1 115 0;
#X connect 125 0 126 1;
#X connect 126 0 141 0;
#X connect 127 0 133 0;
#X connect 127 1 128 0;
#X connect 127 2 129 0;
#X connect 129 0 141 1;
#X connect 130 0 132 0;
#X connect 131 0 130 0;
#X connect 134 0 126 0;
#X connect 135 0 140 0;
#X connect 136 0 119 0;
#X connect 137 0 138 0;
#X connect 138 0 136 1;
#X connect 139 0 124 0;
#X connect 140 0 119 0;
#X connect 141 0 135 0;
#X connect 142 0 143 0;
#X connect 143 0 122 0;
#X connect 144 0 122 0;
#X connect 145 0 144 0;
#X connect 146 0 150 0;
#X connect 147 0 149 0;
#X connect 148 0 147 0;
#X connect 148 1 147 1;
#X connect 149 0 129 1;
#X connect 149 0 103 1;
#X connect 150 0 122 0;
#X connect 150 1 102 0;
#X connect 151 0 122 0;
#X connect 151 1 148 0;
#X connect 152 0 49 0;
#X connect 154 0 100 0;
#X connect 155 0 10 0;
#X connect 155 1 105 1;
#X connect 155 2 156 0;
#X connect 157 0 122 0;
#X connect 160 0 162 0;
#X connect 162 0 164 0;
#X connect 162 1 161 0;
#X connect 163 0 164 1;
#X connect 164 0 165 0;
#X connect 166 0 120 0;
#X connect 168 0 169 0;
#X connect 168 1 172 0;
#X connect 169 0 171 0;
#X connect 169 1 170 0;
#X connect 170 0 160 1;
#X connect 171 0 166 1;
#X connect 172 0 174 0;
#X connect 172 1 173 0;
#X connect 173 0 166 1;
#X connect 174 0 160 1;
#X connect 176 0 168 0;
#X connect 177 0 190 0;
#X connect 177 1 185 0;
#X connect 179 0 181 0;
#X connect 180 0 182 0;
#X connect 184 0 292 0;
#X connect 189 0 191 0;
#X connect 189 1 179 0;
#X connect 189 2 180 0;
#X connect 190 0 189 0;
#X connect 190 1 191 1;
#X connect 190 2 186 0;
#X connect 191 0 194 0;
#X connect 193 0 155 0;
#X connect 195 0 204 0;
#X connect 195 1 201 0;
#X connect 196 0 198 0;
#X connect 197 0 199 0;
#X connect 200 0 294 0;
#X connect 203 0 205 0;
#X connect 203 1 196 0;
#X connect 203 2 197 0;
#X connect 204 0 203 0;
#X connect 204 1 205 1;
#X connect 204 2 202 0;
#X connect 205 0 206 0;
#X connect 207 0 216 0;
#X connect 207 1 213 0;
#X connect 208 0 210 0;
#X connect 209 0 211 0;
#X connect 212 0 296 0;
#X connect 215 0 217 0;
#X connect 215 1 208 0;
#X connect 215 2 209 0;
#X connect 216 0 215 0;
#X connect 216 1 217 1;
#X connect 216 2 214 0;
#X connect 217 0 218 0;
#X connect 219 0 228 0;
#X connect 219 1 225 0;
#X connect 220 0 222 0;
#X connect 221 0 223 0;
#X connect 224 0 298 0;
#X connect 227 0 229 0;
#X connect 227 1 220 0;
#X connect 227 2 221 0;
#X connect 228 0 227 0;
#X connect 228 1 229 1;
#X connect 228 2 226 0;
#X connect 229 0 230 0;
#X connect 231 0 240 0;
#X connect 231 1 237 0;
#X connect 232 0 234 0;
#X connect 233 0 235 0;
#X connect 236 0 300 0;
#X connect 239 0 241 0;
#X connect 239 1 232 0;
#X connect 239 2 233 0;
#X connect 240 0 239 0;
#X connect 240 1 241 1;
#X connect 240 2 238 0;
#X connect 241 0 242 0;
#X connect 243 0 252 0;
#X connect 243 1 249 0;
#X connect 244 0 246 0;
#X connect 245 0 247 0;
#X connect 248 0 302 0;
#X connect 251 0 253 0;
#X connect 251 1 244 0;
#X connect 251 2 245 0;
#X connect 252 0 251 0;
#X connect 252 1 253 1;
#X connect 252 2 250 0;
#X connect 253 0 254 0;
#X connect 255 0 264 0;
#X connect 255 1 261 0;
#X connect 256 0 258 0;
#X connect 257 0 259 0;
#X connect 260 0 304 0;
#X connect 263 0 265 0;
#X connect 263 1 256 0;
#X connect 263 2 257 0;
#X connect 264 0 263 0;
#X connect 264 1 265 1;
#X connect 264 2 262 0;
#X connect 265 0 266 0;
#X connect 267 0 276 0;
#X connect 267 1 273 0;
#X connect 268 0 270 0;
#X connect 269 0 271 0;
#X connect 272 0 306 0;
#X connect 275 0 277 0;
#X connect 275 1 268 0;
#X connect 275 2 269 0;
#X connect 276 0 275 0;
#X connect 276 1 277 1;
#X connect 276 2 274 0;
#X connect 277 0 278 0;
#X connect 279 0 288 0;
#X connect 279 1 285 0;
#X connect 280 0 282 0;
#X connect 281 0 283 0;
#X connect 284 0 308 0;
#X connect 287 0 289 0;
#X connect 287 1 280 0;
#X connect 287 2 281 0;
#X connect 288 0 287 0;
#X connect 288 1 289 1;
#X connect 288 2 286 0;
#X connect 289 0 290 0;
#X connect 293 0 177 0;
#X connect 295 0 195 0;
#X connect 297 0 207 0;
#X connect 299 0 219 0;
#X connect 301 0 231 0;
#X connect 303 0 243 0;
#X connect 305 0 255 0;
#X connect 307 0 267 0;
#X connect 309 0 279 0;
#X connect 310 0 175 0;
#X restore 152 468 pd subpatch1;
#N canvas 42 29 1857 989 samplebank 0;
#X obj 271 273 soundfiler;
#X obj 271 192 openpanel;
#X obj 244 331 f;
#X text 274 27 Make A Sample Bank \; Load With Samples;
#X msg 271 230 read -resize \$1 samp1L samp1R;
#X obj 291 129 array define samp1L;
#X obj 291 153 array define samp1R;
#X obj 842 274 soundfiler;
#X obj 842 193 openpanel;
#X obj 815 332 f;
#X msg 842 231 read -resize \$1 samp2L samp2R;
#X obj 862 130 array define samp2L;
#X obj 862 154 array define samp2R;
#X obj 599 274 r samp2TotalNumSamps;
#X obj 815 376 s fromsamp2TotalNumSamps;
#X obj 1414 281 soundfiler;
#X obj 1414 200 openpanel;
#X obj 1387 339 f;
#X msg 1414 238 read -resize \$1 samp3L samp3R;
#X obj 1434 137 array define samp3L;
#X obj 1434 161 array define samp3R;
#X obj 1171 281 r samp3TotalNumSamps;
#X obj 1387 383 s fromsamp3TotalNumSamps;
#X obj 271 611 soundfiler;
#X obj 271 530 openpanel;
#X obj 244 669 f;
#X msg 271 568 read -resize \$1 samp4L samp4R;
#X obj 291 467 array define samp4L;
#X obj 291 491 array define samp4R;
#X obj 28 611 r samp4TotalNumSamps;
#X obj 244 713 s fromsamp4TotalNumSamps;
#X obj 832 614 soundfiler;
#X obj 832 533 openpanel;
#X obj 805 672 f;
#X msg 832 571 read -resize \$1 samp5L samp5R;
#X obj 852 470 array define samp5L;
#X obj 852 494 array define samp5R;
#X obj 589 614 r samp5TotalNumSamps;
#X obj 805 716 s fromsamp5TotalNumSamps;
#X obj 1389 620 soundfiler;
#X obj 1389 539 openpanel;
#X obj 1362 678 f;
#X msg 1389 577 read -resize \$1 samp6L samp6R;
#X obj 1409 476 array define samp6L;
#X obj 1409 500 array define samp6R;
#X obj 1146 620 r samp6TotalNumSamps;
#X obj 1362 722 s fromsamp6TotalNumSamps;
#X obj 278 945 soundfiler;
#X obj 278 864 openpanel;
#X obj 251 1003 f;
#X msg 278 902 read -resize \$1 samp7L samp7R;
#X obj 298 801 array define samp7L;
#X obj 298 825 array define samp7R;
#X obj 35 945 r samp7TotalNumSamps;
#X obj 251 1047 s fromsamp7TotalNumSamps;
#X obj 854 955 soundfiler;
#X obj 854 874 openpanel;
#X obj 827 1013 f;
#X msg 854 912 read -resize \$1 samp8L samp8R;
#X obj 874 811 array define samp8L;
#X obj 874 835 array define samp8R;
#X obj 611 955 r samp8TotalNumSamps;
#X obj 827 1057 s fromsamp8TotalNumSamps;
#X obj 1433 960 soundfiler;
#X obj 1433 879 openpanel;
#X obj 1406 1018 f;
#X msg 1433 917 read -resize \$1 samp9L samp9R;
#X obj 1453 816 array define samp9L;
#X obj 1453 840 array define samp9R;
#X obj 1190 960 r samp9TotalNumSamps;
#X obj 1406 1062 s fromsamp9TotalNumSamps;
#X text 493 119 need to define 2 arrays to hold left and right channels
, f 20;
#X text 282 320 store total number of samples here for future use,
f 29;
#X obj 28 273 r samp1TotalNumSamps;
#X obj 244 376 s fromsamp1TotalNumSamps;
#X obj 271 90 r fromLoadSamp1;
#X obj 842 93 r fromLoadSamp2;
#X obj 1414 100 r fromLoadSamp3;
#X obj 271 430 r fromLoadSamp4;
#X obj 832 433 r fromLoadSamp5;
#X obj 1389 439 r fromLoadSamp6;
#X obj 278 764 r fromLoadSamp7;
#X obj 854 774 r fromLoadSamp8;
#X obj 1434 779 r fromLoadSamp9;
#X connect 0 0 2 1;
#X connect 1 0 4 0;
#X connect 2 0 74 0;
#X connect 4 0 0 0;
#X connect 7 0 9 1;
#X connect 8 0 10 0;
#X connect 9 0 14 0;
#X connect 10 0 7 0;
#X connect 13 0 9 0;
#X connect 15 0 17 1;
#X connect 16 0 18 0;
#X connect 17 0 22 0;
#X connect 18 0 15 0;
#X connect 21 0 17 0;
#X connect 23 0 25 1;
#X connect 24 0 26 0;
#X connect 25 0 30 0;
#X connect 26 0 23 0;
#X connect 29 0 25 0;
#X connect 31 0 33 1;
#X connect 32 0 34 0;
#X connect 33 0 38 0;
#X connect 34 0 31 0;
#X connect 37 0 33 0;
#X connect 39 0 41 1;
#X connect 40 0 42 0;
#X connect 41 0 46 0;
#X connect 42 0 39 0;
#X connect 45 0 41 0;
#X connect 47 0 49 1;
#X connect 48 0 50 0;
#X connect 49 0 54 0;
#X connect 50 0 47 0;
#X connect 53 0 49 0;
#X connect 55 0 57 1;
#X connect 56 0 58 0;
#X connect 57 0 62 0;
#X connect 58 0 55 0;
#X connect 61 0 57 0;
#X connect 63 0 65 1;
#X connect 64 0 66 0;
#X connect 65 0 70 0;
#X connect 66 0 63 0;
#X connect 69 0 65 0;
#X connect 73 0 2 0;
#X connect 75 0 1 0;
#X connect 76 0 8 0;
#X connect 77 0 16 0;
#X connect 78 0 24 0;
#X connect 79 0 32 0;
#X connect 80 0 40 0;
#X connect 81 0 48 0;
#X connect 82 0 56 0;
#X connect 83 0 64 0;
#X restore 153 511 pd samplebank;
#X obj 190 97 bng 25 250 50 0 fromLoadSamp1 toLoadSamp1 1 7 12 0 18
-4032 -260097 -1;
#X text 187 79 Load Samples;
#X obj 215 97 bng 25 250 50 0 fromLoadSamp2 toLoadSamp2 2 7 12 0 18
-4032 -260097 -1;
#X obj 240 97 bng 25 250 50 0 fromLoadSamp3 toLoadSamp3 3 7 12 0 18
-4032 -260097 -1;
#X obj 265 97 bng 25 250 50 0 fromLoadSamp4 toLoadSamp4 4 7 12 0 18
-4032 -260097 -1;
#X obj 290 97 bng 25 250 50 0 fromLoadSamp5 toLoadSamp5 5 7 12 0 18
-4032 -260097 -1;
#X obj 315 97 bng 25 250 50 0 fromLoadSamp6 toLoadSamp6 6 7 12 0 18
-4032 -260097 -1;
#X obj 340 97 bng 25 250 50 0 fromLoadSamp7 toLoadSamp7 7 7 12 0 18
-4032 -260097 -1;
#X obj 365 97 bng 25 250 50 0 fromLoadSamp8 toLoadSamp8 8 7 12 0 18
-4032 -260097 -1;
#X obj 390 97 bng 25 250 50 0 fromLoadSamp9 toLoadSamp9 9 7 12 0 18
-4032 -260097 -1;
#N canvas 0 22 450 300 universalcontrols 0;
#X msg 58 69 \; pd dsp \$1;
#X obj 57 36 r fromDSP;
#X connect 1 0 0 0;
#X restore 253 511 pd universalcontrols;
#X obj 140 133 cnv 15 310 130 empty empty empty 20 12 0 14 -262130
-66577 0;
#X obj 152 157 bng 25 250 50 0 fromLoadToPlaySamp1QZ1 toLoadToPlaySamp1QZ1
1 7 12 0 18 -260097 -260097 -1;
#X floatatom 153 199 5 0 20 2 Amp toAmpQZ1 fromAmpQZ1;
#X floatatom 306 199 8 0 0 2 Spd toSpdQZ1 fromSpdQZ1;
#X floatatom 190 199 8 0 0 2 Start toStartPctQZ1 fromStartPctQZ1;
#X floatatom 248 199 8 0 0 2 End toEndPctQZ1 fromEndPctQZ1;
#X floatatom 401 235 5 0 0 2 Rel toRelQZ1 fromRelQZ1;
#X floatatom 257 235 5 0 100000 2 Atk toAtkQZ1 fromAtkQZ1;
#X obj 228 228 bng 25 250 50 0 fromTrigADSQZ1 toTrigADSQZ1 ADS 4 13
0 10 -260097 -1 -1;
#X floatatom 294 235 5 0 100000 2 Sus toSusQZ1 fromSusQZ1;
#X floatatom 331 235 5 0 100000 2 Decay toDecayQZ1 fromDecayQZ1;
#X obj 372 228 bng 25 250 50 0 fromTrigRelQZ1 toTrigRelQZ1 Rel 4 13
0 10 -159808 -1 -1;
#X obj 178 228 bng 25 250 50 0 fromStopQZ1 toStopQZ1 Stop 3 13 0 8
-258113 -1 -1;
#X obj 153 228 bng 25 250 50 0 fromStartQZ1 toStartQZ1 Start 3 13 0
7 -4034 -1 -1;
#X obj 203 228 tgl 25 0 fromLoopTogQZ1 toLoopTogQZ1 Loop 1 12 0 10
-262144 -1 -33289 0 1;
#X obj 177 157 bng 25 250 50 0 fromLoadToPlaySamp2QZ1 toLoadToPlaySamp2QZ1
2 7 12 0 18 -260097 -260097 -1;
#X obj 202 157 bng 25 250 50 0 fromLoadToPlaySamp3QZ1 toLoadToPlaySamp3QZ1
3 7 12 0 18 -260097 -260097 -1;
#X obj 227 157 bng 25 250 50 0 fromLoadToPlaySamp4QZ1 toLoadToPlaySamp4QZ1
4 7 12 0 18 -260097 -260097 -1;
#X obj 252 157 bng 25 250 50 0 fromLoadToPlaySamp5QZ1 toLoadToPlaySamp5QZ1
5 7 12 0 18 -260097 -260097 -1;
#X obj 277 157 bng 25 250 50 0 fromLoadToPlaySamp6QZ1 toLoadToPlaySamp6QZ1
6 7 12 0 18 -260097 -260097 -1;
#X obj 302 157 bng 25 250 50 0 fromLoadToPlaySamp7QZ1 toLoadToPlaySamp7QZ1
7 7 12 0 18 -260097 -260097 -1;
#X obj 327 157 bng 25 250 50 0 fromLoadToPlaySamp8QZ1 toLoadToPlaySamp8QZ1
8 7 12 0 18 -260097 -260097 -1;
#X obj 352 157 bng 25 250 50 0 fromLoadToPlaySamp9QZ1 toLoadToPlaySamp9QZ1
9 7 12 0 18 -260097 -260097 -1;
#X text 149 139 Sample to Play;
