#N canvas 660 198 670 326 16;
#X obj 87 13 bng 25 250 50 0 fromLoadSFQZ1 toLoadSFQZ1 empty 17 7 0
10 -260097 -260097 -260097;
#X floatatom 214 13 5 0 1.5 0 Amp toAmpQZ1 fromAmpQZ1;
#N canvas 0 22 450 278 (subpatch) 0;
#X array buf1LQZ1 571233 float 2;
#X coords 0 1 571233 -1 600 100 1 0 0;
#X restore 16 142 graph;
#X obj 19 162 hsl 595 60 0 1 0 0 empty toGraphicIdxLQZ1 empty -2 -8
0 10 -262144 -1 -1 37347 1;
#X obj 150 13 tgl 25 0 fromDSPQZ1 empty empty 17 7 0 10 -257985 -1
-1 0 1;
#X text 117 14 DSP;
#X text 13 14 Load SF;
#N canvas 0 22 450 278 (subpatch) 0;
#X array buf1RQZ1 571233 float 2;
#X coords 0 1 571233 -1 600 60 1 0 0;
#X restore 16 242 graph;
#X obj 19 242 hsl 595 60 0 1 0 0 empty toGraphicIdxRQZ1 empty -2 -8
0 10 -262144 -1 -1 37347 1;
#X floatatom 563 13 8 0 0 0 Spd toSpdQZ1 fromSpdQZ1;
#X floatatom 325 13 8 0 0 0 Start toStartPctQZ1 fromStartPctQZ1;
#X floatatom 444 13 8 0 0 0 End toEndPctQZ1 fromEndPctQZ1;
#X obj 19 102 hsl 595 20 0 1 0 0 toStartPctQZ1 empty empty -2 -8 0
10 -4034 -260097 -1 28900 1;
#X obj 19 122 hsl 595 20 0 1 0 0 toEndPctQZ1 empty empty -2 -8 0 10
-4032 -257985 -1 37900 1;
#X obj 19 142 hsl 595 20 0 1 0 0 empty toStartPctQZ1 empty -2 -8 0
10 -262144 -4034 -1 28900 1;
#X obj 19 222 hsl 595 20 0 1 0 0 empty toEndPctQZ1 empty -2 -8 0 10
-262144 -4032 -1 37900 1;
#N canvas 28 50 1783 1003 subpatch1 0;
#X obj 145 172 soundfiler;
#X obj 145 90 openpanel;
#X obj 158 274 expr 44100 / $f1;
#X obj 319 901 phasor~;
#X obj 265 1282 *~;
#X obj 326 1850 *~;
#X msg 347 1616 \$1 20;
#X obj 326 1882 dac~, f 7;
#X floatatom 158 306 10 0 0 0 - - -;
#X msg 258 89 \; pd dsp \$1;
#X floatatom 275 1401 10 0 0 0 - - -;
#X msg 894 164 1;
#X obj 91 205 f;
#N canvas 237 152 1024 621 sigasfloat 0;
#X obj 21 54 inlet~ sigin;
#X obj 138 214 snapshot~;
#X obj 161 154 metro 50;
#X obj 214 72 loadbang;
#X text 235 207 samples a signal and outputs a float each time it receives
a bang, f 34;
#X text 254 153 bangs snapshot ever 50ms;
#X text 314 73 metro needs a bang to start outputing bangs;
#X obj 90 313 outlet float out;
#X connect 0 0 1 0;
#X connect 1 0 7 0;
#X connect 2 0 1 0;
#X connect 3 0 2 0;
#X restore 405 1120 pd sigasfloat;
#X obj 91 239 t b f f;
#X obj 400 745 f;
#N canvas 237 152 1024 621 sigasfloat 0;
#X obj 21 54 inlet~ sigin;
#X obj 138 214 snapshot~;
#X obj 161 154 metro 50;
#X obj 214 72 loadbang;
#X text 235 207 samples a signal and outputs a float each time it receives
a bang, f 34;
#X text 254 153 bangs snapshot ever 50ms;
#X text 314 73 metro needs a bang to start outputing bangs;
#X obj 90 313 outlet float out;
#X connect 0 0 1 0;
#X connect 1 0 7 0;
#X connect 2 0 1 0;
#X connect 3 0 2 0;
#X restore 275 1370 pd sigasfloat;
#X text 260 306 Phasor Freq;
#X text 379 1400 Curr Samp;
#X msg 145 139 read -resize \$1 buf1LQZ1 buf1RQZ1;
#X obj 45 1458 tabread4~ buf1LQZ1;
#X obj 265 1458 tabread4~ buf1RQZ1;
#X obj 393 1850 *~;
#X obj 437 696 t b f;
#X obj 319 845 *;
#X obj 580 35 loadbang;
#X msg 1300 169 1;
#X obj 929 515 -;
#X floatatom 1056 584 5 0 0 0 - - -;
#X obj 370 946 *~;
#N canvas 237 152 1024 621 sigasfloat 0;
#X obj 21 54 inlet~ sigin;
#X obj 138 214 snapshot~;
#X obj 161 154 metro 50;
#X obj 214 72 loadbang;
#X text 235 207 samples a signal and outputs a float each time it receives
a bang, f 34;
#X text 254 153 bangs snapshot ever 50ms;
#X text 314 73 metro needs a bang to start outputing bangs;
#X obj 90 313 outlet float out;
#X connect 0 0 1 0;
#X connect 1 0 7 0;
#X connect 2 0 1 0;
#X connect 3 0 2 0;
#X restore 523 1027 pd sigasfloat;
#X floatatom 523 1061 5 0 0 0 - - -;
#X obj 330 1068 +~;
#N canvas 237 152 1024 621 sigasfloat 0;
#X obj 21 54 inlet~ sigin;
#X obj 138 214 snapshot~;
#X obj 161 154 metro 50;
#X obj 214 72 loadbang;
#X text 235 207 samples a signal and outputs a float each time it receives
a bang, f 34;
#X text 254 153 bangs snapshot ever 50ms;
#X text 314 73 metro needs a bang to start outputing bangs;
#X obj 90 313 outlet float out;
#X connect 0 0 1 0;
#X connect 1 0 7 0;
#X connect 2 0 1 0;
#X connect 3 0 2 0;
#X restore 160 1113 pd sigasfloat;
#X floatatom 160 1147 5 0 0 0 - - -;
#X msg 1139 169 0;
#X msg 1002 166 1;
#X obj 852 478 t b f f;
#X obj 877 585 t b f f;
#X obj 484 798 / 1;
#X obj 425 664 f;
#X obj 750 444 expr min($f1 \, $f2);
#X obj 953 444 expr max($f1 \, $f2);
#X obj 928 546 expr abs($f1);
#X obj 1001 403 t b f;
#X obj 778 371 r fromStartPctQZ1;
#X obj 1000 370 r fromEndPctQZ1;
#X obj 1139 198 s toStartPctQZ1;
#X obj 1002 199 s toEndPctQZ1;
#X obj 66 52 r fromLoadSFQZ1;
#X obj 257 56 r fromDSPQZ1;
#X obj 1300 198 s toSpdQZ1;
#X obj 416 590 r fromSpdQZ1;
#X obj 334 1212 s toGraphicIdxLQZ1;
#X obj 431 1166 s toGraphicIdxRQZ1;
#X obj 893 198 s toAmpQZ1;
#X obj 347 1585 r fromAmpQZ1;
#X obj 579 67 t b b b b b b b b b b b b b b b b b b b b b;
#X obj 630 1684 vline~;
#X msg 636 1492 0 \$1;
#X obj 636 1445 f;
#X obj 1138 1448 * 1;
#X obj 1118 1393 t b f;
#X obj 1107 1531 pack 1 15 1 0 15;
#X msg 1109 1561 \$1 \$2 \, \$3 \$4 \$5;
#X text 1269 1510 <-sustain delay is attack time;
#X obj 1099 1274 r fromAmpQZ1;
#X obj 1072 1325 f;
#X obj 1071 1361 t f f;
#X text 890 1436 multiply sustain level by amplitude so you get percentage
of total amp, f 24;
#X obj 1266 1217 t f f;
#X text 769 1517 attack level comes from amp field;
#X text 943 1075 Create an ADSR style envelope using vline~ (see help
file);
#X text 1269 1561 \$1 amp level \, \$2 attack time;
#X text 1269 1585 \$3 sustain level \$4 decay time \, \$5 sustain delay
;
#X obj 662 1397 r fromRelQZ1;
#X obj 871 1238 r fromTrigADSQZ1;
#X obj 1128 1156 r fromAtkQZ1;
#X obj 1352 1231 r fromSusQZ1;
#X obj 1553 1189 r fromDecayQZ1;
#X obj 465 250 s toAtkQZ1;
#X msg 465 216 15;
#X obj 588 246 s toSusQZ1;
#X msg 588 212 1;
#X obj 702 250 s toDecayQZ1;
#X msg 702 216 0;
#X obj 833 248 s toRelQZ1;
#X msg 833 215 100;
#X obj 675 1560 print;
#X obj 530 1417 bng 15 250 50 0 empty empty empty 17 7 0 10 -262144
-1 -1;
#X obj 567 1275 r fromTrigRelQZ1;
#X connect 0 0 12 0;
#X connect 1 0 19 0;
#X connect 2 0 8 0;
#X connect 3 0 29 0;
#X connect 4 0 16 0;
#X connect 4 0 20 0;
#X connect 4 0 21 0;
#X connect 5 0 7 0;
#X connect 6 0 58 0;
#X connect 8 0 15 1;
#X connect 11 0 55 0;
#X connect 12 0 14 0;
#X connect 13 0 53 0;
#X connect 13 0 54 0;
#X connect 14 0 15 0;
#X connect 14 1 4 1;
#X connect 14 2 2 0;
#X connect 15 0 24 0;
#X connect 16 0 10 0;
#X connect 19 0 0 0;
#X connect 20 0 5 0;
#X connect 21 0 22 0;
#X connect 22 0 7 1;
#X connect 23 0 15 0;
#X connect 23 1 39 0;
#X connect 24 0 3 0;
#X connect 25 0 57 0;
#X connect 26 0 51 0;
#X connect 27 0 43 0;
#X connect 29 0 30 0;
#X connect 29 0 32 0;
#X connect 30 0 31 0;
#X connect 32 0 33 0;
#X connect 32 0 4 0;
#X connect 32 0 13 0;
#X connect 33 0 34 0;
#X connect 35 0 47 0;
#X connect 36 0 48 0;
#X connect 37 0 27 0;
#X connect 37 1 32 1;
#X connect 37 2 27 1;
#X connect 38 0 40 0;
#X connect 38 1 39 1;
#X connect 38 2 29 1;
#X connect 39 0 24 1;
#X connect 40 0 23 0;
#X connect 41 0 37 0;
#X connect 42 0 27 0;
#X connect 43 0 28 0;
#X connect 43 0 38 0;
#X connect 44 0 42 0;
#X connect 44 0 41 0;
#X connect 44 1 42 1;
#X connect 44 1 41 1;
#X connect 45 0 41 0;
#X connect 45 0 42 0;
#X connect 46 0 44 0;
#X connect 49 0 1 0;
#X connect 50 0 9 0;
#X connect 52 0 40 0;
#X connect 56 0 6 0;
#X connect 57 7 11 0;
#X connect 57 10 36 0;
#X connect 57 12 35 0;
#X connect 57 14 26 0;
#X connect 57 15 87 0;
#X connect 57 16 85 0;
#X connect 57 17 83 0;
#X connect 57 18 81 0;
#X connect 58 0 22 1;
#X connect 58 0 5 1;
#X connect 59 0 58 0;
#X connect 59 0 88 0;
#X connect 60 0 59 0;
#X connect 61 0 63 2;
#X connect 62 0 61 0;
#X connect 62 1 61 1;
#X connect 63 0 64 0;
#X connect 64 0 58 0;
#X connect 66 0 67 1;
#X connect 67 0 68 0;
#X connect 68 0 63 0;
#X connect 68 1 62 0;
#X connect 70 0 63 1;
#X connect 70 1 63 4;
#X connect 75 0 60 1;
#X connect 76 0 67 0;
#X connect 77 0 70 0;
#X connect 78 0 61 0;
#X connect 79 0 63 3;
#X connect 81 0 80 0;
#X connect 83 0 82 0;
#X connect 85 0 84 0;
#X connect 87 0 86 0;
#X connect 89 0 60 0;
#X connect 90 0 60 0;
#X restore 18 316 pd subpatch1;
#X floatatom 368 70 5 0 0 2 Rel toRelQZ1 fromRelQZ1;
#X text 288 53 Trig Rel, f 4;
#X floatatom 95 70 5 0 100000 2 Atk toAtkQZ1 fromAtkQZ1;
#X obj 59 61 bng 25 250 50 0 fromTrigADSQZ1 toTrigADSQZ1 empty 17 7
0 10 -260097 -1 -1;
#X floatatom 156 70 5 0 100000 2 Sus toSusQZ1 fromSusQZ1;
#X floatatom 216 70 5 0 100000 2 Decay toDecayQZ1 fromDecayQZ1;
#X text 13 52 Trig ADS, f 4;
#X obj 335 62 bng 25 250 50 0 fromTrigRelQZ1 toTrigRelQZ1 empty 17
7 0 10 -159808 -1 -1;
