#N canvas 0 38 747 430 12;
#X floatatom 21 91 8 0 0 2 BaseSpd toBaseSpd fromBaseSpd;
#X floatatom 79 91 5 0 0 2 R1 toR1 fromR1;
#X floatatom 116 91 5 0 0 2 R2 toR2 fromR2;
#X floatatom 153 91 8 0 0 2 SpdCalc toSpdCalc fromSpdCalc;
#N canvas 27 376 1443 660 composer 0;
#X obj 45 57 r fromBaseSpd;
#X obj 84 283 * 1;
#X obj 133 201 r fromR1;
#X obj 133 228 t b f;
#X obj 114 313 / 1;
#X obj 205 230 t b f;
#X obj 205 201 r fromR2;
#X obj 127 370 s toSpdCalc;
#X text 45 27 Calculate Speed Ratio Relationships;
#X obj 77 370 f;
#N canvas 0 22 1920 634 dataRouterSpd 0;
#X obj 471 22 inlet data;
#X obj 32 214 spigot 1;
#X obj 85 189 r fromDataRoute1;
#X obj 215 214 spigot 1;
#X obj 391 214 spigot 1;
#X obj 566 214 spigot 1;
#X obj 742 214 spigot 1;
#X obj 915 214 spigot 1;
#X obj 1091 214 spigot 1;
#X obj 1262 214 spigot 1;
#X obj 1315 189 r fromDataRoute8;
#X obj 1144 189 r fromDataRoute7;
#X obj 968 189 r fromDataRoute6;
#X obj 795 189 r fromDataRoute5;
#X obj 619 189 r fromDataRoute4;
#X obj 444 189 r fromDataRoute3;
#X obj 268 189 r fromDataRoute2;
#X obj 32 247 s toSpdQZ1;
#X obj 215 247 s toSpdQZ2;
#X obj 390 247 s toSpdQZ3;
#X obj 565 247 s toSpdQZ4;
#X obj 736 247 s toSpdQZ5;
#X obj 918 247 s toSpdQZ6;
#X obj 1094 247 s toSpdQZ7;
#X obj 1269 247 s toSpdQZ8;
#X connect 0 0 1 0;
#X connect 0 0 9 0;
#X connect 0 0 8 0;
#X connect 0 0 7 0;
#X connect 0 0 6 0;
#X connect 0 0 5 0;
#X connect 0 0 4 0;
#X connect 0 0 3 0;
#X connect 1 0 17 0;
#X connect 2 0 1 1;
#X connect 3 0 18 0;
#X connect 4 0 19 0;
#X connect 5 0 20 0;
#X connect 6 0 21 0;
#X connect 7 0 22 0;
#X connect 8 0 23 0;
#X connect 9 0 24 0;
#X connect 10 0 9 1;
#X connect 11 0 8 1;
#X connect 12 0 7 1;
#X connect 13 0 6 1;
#X connect 14 0 5 1;
#X connect 15 0 4 1;
#X connect 16 0 3 1;
#X restore 153 427 pd dataRouterSpd;
#X obj 372 28 loadbang;
#X obj 305 137 s toDataRoute1;
#X msg 372 55 1;
#X obj 413 137 s toDataRoute2;
#X obj 521 138 s toDataRoute3;
#X obj 628 138 s toDataRoute4;
#X obj 736 137 s toDataRoute5;
#X obj 843 137 s toDataRoute6;
#X obj 951 138 s toDataRoute7;
#X obj 1059 138 s toDataRoute8;
#X obj 95 91 r from8ve;
#X obj 44 215 *;
#X obj 95 167 t b f;
#X obj 95 125 expr pow(2 \, $f1);
#X connect 0 0 22 0;
#X connect 1 0 4 0;
#X connect 2 0 3 0;
#X connect 3 0 1 0;
#X connect 3 1 1 1;
#X connect 4 0 9 0;
#X connect 4 0 7 0;
#X connect 5 0 4 0;
#X connect 5 1 4 1;
#X connect 6 0 5 0;
#X connect 9 0 10 0;
#X connect 11 0 13 0;
#X connect 13 0 12 0;
#X connect 13 0 14 0;
#X connect 13 0 15 0;
#X connect 13 0 16 0;
#X connect 13 0 17 0;
#X connect 13 0 18 0;
#X connect 13 0 19 0;
#X connect 13 0 20 0;
#X connect 21 0 24 0;
#X connect 22 0 1 0;
#X connect 23 0 22 0;
#X connect 23 1 22 1;
#X connect 24 0 23 0;
#X restore 44 239 pd composer;
#X obj 19 36 tgl 25 0 fromDataRoute1 toDataRoute1 1 7 12 0 18 -257985
-1 -1 0 1;
#X obj 44 36 tgl 25 0 fromDataRoute2 toDataRoute2 2 7 12 0 18 -257985
-1 -1 0 1;
#X obj 69 36 tgl 25 0 fromDataRoute3 toDataRoute3 3 7 12 0 18 -257985
-1 -1 0 1;
#X obj 94 36 tgl 25 0 fromDataRoute4 toDataRoute4 4 7 12 0 18 -257985
-1 -1 0 1;
#X obj 119 36 tgl 25 0 fromDataRoute5 toDataRoute5 5 7 12 0 18 -257985
-1 -1 0 1;
#X obj 144 36 tgl 25 0 fromDataRoute6 toDataRoute6 6 7 12 0 18 -257985
-1 -1 0 1;
#X obj 169 36 tgl 25 0 fromDataRoute7 toDataRoute7 7 7 12 0 18 -257985
-1 -1 0 1;
#X obj 194 36 tgl 25 0 fromDataRoute8 toDataRoute8 8 7 12 0 18 -257985
-1 -1 1 1;
#X text 19 18 Data Routing;
#X floatatom 211 91 5 0 0 2 8ve to8ve from8ve;
