#N canvas 413 22 1470 1016 16;
#X obj 398 124 soundfiler;
#X obj 398 42 openpanel;
#X obj 397 7 bng 25 250 50 0 empty empty empty 17 7 0 10 -260097 -260097
-260097;
#X obj 411 226 expr 44100 / $f1;
#X obj 385 402 phasor~;
#X obj 341 1114 *~;
#X obj 264 1367 *~;
#X floatatom 608 1247 5 0 1.5 0 - - -;
#X obj 608 1314 line~;
#X msg 608 1281 \$1 20;
#X obj 264 1399 dac~, f 7;
#X floatatom 411 258 10 0 0 0 - - -;
#N canvas 0 22 450 278 (subpatch) 0;
#X array buf1LQZ1 571233 float 2;
#X coords 0 1 571233 -1 600 100 1 0 0;
#X restore 831 90 graph;
#X obj 834 110 hsl 595 60 0 1 0 0 empty empty empty -2 -8 0 10 -262144
-1 -1 29877 1;
#X msg 511 41 \; pd dsp \$1;
#X obj 511 6 tgl 25 0 empty empty empty 17 7 0 10 -257985 -1 -1 1 1
;
#X floatatom 351 1233 10 0 0 0 - - -;
#X obj 608 1180 loadbang;
#X msg 608 1213 1;
#X obj 344 157 f;
#N canvas 237 152 1024 621 sigasfloat 0;
#X obj 21 54 inlet~ sigin;
#X obj 138 214 snapshot~;
#X obj 161 154 metro 50;
#X obj 214 72 loadbang;
#X text 235 207 samples a signal and outputs a float each time it receives
a bang, f 34;
#X text 254 153 bangs snapshot ever 50ms;
#X text 314 73 metro needs a bang to start outputing bangs;
#X obj 90 313 outlet float out;
#X connect 0 0 1 0;
#X connect 1 0 7 0;
#X connect 2 0 1 0;
#X connect 3 0 2 0;
#X restore 810 39 pd sigasfloat;
#X obj 810 9 receive~ toBuf1GraphQZ1;
#X obj 344 191 t b f f;
#X obj 385 329 f;
#N canvas 237 152 1024 621 sigasfloat 0;
#X obj 21 54 inlet~ sigin;
#X obj 138 214 snapshot~;
#X obj 161 154 metro 50;
#X obj 214 72 loadbang;
#X text 235 207 samples a signal and outputs a float each time it receives
a bang, f 34;
#X text 254 153 bangs snapshot ever 50ms;
#X text 314 73 metro needs a bang to start outputing bangs;
#X obj 90 313 outlet float out;
#X connect 0 0 1 0;
#X connect 1 0 7 0;
#X connect 2 0 1 0;
#X connect 3 0 2 0;
#X restore 351 1202 pd sigasfloat;
#X text 552 7 DSP;
#X text 424 8 Load SF;
#X text 513 258 Phasor Freq;
#X text 455 1232 Curr Samp;
#X text 662 1247 Amp;
#X obj 463 927 s~ toBuf1GraphQZ1;
#X msg 398 91 read -resize \$1 buf1LQZ1 buf1RQZ1;
#N canvas 0 22 450 278 (subpatch) 0;
#X array buf1RQZ1 571233 float 2;
#X coords 0 1 571233 -1 600 100 1 0 0;
#X restore 831 190 graph;
#X obj 834 210 hsl 595 60 0 1 0 0 empty empty empty -2 -8 0 10 -262144
-1 -1 29877 1;
#X obj 121 1290 tabread4~ buf1LQZ1;
#X obj 341 1290 tabread4~ buf1RQZ1;
#X obj 331 1367 *~;
#X floatatom 651 218 8 0 0 0 - - -;
#X text 736 215 Speed;
#X obj 651 255 t b f;
#X obj 385 367 *;
#X obj 651 154 loadbang;
#X msg 651 184 1;
#X floatatom 626 488 8 0 0 0 - - -;
#X floatatom 739 487 8 0 0 0 - - -;
#X text 623 462 Start Pct;
#X text 736 461 End Pct;
#X text 839 589 If we subtract the normalized start point or end percentage
(0-1) from the end point \, we get the total length of the partial
sample we want to play in relation to the whole sample. So if we want
to play from 0.25 of the way through to 0.5 of the way through the
proportion of the entire sample we want to play is 0.25., f 57;
#X obj 697 585 -;
#X floatatom 780 630 5 0 0 0 - - -;
#X text 74 1019 Before the phasor signal is multiplied below by the
total number of samples \, its output is 0-1. It is this normalized
output that we want to deal with.;
#X obj 570 760 *~;
#X text 619 733 If we multiply the phasor output by the ratio described
above \, then instead of going from 0-1 \, it is going from 0-(the
difference between end pct and start pct). In the above example it
will go from 0-0.25.;
#N canvas 237 152 1024 621 sigasfloat 0;
#X obj 21 54 inlet~ sigin;
#X obj 138 214 snapshot~;
#X obj 161 154 metro 50;
#X obj 214 72 loadbang;
#X text 235 207 samples a signal and outputs a float each time it receives
a bang, f 34;
#X text 254 153 bangs snapshot ever 50ms;
#X text 314 73 metro needs a bang to start outputing bangs;
#X obj 90 313 outlet float out;
#X connect 0 0 1 0;
#X connect 1 0 7 0;
#X connect 2 0 1 0;
#X connect 3 0 2 0;
#X restore 622 821 pd sigasfloat;
#X floatatom 622 855 5 0 0 0 - - -;
#X text 115 787 Now to actually get the phasor to go from start pct
to end pct \, we have to add back the start pct., f 33;
#X obj 452 830 +~;
#N canvas 237 152 1024 621 sigasfloat 0;
#X obj 21 54 inlet~ sigin;
#X obj 138 214 snapshot~;
#X obj 161 154 metro 50;
#X obj 214 72 loadbang;
#X text 235 207 samples a signal and outputs a float each time it receives
a bang, f 34;
#X text 254 153 bangs snapshot ever 50ms;
#X text 314 73 metro needs a bang to start outputing bangs;
#X obj 90 313 outlet float out;
#X connect 0 0 1 0;
#X connect 1 0 7 0;
#X connect 2 0 1 0;
#X connect 3 0 2 0;
#X restore 267 893 pd sigasfloat;
#X floatatom 267 927 5 0 0 0 - - -;
#X obj 728 351 loadbang;
#X msg 727 387 0;
#X msg 777 384 1;
#X text 707 932 You'll notice the speed is incorrect \, we will fix
this in the next part;
#X obj 626 526 t b f f;
#X connect 0 0 19 0;
#X connect 1 0 31 0;
#X connect 2 0 1 0;
#X connect 3 0 11 0;
#X connect 4 0 51 0;
#X connect 5 0 24 0;
#X connect 5 0 34 0;
#X connect 5 0 35 0;
#X connect 6 0 10 0;
#X connect 7 0 9 0;
#X connect 8 0 6 1;
#X connect 8 0 36 1;
#X connect 9 0 8 0;
#X connect 11 0 23 1;
#X connect 15 0 14 0;
#X connect 17 0 18 0;
#X connect 18 0 7 0;
#X connect 19 0 22 0;
#X connect 20 0 13 0;
#X connect 20 0 33 0;
#X connect 21 0 20 0;
#X connect 22 0 23 0;
#X connect 22 1 5 1;
#X connect 22 2 3 0;
#X connect 23 0 40 0;
#X connect 24 0 16 0;
#X connect 31 0 0 0;
#X connect 34 0 6 0;
#X connect 35 0 36 0;
#X connect 36 0 10 1;
#X connect 37 0 39 0;
#X connect 39 0 23 0;
#X connect 39 1 40 1;
#X connect 40 0 4 0;
#X connect 41 0 42 0;
#X connect 42 0 37 0;
#X connect 43 0 63 0;
#X connect 44 0 48 0;
#X connect 48 0 49 0;
#X connect 48 0 51 1;
#X connect 51 0 53 0;
#X connect 51 0 56 0;
#X connect 53 0 54 0;
#X connect 56 0 57 0;
#X connect 56 0 5 0;
#X connect 56 0 30 0;
#X connect 57 0 58 0;
#X connect 59 0 60 0;
#X connect 59 0 61 0;
#X connect 60 0 43 0;
#X connect 61 0 44 0;
#X connect 63 0 48 0;
#X connect 63 1 56 1;
#X connect 63 2 48 1;
