#N canvas 252 24 1638 1016 16;
#X obj 398 124 soundfiler;
#X obj 398 42 openpanel;
#X obj 397 7 bng 25 250 50 0 empty empty empty 17 7 0 10 -260097 -260097
-260097;
#X obj 411 226 expr 44100 / $f1;
#X obj 406 689 phasor~;
#X obj 341 1114 *~;
#X obj 264 1367 *~;
#X floatatom 608 1247 5 0 1.5 0 - - -;
#X obj 608 1314 line~;
#X msg 608 1281 \$1 20;
#X obj 264 1399 dac~, f 7;
#X floatatom 411 258 10 0 0 0 - - -;
#N canvas 0 22 450 278 (subpatch) 0;
#X array buf1LQZ1 571233 float 2;
#X coords 0 1 571233 -1 600 100 1 0 0;
#X restore 998 93 graph;
#X obj 1001 113 hsl 595 60 0 1 0 0 empty empty empty -2 -8 0 10 -262144
-1 -1 16208 1;
#X msg 511 41 \; pd dsp \$1;
#X obj 511 6 tgl 25 0 empty empty empty 17 7 0 10 -257985 -1 -1 0 1
;
#X floatatom 351 1233 10 0 0 0 - - -;
#X obj 608 1180 loadbang;
#X msg 608 1213 1;
#X obj 344 157 f;
#N canvas 237 152 1024 621 sigasfloat 0;
#X obj 21 54 inlet~ sigin;
#X obj 138 214 snapshot~;
#X obj 161 154 metro 50;
#X obj 214 72 loadbang;
#X text 235 207 samples a signal and outputs a float each time it receives
a bang, f 34;
#X text 254 153 bangs snapshot ever 50ms;
#X text 314 73 metro needs a bang to start outputing bangs;
#X obj 90 313 outlet float out;
#X connect 0 0 1 0;
#X connect 1 0 7 0;
#X connect 2 0 1 0;
#X connect 3 0 2 0;
#X restore 977 42 pd sigasfloat;
#X obj 977 12 receive~ toBuf1GraphQZ1;
#X obj 344 191 t b f f;
#X obj 439 529 f;
#N canvas 237 152 1024 621 sigasfloat 0;
#X obj 21 54 inlet~ sigin;
#X obj 138 214 snapshot~;
#X obj 161 154 metro 50;
#X obj 214 72 loadbang;
#X text 235 207 samples a signal and outputs a float each time it receives
a bang, f 34;
#X text 254 153 bangs snapshot ever 50ms;
#X text 314 73 metro needs a bang to start outputing bangs;
#X obj 90 313 outlet float out;
#X connect 0 0 1 0;
#X connect 1 0 7 0;
#X connect 2 0 1 0;
#X connect 3 0 2 0;
#X restore 351 1202 pd sigasfloat;
#X text 552 7 DSP;
#X text 424 8 Load SF;
#X text 513 258 Phasor Freq;
#X text 455 1232 Curr Samp;
#X text 662 1247 Amp;
#X obj 463 927 s~ toBuf1GraphQZ1;
#X msg 398 91 read -resize \$1 buf1LQZ1 buf1RQZ1;
#N canvas 0 22 450 278 (subpatch) 0;
#X array buf1RQZ1 571233 float 2;
#X coords 0 1 571233 -1 600 100 1 0 0;
#X restore 998 193 graph;
#X obj 1001 213 hsl 595 60 0 1 0 0 empty empty empty -2 -8 0 10 -262144
-1 -1 16208 1;
#X obj 121 1290 tabread4~ buf1LQZ1;
#X obj 341 1290 tabread4~ buf1RQZ1;
#X obj 331 1367 *~;
#X floatatom 458 373 8 0 0 0 - - -;
#X text 545 375 Speed;
#X obj 476 480 t b f;
#X obj 406 633 *;
#X obj 458 309 loadbang;
#X msg 458 339 1;
#X floatatom 747 257 8 0 0 0 - - -;
#X floatatom 860 257 8 0 0 0 - - -;
#X text 744 231 Start Pct;
#X text 857 230 End Pct;
#X obj 818 346 -;
#X floatatom 921 385 5 0 0 0 - - -;
#X obj 570 760 *~;
#N canvas 237 152 1024 621 sigasfloat 0;
#X obj 21 54 inlet~ sigin;
#X obj 138 214 snapshot~;
#X obj 161 154 metro 50;
#X obj 214 72 loadbang;
#X text 235 207 samples a signal and outputs a float each time it receives
a bang, f 34;
#X text 254 153 bangs snapshot ever 50ms;
#X text 314 73 metro needs a bang to start outputing bangs;
#X obj 90 313 outlet float out;
#X connect 0 0 1 0;
#X connect 1 0 7 0;
#X connect 2 0 1 0;
#X connect 3 0 2 0;
#X restore 622 821 pd sigasfloat;
#X floatatom 622 855 5 0 0 0 - - -;
#X obj 452 830 +~;
#N canvas 237 152 1024 621 sigasfloat 0;
#X obj 21 54 inlet~ sigin;
#X obj 138 214 snapshot~;
#X obj 161 154 metro 50;
#X obj 214 72 loadbang;
#X text 235 207 samples a signal and outputs a float each time it receives
a bang, f 34;
#X text 254 153 bangs snapshot ever 50ms;
#X text 314 73 metro needs a bang to start outputing bangs;
#X obj 90 313 outlet float out;
#X connect 0 0 1 0;
#X connect 1 0 7 0;
#X connect 2 0 1 0;
#X connect 3 0 2 0;
#X restore 267 893 pd sigasfloat;
#X floatatom 267 927 5 0 0 0 - - -;
#X obj 832 164 loadbang;
#X msg 831 200 0;
#X msg 881 197 1;
#X obj 747 287 t b f f;
#X text 1094 315 We have the correct start and end points but the incorrect
speed. Currently we are going from \, for example \, 0.5 to 0.75 or
through 0.25 of the original sample. So our phasor~ is going from 0
- 0.25 in the same amount of time. So our playback will be much slower.
We need to then multiply the speed by the length of our partial sample.
, f 51;
#X text 854 327 Outputs length of partial sample., f 18;
#X text 501 452 stores current speed;
#X obj 742 386 t b f f;
#X text 562 582 divide current speed by length of partial sample;
#X obj 523 582 / 1;
#X obj 464 448 f;
#X text 169 501 bang here causes the original phasor freq to be output
multiplied by the adjusted speed, f 30;
#X connect 0 0 19 0;
#X connect 1 0 31 0;
#X connect 2 0 1 0;
#X connect 3 0 11 0;
#X connect 4 0 49 0;
#X connect 5 0 24 0;
#X connect 5 0 34 0;
#X connect 5 0 35 0;
#X connect 6 0 10 0;
#X connect 7 0 9 0;
#X connect 8 0 6 1;
#X connect 8 0 36 1;
#X connect 9 0 8 0;
#X connect 11 0 23 1;
#X connect 15 0 14 0;
#X connect 17 0 18 0;
#X connect 18 0 7 0;
#X connect 19 0 22 0;
#X connect 20 0 13 0;
#X connect 20 0 33 0;
#X connect 21 0 20 0;
#X connect 22 0 23 0;
#X connect 22 1 5 1;
#X connect 22 2 3 0;
#X connect 23 0 40 0;
#X connect 24 0 16 0;
#X connect 31 0 0 0;
#X connect 34 0 6 0;
#X connect 35 0 36 0;
#X connect 36 0 10 1;
#X connect 37 0 65 0;
#X connect 39 0 23 0;
#X connect 39 1 64 0;
#X connect 40 0 4 0;
#X connect 41 0 42 0;
#X connect 42 0 37 0;
#X connect 43 0 58 0;
#X connect 44 0 47 0;
#X connect 47 0 48 0;
#X connect 47 0 62 0;
#X connect 49 0 50 0;
#X connect 49 0 52 0;
#X connect 50 0 51 0;
#X connect 52 0 53 0;
#X connect 52 0 5 0;
#X connect 52 0 30 0;
#X connect 53 0 54 0;
#X connect 55 0 56 0;
#X connect 55 0 57 0;
#X connect 56 0 43 0;
#X connect 57 0 44 0;
#X connect 58 0 47 0;
#X connect 58 1 52 1;
#X connect 58 2 47 1;
#X connect 62 0 65 0;
#X connect 62 1 64 1;
#X connect 62 2 49 1;
#X connect 64 0 40 1;
#X connect 65 0 39 0;
