#N canvas 351 43 634 458 12;
#X obj 125 17 bng 25 250 50 0 fromBangOpenpanel empty empty 17 7 0
10 -260097 -260097 -260097;
#X floatatom 13 71 5 0 1.5 0 - toAmp fromAmp;
#X floatatom 12 143 15 0 0 0 - toPhasorFreq fromPhasorFreq;
#N canvas 0 22 450 278 (subpatch) 0;
#X array buf1L 2.17088e+06 float 2;
#X coords 0 1 2.17088e+06 -1 600 100 1 0 0;
#X restore 12 238 graph;
#X obj 15 258 hsl 595 60 0 1 0 0 empty toCsrL empty -2 -8 0 10 -262144
-1 -1 25182 1;
#X obj 93 17 tgl 25 0 fromDSPtog empty empty 17 7 0 10 -257985 -1 -1
1 1;
#X text 121 142 <-phasor frequency;
#X floatatom 12 166 15 0 0 0 - toCurrSamp -;
#X text 121 164 <-current sample index;
#N canvas 0 22 450 278 (subpatch) 0;
#X array buf1R 2.17088e+06 float 2;
#X coords 0 1 2.17088e+06 -1 600 100 1 0 0;
#X restore 12 338 graph;
#X obj 15 360 hsl 595 60 0 1 0 0 empty toCsrR empty -2 -8 0 10 -262144
-1 -1 25182 1;
#X floatatom 56 71 8 0 0 0 - toSpdNB fromSpdNB;
#X floatatom 124 71 8 0 1 0 - toStartPct fromStartPct;
#X floatatom 199 71 8 0 1 0 - toEndPct fromEndPct;
#X obj 15 238 hsl 595 20 0 1 0 0 empty toStartPct empty -2 -8 0 10
-262144 -4034 -1 0 1;
#X obj 15 318 hsl 595 20 0 1 0 0 empty toEndPct empty -2 -8 0 10 -262144
-4032 -1 59400 1;
#X obj 15 188 hsl 595 25 0 1 0 0 toStartPct empty empty -2 -8 0 10
-4034 -1 -1 0 1;
#X obj 15 213 hsl 595 25 0 1 0 0 toEndPct empty empty -2 -8 0 10 -4032
-1 -1 0 1;
#N canvas 316 22 1491 1025 subpatch 0;
#X obj 87 197 soundfiler;
#X obj 83 121 openpanel;
#X obj 50 288 expr 44100 / $f1;
#X obj 138 368 phasor~;
#X obj 114 436 *~;
#X obj 71 968 *~;
#X obj 67 997 dac~, f 7;
#X obj 257 324 unsig~ 50;
#X msg 196 119 \; pd dsp \$1;
#X obj 288 501 unsig~ 50;
#X msg 566 43 1;
#X obj 151 430 send~ toBuf1Graph;
#X obj 257 299 receive~ toBuf1Graph;
#X msg 87 160 read -resize \$1 buf1L buf1R;
#X obj 49 526 tabread4~ buf1L;
#X obj 168 526 tabread4~ buf1R;
#X obj 149 967 *~;
#X obj 138 317 f;
#X obj 137 341 *;
#X obj 202 305 t b f;
#X obj 302 3 loadbang;
#X msg 302 44 1;
#X msg 382 43 0;
#N canvas 714 68 1206 583 partialSample 0;
#X obj 142 36 r fromStartPct;
#X obj 403 40 r fromEndPct;
#X obj 209 243 expr if($f2>$f1 \, $f2-$f1 \, $f1-$f2);
#X floatatom 209 280 5 0 0 0 - - -;
#X obj 403 77 t b f;
#X text 470 76 <-expr will only output with input to left inlet. Use
trigger to force output with input to right inlet., f 37;
#X text 562 244 <-use expr and an if statement to insure that total
percentage is always positive, f 41;
#X obj 171 345 *~;
#X text 213 345 <-multiply phasor 0-1 sig by percentage of the partial
sample, f 61;
#X obj 109 417 +~;
#X text 151 418 <-add start percentage to start at the right point
;
#X obj 108 477 outlet~ adjusted phasor;
#X obj 21 3 inlet~ phasor 0-1;
#X text 350 475 <-use inlet~/outlet~ for signals;
#X obj 266 313 s fromPartPct;
#X text 411 314 <-send to adjust phasor frequency;
#X text 394 161 <-use expr and an if statement to correct start point
;
#X obj 41 162 expr if($f2>$f1 \, $f1 \, $f2);
#X obj 22 534 s adjStartPct;
#X text 121 535 <-already did the work here to make sure which is the
start point;
#X connect 0 0 2 0;
#X connect 0 0 17 0;
#X connect 1 0 4 0;
#X connect 2 0 3 0;
#X connect 3 0 7 1;
#X connect 3 0 14 0;
#X connect 4 0 2 0;
#X connect 4 0 17 0;
#X connect 4 1 2 1;
#X connect 4 1 17 1;
#X connect 7 0 9 0;
#X connect 9 0 11 0;
#X connect 12 0 7 0;
#X connect 17 0 9 1;
#X connect 17 0 18 0;
#X restore 142 399 pd partialSample;
#X obj 216 256 t b f;
#X obj 203 280 * 1;
#X obj 216 230 expr 1/$f1;
#X msg 483 41 1;
#X obj 382 67 s toStartPct;
#X obj 483 71 s toEndPct;
#X obj 302 68 s toSpdNB;
#X obj 204 183 r fromSpdNB;
#X obj 289 528 s toCurrSamp;
#X obj 567 71 s toAmp;
#X obj 493 657 r fromAmp;
#X obj 257 352 s toCsrL;
#X obj 321 352 s toCsrR;
#X obj 194 81 r fromDSPtog;
#X obj 46 80 r fromBangOpenpanel;
#X obj 217 205 r fromPartPct;
#X obj 28 313 s toPhasorFreq;
#X obj 43 257 s fromTotalSamps;
#X obj 46 225 f;
#X obj 626 24 delay 5;
#X obj 910 913 vline~;
#X obj 1036 599 r fromRel;
#X obj 574 658 r fromAtk;
#X obj 651 657 r fromSus;
#X obj 731 657 r fromDecay;
#X text 959 911 vline~ takes triplets: destination \, time \, initial
delay;
#X obj 574 727 * 1;
#X obj 517 687 t b f;
#X msg 708 36 100;
#X obj 708 60 s toRel;
#X msg 769 34 15;
#X obj 768 58 s toAtk;
#X obj 831 58 s toSus;
#X msg 832 34 1;
#X msg 892 37 0;
#X obj 892 61 s toDecay;
#X text 606 723 <-multiply sustain level by amplitude so you get percentage
of total amp, f 38;
#X obj 470 790 pack 1 15 1 0 15;
#X msg 472 820 \$1 \$2 \, \$3 \$4 \$5;
#X text 591 812 \$1 amp level \, \$2 attack time \, \$3 sustain level
\$4 decay time \, \$5 sustain delay, f 49;
#X text 586 781 <-sustain delay is attack time;
#X obj 471 498 route 1 0;
#X obj 1015 665 f;
#X msg 1016 692 0 \$1;
#X obj 471 464 r fromEnvTog;
#X obj 231 820 r toAmp;
#X connect 0 0 2 0;
#X connect 0 0 4 1;
#X connect 0 0 42 0;
#X connect 1 0 13 0;
#X connect 2 0 17 0;
#X connect 2 0 40 0;
#X connect 3 0 23 0;
#X connect 4 0 9 0;
#X connect 4 0 14 0;
#X connect 4 0 15 0;
#X connect 5 0 6 0;
#X connect 7 0 35 0;
#X connect 7 0 36 0;
#X connect 9 0 32 0;
#X connect 10 0 33 0;
#X connect 12 0 7 0;
#X connect 13 0 0 0;
#X connect 14 0 5 0;
#X connect 15 0 16 0;
#X connect 16 0 6 1;
#X connect 17 0 18 0;
#X connect 18 0 3 0;
#X connect 19 0 17 0;
#X connect 19 1 18 1;
#X connect 20 0 21 0;
#X connect 20 0 22 0;
#X connect 20 0 27 0;
#X connect 20 0 10 0;
#X connect 20 0 43 0;
#X connect 20 0 52 0;
#X connect 20 0 58 0;
#X connect 20 0 57 0;
#X connect 20 0 54 0;
#X connect 21 0 30 0;
#X connect 22 0 28 0;
#X connect 23 0 4 0;
#X connect 23 0 11 0;
#X connect 24 0 25 0;
#X connect 24 1 25 1;
#X connect 25 0 19 0;
#X connect 26 0 24 0;
#X connect 27 0 29 0;
#X connect 31 0 25 0;
#X connect 34 0 51 0;
#X connect 34 0 61 0;
#X connect 37 0 8 0;
#X connect 38 0 1 0;
#X connect 39 0 26 0;
#X connect 42 0 41 0;
#X connect 43 0 42 0;
#X connect 44 0 5 1;
#X connect 44 0 16 1;
#X connect 45 0 66 1;
#X connect 46 0 61 1;
#X connect 46 0 61 4;
#X connect 47 0 50 0;
#X connect 48 0 61 3;
#X connect 50 0 61 2;
#X connect 51 0 50 0;
#X connect 51 1 50 1;
#X connect 52 0 53 0;
#X connect 54 0 55 0;
#X connect 57 0 56 0;
#X connect 58 0 59 0;
#X connect 61 0 62 0;
#X connect 62 0 44 0;
#X connect 65 0 61 0;
#X connect 65 1 66 0;
#X connect 66 0 67 0;
#X connect 67 0 44 0;
#X connect 68 0 65 0;
#X connect 69 0 5 1;
#X connect 69 0 16 1;
#X restore 13 446 pd subpatch;
#X text 154 17 Load Sample, f 6;
#X text 13 17 Start/Stop DSP, f 10;
#X text 11 52 Amp;
#X text 54 52 Speed;
#X text 122 52 Start Pct;
#X text 197 52 End Pct;
#X floatatom 12 114 10 0 100000 0 - toRel fromRel;
#X floatatom 100 114 10 0 100000 0 - toAtk fromAtk;
#X floatatom 187 114 10 0 100000 0 - toSus fromSus;
#X floatatom 268 114 10 0 100000 0 - toDecay fromDecay;
#X text 9 95 rel;
#X text 97 95 atk;
#X text 184 95 sus;
#X text 264 95 decay;
#X text 239 20 envelope;
#X obj 212 18 tgl 25 0 fromEnvTog empty empty 17 7 0 10 -4034 -1 -1
0 1;
