#N canvas 853 29 667 314 16;
#X obj 87 13 bng 25 250 50 0 fromLoadSFQZ1 toLoadSFQZ1 empty 17 7 0
10 -260097 -260097 -260097;
#X floatatom 214 13 5 0 1.5 0 Amp toAmpQZ1 fromAmpQZ1;
#N canvas 0 22 450 278 (subpatch) 0;
#X array buf1LQZ1 571233 float 2;
#X coords 0 1 571233 -1 600 100 1 0 0;
#X restore 16 142 graph;
#X obj 19 162 hsl 595 60 0 1 0 0 empty toGraphicIdxLQZ1 empty -2 -8
0 10 -262144 -1 -1 27843 1;
#X obj 150 13 tgl 25 0 fromDSPQZ1 empty empty 17 7 0 10 -257985 -1
-1 1 1;
#X text 117 14 DSP;
#X text 13 14 Load SF;
#N canvas 0 22 450 278 (subpatch) 0;
#X array buf1RQZ1 571233 float 2;
#X coords 0 1 571233 -1 600 60 1 0 0;
#X restore 16 242 graph;
#X obj 19 242 hsl 595 60 0 1 0 0 empty toGraphicIdxRQZ1 empty -2 -8
0 10 -262144 -1 -1 27843 1;
#X floatatom 563 13 8 0 0 0 Spd toSpdQZ1 fromSpdQZ1;
#X floatatom 325 13 8 0 0 0 Start toStartPctQZ1 fromStartPctQZ1;
#X floatatom 444 13 8 0 0 0 End toEndPctQZ1 fromEndPctQZ1;
#X obj 19 102 hsl 595 20 0 1 0 0 toStartPctQZ1 empty empty -2 -8 0
10 -4034 -260097 -1 0 1;
#X obj 19 122 hsl 595 20 0 1 0 0 toEndPctQZ1 empty empty -2 -8 0 10
-4032 -257985 -1 0 1;
#X obj 19 142 hsl 595 20 0 1 0 0 empty toStartPctQZ1 empty -2 -8 0
10 -262144 -4034 -1 0 1;
#X obj 19 222 hsl 595 20 0 1 0 0 empty toEndPctQZ1 empty -2 -8 0 10
-262144 -4032 -1 59400 1;
#N canvas 133 206 1783 1003 subpatch1 0;
#X obj 269 451 soundfiler;
#X obj 269 369 openpanel;
#X obj 282 553 expr 44100 / $f1;
#X obj 443 1180 phasor~;
#X obj 389 1561 *~;
#X obj 450 2129 *~;
#X msg 524 1882 \$1 20;
#X obj 450 2161 dac~, f 7;
#X floatatom 282 585 10 0 0 0 - - -;
#X msg 386 357 \; pd dsp \$1;
#X floatatom 399 1680 10 0 0 0 - - -;
#X msg 622 181 1;
#X obj 215 484 f;
#N canvas 237 152 1024 621 sigasfloat 0;
#X obj 21 54 inlet~ sigin;
#X obj 138 214 snapshot~;
#X obj 161 154 metro 50;
#X obj 214 72 loadbang;
#X text 235 207 samples a signal and outputs a float each time it receives
a bang, f 34;
#X text 254 153 bangs snapshot ever 50ms;
#X text 314 73 metro needs a bang to start outputing bangs;
#X obj 90 313 outlet float out;
#X connect 0 0 1 0;
#X connect 1 0 7 0;
#X connect 2 0 1 0;
#X connect 3 0 2 0;
#X restore 529 1399 pd sigasfloat;
#X obj 215 518 t b f f;
#X obj 375 784 f;
#N canvas 237 152 1024 621 sigasfloat 0;
#X obj 21 54 inlet~ sigin;
#X obj 138 214 snapshot~;
#X obj 161 154 metro 50;
#X obj 214 72 loadbang;
#X text 235 207 samples a signal and outputs a float each time it receives
a bang, f 34;
#X text 254 153 bangs snapshot ever 50ms;
#X text 314 73 metro needs a bang to start outputing bangs;
#X obj 90 313 outlet float out;
#X connect 0 0 1 0;
#X connect 1 0 7 0;
#X connect 2 0 1 0;
#X connect 3 0 2 0;
#X restore 399 1649 pd sigasfloat;
#X text 503 1679 Curr Samp;
#X msg 269 418 read -resize \$1 buf1LQZ1 buf1RQZ1;
#X obj 169 1737 tabread4~ buf1LQZ1;
#X obj 389 1737 tabread4~ buf1RQZ1;
#X obj 517 2129 *~;
#X obj 412 735 t b f;
#X obj 375 841 *;
#X obj 460 9 loadbang;
#X msg 1028 186 1;
#X obj 856 502 -;
#X floatatom 983 571 5 0 0 0 - - -;
#X obj 494 1225 *~;
#N canvas 237 152 1024 621 sigasfloat 0;
#X obj 21 54 inlet~ sigin;
#X obj 138 214 snapshot~;
#X obj 161 154 metro 50;
#X obj 214 72 loadbang;
#X text 235 207 samples a signal and outputs a float each time it receives
a bang, f 34;
#X text 254 153 bangs snapshot ever 50ms;
#X text 314 73 metro needs a bang to start outputing bangs;
#X obj 90 313 outlet float out;
#X connect 0 0 1 0;
#X connect 1 0 7 0;
#X connect 2 0 1 0;
#X connect 3 0 2 0;
#X restore 647 1306 pd sigasfloat;
#X floatatom 647 1340 5 0 0 0 - - -;
#X obj 454 1347 +~;
#N canvas 237 152 1024 621 sigasfloat 0;
#X obj 21 54 inlet~ sigin;
#X obj 138 214 snapshot~;
#X obj 161 154 metro 50;
#X obj 214 72 loadbang;
#X text 235 207 samples a signal and outputs a float each time it receives
a bang, f 34;
#X text 254 153 bangs snapshot ever 50ms;
#X text 314 73 metro needs a bang to start outputing bangs;
#X obj 90 313 outlet float out;
#X connect 0 0 1 0;
#X connect 1 0 7 0;
#X connect 2 0 1 0;
#X connect 3 0 2 0;
#X restore 284 1392 pd sigasfloat;
#X floatatom 284 1426 5 0 0 0 - - -;
#X msg 867 186 0;
#X msg 730 183 1;
#X obj 779 465 t b f f;
#X obj 804 572 t b f f;
#X obj 463 798 / 1;
#X obj 400 703 f;
#X obj 677 431 expr min($f1 \, $f2);
#X obj 880 431 expr max($f1 \, $f2);
#X obj 855 533 expr abs($f1);
#X obj 928 390 t b f;
#X obj 705 358 r fromStartPctQZ1;
#X obj 927 357 r fromEndPctQZ1;
#X obj 867 215 s toStartPctQZ1;
#X obj 730 216 s toEndPctQZ1;
#X obj 190 331 r fromLoadSFQZ1;
#X obj 385 324 r fromDSPQZ1;
#X obj 1028 215 s toSpdQZ1;
#X obj 401 637 r fromSpdQZ1;
#X obj 458 1491 s toGraphicIdxLQZ1;
#X obj 555 1445 s toGraphicIdxRQZ1;
#X obj 621 215 s toAmpQZ1;
#X obj 524 1851 r fromAmpQZ1;
#X obj 459 41 t b b b b b b b b b b b b b b b b b b b b b;
#X obj 993 1956 vline~;
#X msg 868 1882 0 \$1;
#X obj 867 1849 f;
#X obj 1099 1811 * 1;
#X obj 1079 1756 t b f;
#X obj 1088 1854 pack 1 15 1 0 15;
#X msg 1090 1884 \$1 \$2 \, \$3 \$4 \$5;
#X obj 1060 1637 r fromAmpQZ1;
#X obj 1033 1688 f;
#X obj 1032 1724 t f f;
#X obj 1209 1672 t f f;
#X obj 893 1816 r fromRelQZ1;
#X obj 878 1636 r fromTrigADSQZ1;
#X obj 1208 1639 r fromAtkQZ1;
#X obj 1342 1638 r fromSusQZ1;
#X obj 1478 1637 r fromDecayQZ1;
#X obj 193 267 s toAtkQZ1;
#X msg 193 233 15;
#X obj 316 263 s toSusQZ1;
#X msg 316 229 1;
#X obj 430 267 s toDecayQZ1;
#X msg 430 233 0;
#X obj 561 265 s toRelQZ1;
#X msg 561 232 100;
#X obj 868 1787 r fromTrigRelQZ1;
#X text 389 586 Base Phasor Freq;
#X floatatom 429 896 15 0 0 0 - - -;
#X text 425 868 actual phasor freq;
#X obj 207 1030 f;
#X obj 208 1069 spigot 0;
#X obj 666 1025 r toPhasor0QZ1;
#X msg 667 1065 0;
#X obj 353 1004 r toPhasorFreqSpigotQZ1;
#X text 917 935 To Stop playback:;
#X text 972 971 1) Release envelope;
#X text 971 1009 2) Turn off spigot from phasor freq;
#X text 970 1048 3) Turn phasor freq to 0;
#X text 914 1108 To Start playback:;
#X text 969 1142 1) Turn on spigot from phasor freq;
#X obj 52 931 r toBangPhasorFreqQZ1;
#X text 968 1180 2) Bang phasor freq;
#X text 967 1219 3) Attack envelope;
#X text 915 1269 Start Up state will be 'stopped';
#X obj 36 251 s toPhasor0QZ1;
#X obj 1093 610 bng 25 250 50 0 fromStopQZ1 toStopQZ1 empty 17 7 0
10 -258113 -1 -1;
#X obj 1140 675 s toTrigRelQZ1;
#X obj 1133 886 s toPhasorFreqSpigotQZ1;
#X msg 1094 836 0;
#X obj 933 887 s toPhasor0QZ1;
#X text 1091 576 stop playback;
#X obj 933 1337 bng 25 250 50 0 fromStartQZ1 toStartQZ1 empty 17 7
0 10 -4034 -1 -1;
#X obj 933 1372 t b b b;
#X obj 1220 1457 s toPhasorFreqSpigotQZ1;
#X text 931 1303 start playback;
#X msg 1051 1409 1;
#X obj 980 1458 s toBangPhasorFreqQZ1;
#X obj 1093 645 t b b;
#X obj 1140 725 r fromRelQZ1;
#X obj 1093 755 delay;
#X obj 1022 797 t b b;
#X obj 825 1459 s toTrigADSQZ1;
#X connect 0 0 12 0;
#X connect 1 0 18 0;
#X connect 2 0 8 0;
#X connect 3 0 28 0;
#X connect 4 0 16 0;
#X connect 4 0 19 0;
#X connect 4 0 20 0;
#X connect 5 0 7 0;
#X connect 6 0 57 0;
#X connect 8 0 15 1;
#X connect 11 0 54 0;
#X connect 12 0 14 0;
#X connect 13 0 52 0;
#X connect 13 0 53 0;
#X connect 14 0 15 0;
#X connect 14 1 4 1;
#X connect 14 2 2 0;
#X connect 15 0 23 0;
#X connect 16 0 10 0;
#X connect 18 0 0 0;
#X connect 19 0 5 0;
#X connect 20 0 21 0;
#X connect 21 0 7 1;
#X connect 22 0 15 0;
#X connect 22 1 38 0;
#X connect 23 0 83 0;
#X connect 23 0 85 0;
#X connect 24 0 56 0;
#X connect 25 0 50 0;
#X connect 26 0 42 0;
#X connect 28 0 29 0;
#X connect 28 0 31 0;
#X connect 29 0 30 0;
#X connect 31 0 32 0;
#X connect 31 0 4 0;
#X connect 31 0 13 0;
#X connect 32 0 33 0;
#X connect 34 0 46 0;
#X connect 35 0 47 0;
#X connect 36 0 26 0;
#X connect 36 1 31 1;
#X connect 36 2 26 1;
#X connect 37 0 39 0;
#X connect 37 1 38 1;
#X connect 37 2 28 1;
#X connect 38 0 23 1;
#X connect 39 0 22 0;
#X connect 40 0 36 0;
#X connect 41 0 26 0;
#X connect 42 0 27 0;
#X connect 42 0 37 0;
#X connect 43 0 41 0;
#X connect 43 0 40 0;
#X connect 43 1 41 1;
#X connect 43 1 40 1;
#X connect 44 0 40 0;
#X connect 44 0 41 0;
#X connect 45 0 43 0;
#X connect 48 0 1 0;
#X connect 49 0 9 0;
#X connect 51 0 39 0;
#X connect 55 0 6 0;
#X connect 56 7 11 0;
#X connect 56 10 35 0;
#X connect 56 12 34 0;
#X connect 56 14 25 0;
#X connect 56 15 80 0;
#X connect 56 16 78 0;
#X connect 56 17 76 0;
#X connect 56 18 74 0;
#X connect 56 19 100 0;
#X connect 57 0 21 1;
#X connect 57 0 5 1;
#X connect 58 0 57 0;
#X connect 59 0 58 0;
#X connect 60 0 62 2;
#X connect 61 0 60 0;
#X connect 61 1 60 1;
#X connect 62 0 63 0;
#X connect 63 0 57 0;
#X connect 64 0 65 1;
#X connect 65 0 66 0;
#X connect 66 0 62 0;
#X connect 66 1 61 0;
#X connect 67 0 62 1;
#X connect 67 1 62 4;
#X connect 68 0 59 1;
#X connect 69 0 65 0;
#X connect 70 0 67 0;
#X connect 71 0 60 0;
#X connect 72 0 62 3;
#X connect 74 0 73 0;
#X connect 76 0 75 0;
#X connect 78 0 77 0;
#X connect 80 0 79 0;
#X connect 81 0 59 0;
#X connect 85 0 86 0;
#X connect 86 0 3 0;
#X connect 87 0 88 0;
#X connect 88 0 3 0;
#X connect 89 0 86 1;
#X connect 96 0 85 0;
#X connect 101 0 113 0;
#X connect 104 0 103 0;
#X connect 107 0 108 0;
#X connect 108 0 117 0;
#X connect 108 1 112 0;
#X connect 108 2 111 0;
#X connect 111 0 109 0;
#X connect 113 0 115 0;
#X connect 113 1 102 0;
#X connect 114 0 115 1;
#X connect 115 0 116 0;
#X connect 116 0 105 0;
#X connect 116 1 104 0;
#X restore 18 316 pd subpatch1;
#X floatatom 368 70 5 0 0 2 Rel toRelQZ1 fromRelQZ1;
#X text 288 53 Trig Rel, f 4;
#X floatatom 95 70 5 0 100000 2 Atk toAtkQZ1 fromAtkQZ1;
#X obj 59 61 bng 25 250 50 0 fromTrigADSQZ1 toTrigADSQZ1 empty 17 7
0 10 -260097 -1 -1;
#X floatatom 156 70 5 0 100000 2 Sus toSusQZ1 fromSusQZ1;
#X floatatom 216 70 5 0 100000 2 Decay toDecayQZ1 fromDecayQZ1;
#X text 13 52 Trig ADS, f 4;
#X obj 335 62 bng 25 250 50 0 fromTrigRelQZ1 toTrigRelQZ1 empty 17
7 0 10 -159808 -1 -1;
