#N canvas 553 208 692 363 16;
#X obj 87 13 bng 25 250 50 0 fromLoadSFQZ1 toLoadSFQZ1 empty 17 7 0
10 -260097 -260097 -260097;
#X floatatom 214 13 5 0 1.5 0 - toAmpQZ1 fromAmpQZ1;
#N canvas 0 22 450 278 (subpatch) 0;
#X array buf1LQZ1 571233 float 2;
#X coords 0 1 571233 -1 600 100 1 0 0;
#X restore 16 92 graph;
#X obj 19 112 hsl 595 60 0 1 0 0 empty toGraphicIdxLQZ1 empty -2 -8
0 10 -262144 -1 -1 12929 1;
#X obj 150 13 tgl 25 0 fromDSPQZ1 empty empty 17 7 0 10 -257985 -1
-1 0 1;
#X text 117 14 DSP;
#X text 13 14 Load SF;
#X text 180 14 Amp;
#N canvas 0 22 450 278 (subpatch) 0;
#X array buf1RQZ1 571233 float 2;
#X coords 0 1 571233 -1 600 60 1 0 0;
#X restore 16 192 graph;
#X obj 19 192 hsl 595 60 0 1 0 0 empty toGraphicIdxRQZ1 empty -2 -8
0 10 -262144 -1 -1 12929 1;
#X floatatom 583 14 8 0 0 0 - toSpdQZ1 fromSpdQZ1;
#X text 529 13 Speed;
#X floatatom 325 13 8 0 0 0 - toStartPctQZ1 fromStartPctQZ1;
#X floatatom 444 13 8 0 0 0 - toEndPctQZ1 fromEndPctQZ1;
#X text 271 10 Start Pct, f 5;
#X text 410 9 End Pct, f 3;
#X obj 19 52 hsl 595 20 0 1 0 0 toStartPctQZ1 empty empty -2 -8 0 10
-4034 -260097 -1 0 1;
#X obj 19 72 hsl 595 20 0 1 0 0 toEndPctQZ1 empty empty -2 -8 0 10
-4032 -257985 -1 0 1;
#X obj 19 92 hsl 595 20 0 1 0 0 empty toStartPctQZ1 empty -2 -8 0 10
-262144 -4034 -1 0 1;
#X obj 19 172 hsl 595 20 0 1 0 0 empty toEndPctQZ1 empty -2 -8 0 10
-262144 -4032 -1 59400 1;
#X text 42 292 Put everything into a single subpatch except for GUI
elements. Fixed up the loadbang and order;
#N canvas 28 50 1783 1003 subpatch1 0;
#X obj 145 172 soundfiler;
#X obj 145 90 openpanel;
#X obj 158 274 expr 44100 / $f1;
#X obj 319 901 phasor~;
#X obj 265 1282 *~;
#X obj 326 1850 *~;
#X msg 347 1616 \$1 20;
#X obj 326 1882 dac~, f 7;
#X floatatom 158 306 10 0 0 0 - - -;
#X msg 258 89 \; pd dsp \$1;
#X floatatom 275 1401 10 0 0 0 - - -;
#X msg 704 147 1;
#X obj 91 205 f;
#N canvas 237 152 1024 621 sigasfloat 0;
#X obj 21 54 inlet~ sigin;
#X obj 138 214 snapshot~;
#X obj 161 154 metro 50;
#X obj 214 72 loadbang;
#X text 235 207 samples a signal and outputs a float each time it receives
a bang, f 34;
#X text 254 153 bangs snapshot ever 50ms;
#X text 314 73 metro needs a bang to start outputing bangs;
#X obj 90 313 outlet float out;
#X connect 0 0 1 0;
#X connect 1 0 7 0;
#X connect 2 0 1 0;
#X connect 3 0 2 0;
#X restore 405 1120 pd sigasfloat;
#X obj 91 239 t b f f;
#X obj 400 745 f;
#N canvas 237 152 1024 621 sigasfloat 0;
#X obj 21 54 inlet~ sigin;
#X obj 138 214 snapshot~;
#X obj 161 154 metro 50;
#X obj 214 72 loadbang;
#X text 235 207 samples a signal and outputs a float each time it receives
a bang, f 34;
#X text 254 153 bangs snapshot ever 50ms;
#X text 314 73 metro needs a bang to start outputing bangs;
#X obj 90 313 outlet float out;
#X connect 0 0 1 0;
#X connect 1 0 7 0;
#X connect 2 0 1 0;
#X connect 3 0 2 0;
#X restore 275 1370 pd sigasfloat;
#X text 260 306 Phasor Freq;
#X text 379 1400 Curr Samp;
#X msg 145 139 read -resize \$1 buf1LQZ1 buf1RQZ1;
#X obj 45 1458 tabread4~ buf1LQZ1;
#X obj 265 1458 tabread4~ buf1RQZ1;
#X obj 393 1850 *~;
#X obj 437 696 t b f;
#X obj 319 845 *;
#X obj 580 35 loadbang;
#X msg 1110 152 1;
#X obj 929 515 -;
#X floatatom 1056 584 5 0 0 0 - - -;
#X obj 370 946 *~;
#N canvas 237 152 1024 621 sigasfloat 0;
#X obj 21 54 inlet~ sigin;
#X obj 138 214 snapshot~;
#X obj 161 154 metro 50;
#X obj 214 72 loadbang;
#X text 235 207 samples a signal and outputs a float each time it receives
a bang, f 34;
#X text 254 153 bangs snapshot ever 50ms;
#X text 314 73 metro needs a bang to start outputing bangs;
#X obj 90 313 outlet float out;
#X connect 0 0 1 0;
#X connect 1 0 7 0;
#X connect 2 0 1 0;
#X connect 3 0 2 0;
#X restore 523 1027 pd sigasfloat;
#X floatatom 523 1061 5 0 0 0 - - -;
#X obj 330 1068 +~;
#N canvas 237 152 1024 621 sigasfloat 0;
#X obj 21 54 inlet~ sigin;
#X obj 138 214 snapshot~;
#X obj 161 154 metro 50;
#X obj 214 72 loadbang;
#X text 235 207 samples a signal and outputs a float each time it receives
a bang, f 34;
#X text 254 153 bangs snapshot ever 50ms;
#X text 314 73 metro needs a bang to start outputing bangs;
#X obj 90 313 outlet float out;
#X connect 0 0 1 0;
#X connect 1 0 7 0;
#X connect 2 0 1 0;
#X connect 3 0 2 0;
#X restore 160 1113 pd sigasfloat;
#X floatatom 160 1147 5 0 0 0 - - -;
#X msg 949 152 0;
#X msg 812 149 1;
#X obj 852 478 t b f f;
#X obj 877 585 t b f f;
#X obj 484 798 / 1;
#X obj 425 664 f;
#X obj 750 444 expr min($f1 \, $f2);
#X obj 953 444 expr max($f1 \, $f2);
#X obj 928 546 expr abs($f1);
#X obj 1001 403 t b f;
#X obj 778 371 r fromStartPctQZ1;
#X obj 1000 370 r fromEndPctQZ1;
#X obj 949 181 s toStartPctQZ1;
#X obj 812 182 s toEndPctQZ1;
#X obj 66 52 r fromLoadSFQZ1;
#X obj 257 56 r fromDSPQZ1;
#X obj 1110 181 s toSpdQZ1;
#X obj 416 590 r fromSpdQZ1;
#X obj 334 1212 s toGraphicIdxLQZ1;
#X obj 431 1166 s toGraphicIdxRQZ1;
#X obj 703 181 s toAmpQZ1;
#X obj 347 1585 r fromAmpQZ1;
#X obj 579 67 t b b b b b b b b b b b b b b b b b b b b b;
#X obj 630 1684 vline~;
#X floatatom 678 1391 5 0 0 0 - - -;
#X msg 636 1492 0 \$1;
#X obj 636 1445 f;
#X obj 622 1347 bng 25 250 50 0 empty empty empty 17 7 0 10 -262144
-1 -1;
#X text 620 1325 trigger release;
#X text 679 1358 release time;
#X floatatom 1266 1187 5 0 0 0 - - -;
#X obj 1062 1173 bng 25 250 50 0 empty empty empty 17 7 0 10 -262144
-1 -1;
#X obj 1138 1448 * 1;
#X obj 1118 1393 t b f;
#X obj 1107 1531 pack 1 15 1 0 15;
#X msg 1109 1561 \$1 \$2 \, \$3 \$4 \$5;
#X text 1269 1510 <-sustain delay is attack time;
#X text 1263 1143 attack time, f 6;
#X obj 1099 1274 r fromAmpQZ1;
#X obj 1072 1325 f;
#X obj 1071 1361 t f f;
#X text 890 1436 multiply sustain level by amplitude so you get percentage
of total amp, f 24;
#X obj 1266 1217 t f f;
#X floatatom 1363 1188 5 0 0 0 - - -;
#X text 1360 1144 sustain level, f 7;
#X floatatom 1464 1188 5 0 0 0 - - -;
#X text 1461 1144 decay time, f 5;
#X text 765 1176 trigger attack-decay-sustain, f 29;
#X text 769 1517 attack level comes from amp field;
#X text 943 1075 Create an ADSR style envelope using vline~ (see help
file);
#X text 1269 1561 \$1 amp level \, \$2 attack time;
#X text 1269 1585 \$3 sustain level \$4 decay time \, \$5 sustain delay
;
#X connect 0 0 12 0;
#X connect 1 0 19 0;
#X connect 2 0 8 0;
#X connect 3 0 29 0;
#X connect 4 0 16 0;
#X connect 4 0 20 0;
#X connect 4 0 21 0;
#X connect 5 0 7 0;
#X connect 6 0 58 0;
#X connect 8 0 15 1;
#X connect 11 0 55 0;
#X connect 12 0 14 0;
#X connect 13 0 53 0;
#X connect 13 0 54 0;
#X connect 14 0 15 0;
#X connect 14 1 4 1;
#X connect 14 2 2 0;
#X connect 15 0 24 0;
#X connect 16 0 10 0;
#X connect 19 0 0 0;
#X connect 20 0 5 0;
#X connect 21 0 22 0;
#X connect 22 0 7 1;
#X connect 23 0 15 0;
#X connect 23 1 39 0;
#X connect 24 0 3 0;
#X connect 25 0 57 0;
#X connect 26 0 51 0;
#X connect 27 0 43 0;
#X connect 29 0 30 0;
#X connect 29 0 32 0;
#X connect 30 0 31 0;
#X connect 32 0 33 0;
#X connect 32 0 4 0;
#X connect 32 0 13 0;
#X connect 33 0 34 0;
#X connect 35 0 47 0;
#X connect 36 0 48 0;
#X connect 37 0 27 0;
#X connect 37 1 32 1;
#X connect 37 2 27 1;
#X connect 38 0 40 0;
#X connect 38 1 39 1;
#X connect 38 2 29 1;
#X connect 39 0 24 1;
#X connect 40 0 23 0;
#X connect 41 0 37 0;
#X connect 42 0 27 0;
#X connect 43 0 28 0;
#X connect 43 0 38 0;
#X connect 44 0 42 0;
#X connect 44 0 41 0;
#X connect 44 1 42 1;
#X connect 44 1 41 1;
#X connect 45 0 41 0;
#X connect 45 0 42 0;
#X connect 46 0 44 0;
#X connect 49 0 1 0;
#X connect 50 0 9 0;
#X connect 52 0 40 0;
#X connect 56 0 6 0;
#X connect 57 7 11 0;
#X connect 57 10 36 0;
#X connect 57 12 35 0;
#X connect 57 14 26 0;
#X connect 58 0 22 1;
#X connect 58 0 5 1;
#X connect 59 0 61 1;
#X connect 60 0 58 0;
#X connect 61 0 60 0;
#X connect 62 0 61 0;
#X connect 65 0 77 0;
#X connect 66 0 74 0;
#X connect 67 0 69 2;
#X connect 68 0 67 0;
#X connect 68 1 67 1;
#X connect 69 0 70 0;
#X connect 70 0 58 0;
#X connect 73 0 74 1;
#X connect 74 0 75 0;
#X connect 75 0 69 0;
#X connect 75 1 68 0;
#X connect 77 0 69 1;
#X connect 77 1 69 4;
#X connect 78 0 67 0;
#X connect 80 0 69 3;
#X restore 18 266 pd subpatch1;
