#N canvas 210 186 675 321 16;
#X obj 80 52 bng 25 250 50 0 fromLoadSFQZ1 toLoadSFQZ1 empty 17 7 0
10 -260097 -260097 -260097;
#X floatatom 207 52 5 0 20 0 Amp toAmpQZ1 fromAmpQZ1;
#N canvas 0 22 450 278 (subpatch) 0;
#X array buf1LQZ1 571233 float 2;
#X coords 0 1 571233 -1 600 60 1 0 0;
#X restore 9 160 graph;
#X obj 12 160 hsl 595 60 0 1 0 0 empty toGraphicIdxLQZ1 empty -2 -8
0 10 -262144 -1 -1 0 1;
#X obj 143 52 tgl 25 0 fromDSPQZ1 empty empty 17 7 0 10 -257985 -1
-1 0 1;
#X text 110 53 DSP;
#X text 6 53 Load SF;
#N canvas 0 22 450 278 (subpatch) 0;
#X array buf1RQZ1 571233 float 2;
#X coords 0 1 571233 -1 600 60 1 0 0;
#X restore 9 240 graph;
#X obj 12 240 hsl 595 60 0 1 0 0 empty toGraphicIdxRQZ1 empty -2 -8
0 10 -262144 -1 -1 0 1;
#X floatatom 556 52 8 0 0 0 Spd toSpdQZ1 fromSpdQZ1;
#X floatatom 318 52 8 0 0 0 Start toStartPctQZ1 fromStartPctQZ1;
#X floatatom 437 52 8 0 0 0 End toEndPctQZ1 fromEndPctQZ1;
#X obj 12 140 hsl 595 20 0 1 0 0 toStartPctQZ1 empty empty -2 -8 0
10 -262144 -4034 -1 0 1;
#X obj 12 220 hsl 595 20 0 1 0 0 toEndPctQZ1 empty empty -2 -8 0 10
-262144 -4032 -1 0 1;
#N canvas 6 22 1886 1021 subpatch1 0;
#X obj 223 394 soundfiler;
#X obj 223 328 openpanel;
#X obj 282 553 expr 44100 / $f1;
#X obj 443 1180 phasor~;
#X obj 389 1561 *~;
#X obj 590 2326 *~;
#X msg 793 2070 \$1 20;
#X obj 590 2358 dac~, f 7;
#X floatatom 282 585 10 0 0 0 - - -;
#X msg 340 306 \; pd dsp \$1;
#X floatatom 412 1701 10 0 0 0 - - -;
#X msg 622 181 1;
#N canvas 237 152 1024 621 sigasfloat 0;
#X obj 21 54 inlet~ sigin;
#X obj 138 214 snapshot~;
#X obj 161 154 metro 50;
#X obj 214 72 loadbang;
#X text 235 207 samples a signal and outputs a float each time it receives
a bang, f 34;
#X text 254 153 bangs snapshot ever 50ms;
#X text 314 73 metro needs a bang to start outputing bangs;
#X obj 90 313 outlet float out;
#X connect 0 0 1 0;
#X connect 1 0 7 0;
#X connect 2 0 1 0;
#X connect 3 0 2 0;
#X restore 529 1399 pd sigasfloat;
#X obj 215 518 t b f f;
#X obj 375 784 f;
#N canvas 237 152 1024 621 sigasfloat 0;
#X obj 21 54 inlet~ sigin;
#X obj 138 214 snapshot~;
#X obj 161 154 metro 50;
#X obj 214 72 loadbang;
#X text 235 207 samples a signal and outputs a float each time it receives
a bang, f 34;
#X text 254 153 bangs snapshot ever 50ms;
#X text 314 73 metro needs a bang to start outputing bangs;
#X obj 90 313 outlet float out;
#X connect 0 0 1 0;
#X connect 1 0 7 0;
#X connect 2 0 1 0;
#X connect 3 0 2 0;
#X restore 412 1670 pd sigasfloat;
#X text 516 1700 Curr Samp;
#X msg 223 361 read -resize \$1 buf1LQZ1 buf1RQZ1;
#X obj 169 1737 tabread4~ buf1LQZ1;
#X obj 389 1737 tabread4~ buf1RQZ1;
#X obj 657 2326 *~;
#X obj 412 735 t b f;
#X obj 375 841 *;
#X obj 241 -82 loadbang;
#X msg 1175 189 1;
#X obj 934 503 -;
#X floatatom 1061 572 5 0 0 0 - - -;
#X obj 494 1225 *~;
#N canvas 237 152 1024 621 sigasfloat 0;
#X obj 21 54 inlet~ sigin;
#X obj 138 214 snapshot~;
#X obj 161 154 metro 50;
#X obj 214 72 loadbang;
#X text 235 207 samples a signal and outputs a float each time it receives
a bang, f 34;
#X text 254 153 bangs snapshot ever 50ms;
#X text 314 73 metro needs a bang to start outputing bangs;
#X obj 90 313 outlet float out;
#X connect 0 0 1 0;
#X connect 1 0 7 0;
#X connect 2 0 1 0;
#X connect 3 0 2 0;
#X restore 647 1306 pd sigasfloat;
#X floatatom 647 1340 5 0 0 0 - - -;
#X obj 454 1347 +~;
#N canvas 237 152 1024 621 sigasfloat 0;
#X obj 21 54 inlet~ sigin;
#X obj 138 214 snapshot~;
#X obj 161 154 metro 50;
#X obj 214 72 loadbang;
#X text 235 207 samples a signal and outputs a float each time it receives
a bang, f 34;
#X text 254 153 bangs snapshot ever 50ms;
#X text 314 73 metro needs a bang to start outputing bangs;
#X obj 90 313 outlet float out;
#X connect 0 0 1 0;
#X connect 1 0 7 0;
#X connect 2 0 1 0;
#X connect 3 0 2 0;
#X restore 284 1392 pd sigasfloat;
#X floatatom 284 1426 5 0 0 0 - - -;
#X msg 867 186 0;
#X msg 730 183 1;
#X obj 857 466 t b f f;
#X obj 882 573 t b f f;
#X obj 463 798 / 1;
#X obj 400 703 f;
#X obj 763 387 expr min($f1 \, $f2);
#X obj 966 387 expr max($f1 \, $f2);
#X obj 933 534 expr abs($f1);
#X obj 1014 346 t b f;
#X obj 791 314 r fromStartPctQZ1;
#X obj 1013 313 r fromEndPctQZ1;
#X obj 867 215 s toStartPctQZ1;
#X obj 730 216 s toEndPctQZ1;
#X obj 144 280 r fromLoadSFQZ1;
#X obj 339 273 r fromDSPQZ1;
#X obj 1175 218 s toSpdQZ1;
#X obj 401 637 r fromSpdQZ1;
#X obj 458 1491 s toGraphicIdxLQZ1;
#X obj 555 1445 s toGraphicIdxRQZ1;
#X obj 621 215 s toAmpQZ1;
#X obj 793 2039 r fromAmpQZ1;
#X obj 241 -27 t b b b b b b b b b b b b b b b b b b b b b;
#X obj 1064 2194 vline~;
#X msg 1008 2079 0 \$1;
#X obj 1007 2046 f;
#X obj 1239 2008 * 1;
#X obj 1219 1953 t b f;
#X obj 1228 2051 pack 1 15 1 0 15;
#X msg 1104 2158 \$1 \$2 \, \$3 \$4 \$5;
#X obj 1200 1834 r fromAmpQZ1;
#X obj 1173 1885 f;
#X obj 1172 1921 t f f;
#X obj 1349 1869 t f f;
#X obj 1033 2013 r fromRelQZ1;
#X obj 1018 1833 r fromTrigADSQZ1;
#X obj 1348 1836 r fromAtkQZ1;
#X obj 1482 1835 r fromSusQZ1;
#X obj 1618 1834 r fromDecayQZ1;
#X obj 137 219 s toAtkQZ1;
#X msg 137 185 15;
#X obj 260 215 s toSusQZ1;
#X msg 260 181 1;
#X obj 374 219 s toDecayQZ1;
#X msg 374 185 0;
#X obj 505 217 s toRelQZ1;
#X msg 505 184 100;
#X obj 1008 1984 r fromTrigRelQZ1;
#X text 389 586 Base Phasor Freq;
#X floatatom 429 896 15 0 0 0 - - -;
#X text 425 868 actual phasor freq;
#X obj 207 1030 f;
#X obj 208 1069 spigot 0;
#X obj 666 1025 r toPhasor0QZ1;
#X msg 667 1065 0;
#X obj 353 1004 r toPhasorFreqSpigotQZ1;
#X obj 52 931 r toBangPhasorFreqQZ1;
#X obj -20 203 s toPhasor0QZ1;
#X obj 1649 1588 s toTrigRelQZ1;
#X obj 1713 1750 s toPhasorFreqSpigotQZ1;
#X msg 1674 1717 0;
#X obj 1513 1751 s toPhasor0QZ1;
#X obj 971 1665 t b b b;
#X obj 1258 1750 s toPhasorFreqSpigotQZ1;
#X msg 1089 1702 1;
#X obj 1018 1751 s toBangPhasorFreqQZ1;
#X obj 1602 1558 t b b;
#X obj 1649 1622 r fromRelQZ1;
#X obj 1602 1652 delay;
#X obj 1602 1684 t b b;
#X obj 863 1752 s toTrigADSQZ1;
#X obj 1602 1524 r fromStopQZ1;
#X obj 971 1632 r fromStartQZ1;
#X obj 2909 1497 samplerate~;
#X obj 2909 1527 / 1000;
#X obj 2882 1562 *;
#X obj 2631 1786 f;
#X obj 455 1621 s~ toThreshQZ1;
#X obj 414 489 f;
#X obj 414 439 r toTotalSampsQZ1;
#X obj 414 522 s fromTotalSampsQZ1;
#X obj 1014 460 f;
#X obj 1013 420 r toRealEndQZ1;
#X obj 1013 501 s fromRealEndQZ1;
#X obj 2420 1856 r fromTotalSampsQZ1;
#X obj 2393 1888 *;
#X obj 2393 1823 r fromRealEndQZ1;
#X obj 2568 1950 -;
#X obj 2528 1741 t b b b;
#X obj 2429 1788 s toTotalSampsQZ1;
#X obj 2278 1787 s toRealEndQZ1;
#X obj 2393 1993 r~ toThreshQZ1;
#X obj 2553 2177 threshold~;
#X obj 2754 2412 s toStopSeqQZ1;
#X obj 1504 1494 r toStopSeqQZ1;
#X obj 2530 1605 f;
#X obj 2699 1396 r fromSpdQZ1;
#X obj 2530 1676 route 0 1;
#X obj 2863 1888 r fromTotalSampsQZ1;
#X obj 2836 1924 *;
#X obj 2806 1768 t b b b;
#X obj 2974 1817 s toTotalSampsQZ1;
#X obj 2727 1816 f;
#X obj 664 496 f;
#X obj 664 457 r toRealStartQZ1;
#X obj 664 537 s fromRealStartQZ1;
#X obj 2778 1817 s toRealStartQZ1;
#X obj 2836 1855 r fromRealStartQZ1;
#X obj 2804 1995 * -1;
#X obj 2393 2089 *~ 1;
#X obj 2430 2021 r fromSpdQZ1;
#X obj 2430 2055 expr if($f1<0 \, -1 \, 1);
#X obj 2530 1637 expr if($f1<0 \, 0 \, 1);
#X msg 2681 2059 set \$1 100 \$1 100;
#X obj 2804 1962 +;
#X obj 2432 1475 r fromStartPctQZ1;
#X obj 2432 1506 t b;
#X obj 2490 1537 t b;
#X obj 2490 1506 r fromEndPctQZ1;
#X obj 2837 1396 r fromRelQZ1;
#X obj 2844 1619 *;
#X obj 2802 1513 t b f;
#X obj 2844 1660 expr abs($f1);
#X obj 2837 1426 t b f;
#X obj 2699 1430 t f f;
#X obj 94 -83 r toInitQZ1;
#X obj 1172 86 s toCalcSampRateQZ1;
#X obj 2909 1463 r toCalcSampRateQZ1;
#X obj 223 427 t f f b;
#X obj 248 482 s toInitQZ1;
#X obj 2276 1549 r toCalcThreshQZ1;
#X obj -78 108 s toCalcThreshQZ1;
#X text 2548 2316 loop on;
#X obj 2536 2353 spigot 1;
#X obj 2583 2420 s toTrigRelQZ1;
#X obj 2536 2390 t b b;
#X obj 2583 2454 r fromRelQZ1;
#X obj 2536 2484 delay;
#X obj 2536 2521 s toTrigADSQZ1;
#X obj 2755 2369 spigot 0;
#X text 2848 2367 loop off;
#X obj 2756 2207 route 0 1;
#X obj 2696 2243 t b b;
#X msg 2743 2275 0;
#X msg 2696 2275 1;
#X obj 2799 2240 t b b;
#X msg 2846 2272 0;
#X msg 2799 2272 1;
#X obj 985 182 s toLoopTogQZ1;
#X obj 2756 2174 r fromLoopTogQZ1;
#X connect 0 0 161 0;
#X connect 1 0 17 0;
#X connect 2 0 8 0;
#X connect 3 0 27 0;
#X connect 4 0 15 0;
#X connect 4 0 18 0;
#X connect 4 0 19 0;
#X connect 4 0 110 0;
#X connect 5 0 7 0;
#X connect 6 0 56 0;
#X connect 8 0 14 1;
#X connect 11 0 53 0;
#X connect 12 0 51 0;
#X connect 12 0 52 0;
#X connect 13 0 14 0;
#X connect 13 1 4 1;
#X connect 13 2 2 0;
#X connect 14 0 22 0;
#X connect 15 0 10 0;
#X connect 17 0 0 0;
#X connect 18 0 5 0;
#X connect 19 0 20 0;
#X connect 20 0 7 1;
#X connect 21 0 14 0;
#X connect 21 1 37 0;
#X connect 22 0 82 0;
#X connect 22 0 84 0;
#X connect 23 0 55 0;
#X connect 24 0 49 0;
#X connect 25 0 41 0;
#X connect 27 0 28 0;
#X connect 27 0 30 0;
#X connect 28 0 29 0;
#X connect 30 0 31 0;
#X connect 30 0 4 0;
#X connect 30 0 12 0;
#X connect 31 0 32 0;
#X connect 33 0 45 0;
#X connect 34 0 46 0;
#X connect 35 0 25 0;
#X connect 35 1 30 1;
#X connect 35 2 25 1;
#X connect 36 0 38 0;
#X connect 36 1 37 1;
#X connect 36 2 27 1;
#X connect 37 0 22 1;
#X connect 38 0 21 0;
#X connect 39 0 35 0;
#X connect 39 0 136 1;
#X connect 40 0 25 0;
#X connect 40 0 114 1;
#X connect 41 0 26 0;
#X connect 41 0 36 0;
#X connect 42 0 40 0;
#X connect 42 0 39 0;
#X connect 42 1 40 1;
#X connect 42 1 39 1;
#X connect 43 0 39 0;
#X connect 43 0 40 0;
#X connect 44 0 42 0;
#X connect 47 0 1 0;
#X connect 48 0 9 0;
#X connect 50 0 38 0;
#X connect 54 0 6 0;
#X connect 55 4 164 0;
#X connect 55 7 11 0;
#X connect 55 10 34 0;
#X connect 55 12 33 0;
#X connect 55 13 181 0;
#X connect 55 14 24 0;
#X connect 55 15 79 0;
#X connect 55 16 77 0;
#X connect 55 17 75 0;
#X connect 55 18 73 0;
#X connect 55 19 90 0;
#X connect 55 20 159 0;
#X connect 56 0 20 1;
#X connect 56 0 5 1;
#X connect 57 0 56 0;
#X connect 58 0 57 0;
#X connect 59 0 61 2;
#X connect 60 0 59 0;
#X connect 60 1 59 1;
#X connect 61 0 62 0;
#X connect 62 0 56 0;
#X connect 63 0 64 1;
#X connect 64 0 65 0;
#X connect 65 0 61 0;
#X connect 65 1 60 0;
#X connect 66 0 61 1;
#X connect 66 1 61 4;
#X connect 67 0 58 1;
#X connect 68 0 64 0;
#X connect 69 0 66 0;
#X connect 70 0 59 0;
#X connect 71 0 61 3;
#X connect 73 0 72 0;
#X connect 75 0 74 0;
#X connect 77 0 76 0;
#X connect 79 0 78 0;
#X connect 80 0 58 0;
#X connect 84 0 85 0;
#X connect 85 0 3 0;
#X connect 86 0 87 0;
#X connect 87 0 3 0;
#X connect 88 0 85 1;
#X connect 89 0 84 0;
#X connect 93 0 92 0;
#X connect 95 0 103 0;
#X connect 95 1 98 0;
#X connect 95 2 97 0;
#X connect 97 0 96 0;
#X connect 99 0 101 0;
#X connect 99 1 91 0;
#X connect 100 0 101 1;
#X connect 101 0 102 0;
#X connect 102 0 94 0;
#X connect 102 1 93 0;
#X connect 104 0 99 0;
#X connect 105 0 95 0;
#X connect 106 0 107 0;
#X connect 107 0 108 1;
#X connect 108 0 153 0;
#X connect 109 0 120 1;
#X connect 111 0 113 0;
#X connect 112 0 111 0;
#X connect 114 0 116 0;
#X connect 115 0 114 0;
#X connect 117 0 118 1;
#X connect 118 0 120 0;
#X connect 119 0 118 0;
#X connect 120 0 146 0;
#X connect 121 0 123 0;
#X connect 121 1 122 0;
#X connect 121 2 109 0;
#X connect 124 0 142 0;
#X connect 125 0 166 0;
#X connect 125 0 172 0;
#X connect 127 0 99 0;
#X connect 128 0 145 0;
#X connect 129 0 157 0;
#X connect 130 0 133 0;
#X connect 130 1 121 0;
#X connect 131 0 132 1;
#X connect 132 0 147 0;
#X connect 133 0 139 0;
#X connect 133 1 134 0;
#X connect 133 2 135 0;
#X connect 135 0 147 1;
#X connect 136 0 138 0;
#X connect 137 0 136 0;
#X connect 140 0 132 0;
#X connect 141 0 146 0;
#X connect 142 0 125 0;
#X connect 143 0 144 0;
#X connect 144 0 142 1;
#X connect 145 0 130 0;
#X connect 146 0 125 0;
#X connect 147 0 141 0;
#X connect 148 0 149 0;
#X connect 149 0 128 0;
#X connect 150 0 128 0;
#X connect 151 0 150 0;
#X connect 152 0 156 0;
#X connect 153 0 155 0;
#X connect 154 0 153 0;
#X connect 154 1 153 1;
#X connect 155 0 135 1;
#X connect 155 0 109 1;
#X connect 156 0 128 0;
#X connect 156 1 108 0;
#X connect 157 0 128 0;
#X connect 157 1 154 0;
#X connect 158 0 55 0;
#X connect 160 0 106 0;
#X connect 161 0 13 0;
#X connect 161 1 111 1;
#X connect 161 2 162 0;
#X connect 163 0 128 0;
#X connect 166 0 168 0;
#X connect 168 0 170 0;
#X connect 168 1 167 0;
#X connect 169 0 170 1;
#X connect 170 0 171 0;
#X connect 172 0 126 0;
#X connect 174 0 175 0;
#X connect 174 1 178 0;
#X connect 175 0 177 0;
#X connect 175 1 176 0;
#X connect 176 0 166 1;
#X connect 177 0 172 1;
#X connect 178 0 180 0;
#X connect 178 1 179 0;
#X connect 179 0 172 1;
#X connect 180 0 166 1;
#X connect 182 0 174 0;
#X restore 11 355 pd subpatch1;
#X floatatom 480 106 5 0 0 2 Rel toRelQZ1 fromRelQZ1;
#X text 400 89 Trig Rel, f 4;
#X floatatom 207 106 5 0 100000 2 Atk toAtkQZ1 fromAtkQZ1;
#X obj 171 97 bng 25 250 50 0 fromTrigADSQZ1 toTrigADSQZ1 empty 17
7 0 10 -260097 -1 -1;
#X floatatom 268 106 5 0 100000 2 Sus toSusQZ1 fromSusQZ1;
#X floatatom 328 106 5 0 100000 2 Decay toDecayQZ1 fromDecayQZ1;
#X text 125 88 Trig ADS, f 4;
#X obj 447 98 bng 25 250 50 0 fromTrigRelQZ1 toTrigRelQZ1 empty 17
7 0 10 -159808 -1 -1;
#X obj 70 107 bng 25 250 50 0 fromStopQZ1 toStopQZ1 empty 17 7 0 10
-258113 -1 -1;
#X obj 9 107 bng 25 250 50 0 fromStartQZ1 toStartQZ1 empty 17 7 0 10
-4034 -1 -1;
#X text 67 86 Stop;
#X text 6 86 Start;
#X obj 550 104 tgl 25 0 fromLoopTogQZ1 toLoopTogQZ1 empty 17 7 0 10
-262144 -1 -1 1 1;
#X text 546 83 Loop;
#N canvas 42 29 1857 989 samplebank 0;
#X obj 271 273 soundfiler;
#X obj 271 192 openpanel;
#X obj 244 331 f;
#X text 274 27 Make A Sample Bank \; Load With Samples;
#X obj 271 90 r fromLoadSamp1;
#X msg 271 230 read -resize \$1 samp1L samp1R;
#X obj 291 129 array define samp1L;
#X obj 291 153 array define samp1R;
#X obj 28 273 r Samp1TotalNumSamps;
#X obj 244 376 s fromSamp1TotalNumSamps;
#X obj 842 274 soundfiler;
#X obj 842 193 openpanel;
#X obj 815 332 f;
#X obj 842 93 r fromLoadsamp2;
#X msg 842 231 read -resize \$1 samp2L samp2R;
#X obj 862 130 array define samp2L;
#X obj 862 154 array define samp2R;
#X obj 599 274 r samp2TotalNumSamps;
#X obj 815 376 s fromsamp2TotalNumSamps;
#X obj 1414 281 soundfiler;
#X obj 1414 200 openpanel;
#X obj 1387 339 f;
#X obj 1414 100 r fromLoadsamp3;
#X msg 1414 238 read -resize \$1 samp3L samp3R;
#X obj 1434 137 array define samp3L;
#X obj 1434 161 array define samp3R;
#X obj 1171 281 r samp3TotalNumSamps;
#X obj 1387 383 s fromsamp3TotalNumSamps;
#X obj 271 611 soundfiler;
#X obj 271 530 openpanel;
#X obj 244 669 f;
#X obj 271 430 r fromLoadsamp4;
#X msg 271 568 read -resize \$1 samp4L samp4R;
#X obj 291 467 array define samp4L;
#X obj 291 491 array define samp4R;
#X obj 28 611 r samp4TotalNumSamps;
#X obj 244 713 s fromsamp4TotalNumSamps;
#X obj 832 614 soundfiler;
#X obj 832 533 openpanel;
#X obj 805 672 f;
#X obj 832 433 r fromLoadsamp5;
#X msg 832 571 read -resize \$1 samp5L samp5R;
#X obj 852 470 array define samp5L;
#X obj 852 494 array define samp5R;
#X obj 589 614 r samp5TotalNumSamps;
#X obj 805 716 s fromsamp5TotalNumSamps;
#X obj 1389 620 soundfiler;
#X obj 1389 539 openpanel;
#X obj 1362 678 f;
#X obj 1389 439 r fromLoadsamp6;
#X msg 1389 577 read -resize \$1 samp6L samp6R;
#X obj 1409 476 array define samp6L;
#X obj 1409 500 array define samp6R;
#X obj 1146 620 r samp6TotalNumSamps;
#X obj 1362 722 s fromsamp6TotalNumSamps;
#X obj 278 945 soundfiler;
#X obj 278 864 openpanel;
#X obj 251 1003 f;
#X obj 278 764 r fromLoadsamp7;
#X msg 278 902 read -resize \$1 samp7L samp7R;
#X obj 298 801 array define samp7L;
#X obj 298 825 array define samp7R;
#X obj 35 945 r samp7TotalNumSamps;
#X obj 251 1047 s fromsamp7TotalNumSamps;
#X obj 854 955 soundfiler;
#X obj 854 874 openpanel;
#X obj 827 1013 f;
#X obj 854 774 r fromLoadsamp8;
#X msg 854 912 read -resize \$1 samp8L samp8R;
#X obj 874 811 array define samp8L;
#X obj 874 835 array define samp8R;
#X obj 611 955 r samp8TotalNumSamps;
#X obj 827 1057 s fromsamp8TotalNumSamps;
#X obj 1433 960 soundfiler;
#X obj 1433 879 openpanel;
#X obj 1406 1018 f;
#X obj 1433 779 r fromLoadsamp9;
#X msg 1433 917 read -resize \$1 samp9L samp9R;
#X obj 1453 816 array define samp9L;
#X obj 1453 840 array define samp9R;
#X obj 1190 960 r samp9TotalNumSamps;
#X obj 1406 1062 s fromsamp9TotalNumSamps;
#X text 493 119 need to define 2 arrays to hold left and right channels
, f 20;
#X text 282 320 store total number of samples here for future use,
f 29;
#X connect 0 0 2 1;
#X connect 1 0 5 0;
#X connect 2 0 9 0;
#X connect 4 0 1 0;
#X connect 5 0 0 0;
#X connect 8 0 2 0;
#X connect 10 0 12 1;
#X connect 11 0 14 0;
#X connect 12 0 18 0;
#X connect 13 0 11 0;
#X connect 14 0 10 0;
#X connect 17 0 12 0;
#X connect 19 0 21 1;
#X connect 20 0 23 0;
#X connect 21 0 27 0;
#X connect 22 0 20 0;
#X connect 23 0 19 0;
#X connect 26 0 21 0;
#X connect 28 0 30 1;
#X connect 29 0 32 0;
#X connect 30 0 36 0;
#X connect 31 0 29 0;
#X connect 32 0 28 0;
#X connect 35 0 30 0;
#X connect 37 0 39 1;
#X connect 38 0 41 0;
#X connect 39 0 45 0;
#X connect 40 0 38 0;
#X connect 41 0 37 0;
#X connect 44 0 39 0;
#X connect 46 0 48 1;
#X connect 47 0 50 0;
#X connect 48 0 54 0;
#X connect 49 0 47 0;
#X connect 50 0 46 0;
#X connect 53 0 48 0;
#X connect 55 0 57 1;
#X connect 56 0 59 0;
#X connect 57 0 63 0;
#X connect 58 0 56 0;
#X connect 59 0 55 0;
#X connect 62 0 57 0;
#X connect 64 0 66 1;
#X connect 65 0 68 0;
#X connect 66 0 72 0;
#X connect 67 0 65 0;
#X connect 68 0 64 0;
#X connect 71 0 66 0;
#X connect 73 0 75 1;
#X connect 74 0 77 0;
#X connect 75 0 81 0;
#X connect 76 0 74 0;
#X connect 77 0 73 0;
#X connect 80 0 75 0;
#X restore 12 321 pd samplebank;
#X obj 83 12 bng 25 250 50 0 fromLoadSamp1 toLoadSamp1 1 7 12 0 18
-4032 -260097 -1;
#X text 5 4 Load Samples, f 7;
#X obj 108 12 bng 25 250 50 0 fromLoadSamp2 toLoadSamp2 2 7 12 0 18
-4032 -260097 -1;
#X obj 133 12 bng 25 250 50 0 fromLoadSamp3 toLoadSamp3 3 7 12 0 18
-4032 -260097 -1;
#X obj 158 12 bng 25 250 50 0 fromLoadSamp4 toLoadSamp4 4 7 12 0 18
-4032 -260097 -1;
#X obj 183 12 bng 25 250 50 0 fromLoadSamp5 toLoadSamp5 5 7 12 0 18
-4032 -260097 -1;
#X obj 208 12 bng 25 250 50 0 fromLoadSamp6 toLoadSamp6 6 7 12 0 18
-4032 -260097 -1;
#X obj 233 12 bng 25 250 50 0 fromLoadSamp7 toLoadSamp7 7 7 12 0 18
-4032 -260097 -1;
#X obj 258 12 bng 25 250 50 0 fromLoadSamp8 toLoadSamp8 8 7 12 0 18
-4032 -260097 -1;
#X obj 283 12 bng 25 250 50 0 fromLoadSamp9 toLoadSamp9 9 7 12 0 18
-4032 -260097 -1;
#X text 154 320 make a universal sample bank;
