#N canvas 137 22 1783 1016 16;
#X obj 399 168 soundfiler;
#X obj 399 86 openpanel;
#X obj 398 51 bng 25 250 50 0 empty empty empty 17 7 0 10 -260097 -260097
-260097;
#X obj 412 270 expr 44100 / $f1;
#X obj 385 631 phasor~;
#X obj 336 685 *~;
#X obj 259 912 *~;
#X floatatom 621 767 5 0 1.5 0 - - -;
#X obj 621 834 line~;
#X msg 621 801 \$1 20;
#X obj 259 949 dac~, f 7;
#X floatatom 412 302 10 0 0 0 - - -;
#N canvas 0 22 450 278 (subpatch) 0;
#X array buf1LQZ1 571233 float 2;
#X coords 0 1 571233 -1 600 100 1 0 0;
#X restore 778 124 graph;
#X obj 781 144 hsl 595 60 0 1 0 0 empty empty empty -2 -8 0 10 -262144
-1 -1 9631 1;
#X msg 512 85 \; pd dsp \$1;
#X obj 512 50 tgl 25 0 empty empty empty 17 7 0 10 -257985 -1 -1 0
1;
#X floatatom 364 753 10 0 0 0 - - -;
#X obj 621 700 loadbang;
#X msg 621 733 1;
#X obj 345 201 f;
#N canvas 237 152 1024 621 sigasfloat 0;
#X obj 21 54 inlet~ sigin;
#X obj 138 214 snapshot~;
#X obj 161 154 metro 50;
#X obj 214 72 loadbang;
#X text 235 207 samples a signal and outputs a float each time it receives
a bang, f 34;
#X text 254 153 bangs snapshot ever 50ms;
#X text 314 73 metro needs a bang to start outputing bangs;
#X obj 90 313 outlet float out;
#X connect 0 0 1 0;
#X connect 1 0 7 0;
#X connect 2 0 1 0;
#X connect 3 0 2 0;
#X restore 757 73 pd sigasfloat;
#X obj 757 43 receive~ toBuf1GraphQZ1;
#X obj 345 235 t b f f;
#X obj 385 485 f;
#N canvas 237 152 1024 621 sigasfloat 0;
#X obj 21 54 inlet~ sigin;
#X obj 138 214 snapshot~;
#X obj 161 154 metro 50;
#X obj 214 72 loadbang;
#X text 235 207 samples a signal and outputs a float each time it receives
a bang, f 34;
#X text 254 153 bangs snapshot ever 50ms;
#X text 314 73 metro needs a bang to start outputing bangs;
#X obj 90 313 outlet float out;
#X connect 0 0 1 0;
#X connect 1 0 7 0;
#X connect 2 0 1 0;
#X connect 3 0 2 0;
#X restore 364 722 pd sigasfloat;
#X text 346 788 Add another tabread4~ object 'buf1R', f 21;
#X text 553 51 DSP;
#X text 425 52 Load SF;
#X text 514 302 Phasor Freq;
#X text 468 752 Curr Samp;
#X text 675 767 Amp;
#X obj 395 685 s~ toBuf1GraphQZ1;
#X msg 399 135 read -resize \$1 buf1LQZ1 buf1RQZ1;
#N canvas 0 22 450 278 (subpatch) 0;
#X array buf1RQZ1 571233 float 2;
#X coords 0 1 571233 -1 600 100 1 0 0;
#X restore 778 224 graph;
#X obj 781 244 hsl 595 60 0 1 0 0 empty empty empty -2 -8 0 10 -262144
-1 -1 9631 1;
#X obj 116 835 tabread4~ buf1LQZ1;
#X obj 336 835 tabread4~ buf1RQZ1;
#X obj 326 912 *~;
#X text 451 578 To change speed simply multiple the phasor frequency
by the desired speed., f 38;
#X text 550 392 <-send the speed change \, then bang the current freq
to initiate multiplication, f 40;
#X text 641 353 <-speed \, negative values play backwards;
#X text 423 477 <recall \, that this float object has stored the current
phasor frequency (the frequency to playback the sample at normal speed)
You can bang the left inlet of this float object to output the stored
value;
#X floatatom 492 356 8 0 0 0 - - -;
#X text 577 356 Speed;
#X obj 492 393 t b f;
#X obj 385 596 *;
#X connect 0 0 19 0;
#X connect 1 0 32 0;
#X connect 2 0 1 0;
#X connect 3 0 11 0;
#X connect 4 0 5 0;
#X connect 4 0 31 0;
#X connect 5 0 24 0;
#X connect 5 0 35 0;
#X connect 5 0 36 0;
#X connect 6 0 10 0;
#X connect 7 0 9 0;
#X connect 8 0 6 1;
#X connect 8 0 37 1;
#X connect 9 0 8 0;
#X connect 11 0 23 1;
#X connect 15 0 14 0;
#X connect 17 0 18 0;
#X connect 18 0 7 0;
#X connect 19 0 22 0;
#X connect 20 0 13 0;
#X connect 20 0 34 0;
#X connect 21 0 20 0;
#X connect 22 0 23 0;
#X connect 22 1 5 1;
#X connect 22 2 3 0;
#X connect 23 0 45 0;
#X connect 24 0 16 0;
#X connect 32 0 0 0;
#X connect 35 0 6 0;
#X connect 36 0 37 0;
#X connect 37 0 10 1;
#X connect 42 0 44 0;
#X connect 44 0 23 0;
#X connect 44 1 45 1;
#X connect 45 0 4 0;
