#N canvas 419 342 692 363 16;
#X obj 87 13 bng 25 250 50 0 fromLoadSFQZ1 toLoadSFQZ1 empty 17 7 0
10 -260097 -260097 -260097;
#X floatatom 214 13 5 0 1.5 0 - toAmpQZ1 fromAmpQZ1;
#N canvas 0 22 450 278 (subpatch) 0;
#X array buf1LQZ1 571233 float 2;
#X coords 0 1 571233 -1 600 100 1 0 0;
#X restore 16 92 graph;
#X obj 19 112 hsl 595 60 0 1 0 0 empty toGraphicIdxLQZ1 empty -2 -8
0 10 -262144 -1 -1 34301 1;
#X obj 150 13 tgl 25 0 fromDSPQZ1 empty empty 17 7 0 10 -257985 -1
-1 1 1;
#X text 117 14 DSP;
#X text 13 14 Load SF;
#X text 180 14 Amp;
#N canvas 0 22 450 278 (subpatch) 0;
#X array buf1RQZ1 571233 float 2;
#X coords 0 1 571233 -1 600 60 1 0 0;
#X restore 16 192 graph;
#X obj 19 192 hsl 595 60 0 1 0 0 empty toGraphicIdxRQZ1 empty -2 -8
0 10 -262144 -1 -1 34301 1;
#X floatatom 583 14 8 0 0 0 - toSpdQZ1 fromSpdQZ1;
#X text 529 13 Speed;
#X floatatom 325 13 8 0 0 0 - toStartPctQZ1 fromStartPctQZ1;
#X floatatom 444 13 8 0 0 0 - toEndPctQZ1 fromEndPctQZ1;
#X text 271 10 Start Pct, f 5;
#X text 410 9 End Pct, f 3;
#X obj 19 52 hsl 595 20 0 1 0 0 toStartPctQZ1 empty empty -2 -8 0 10
-4034 -260097 -1 33500 1;
#X obj 19 72 hsl 595 20 0 1 0 0 toEndPctQZ1 empty empty -2 -8 0 10
-4032 -257985 -1 38600 1;
#X obj 19 92 hsl 595 20 0 1 0 0 empty toStartPctQZ1 empty -2 -8 0 10
-262144 -4034 -1 33500 1;
#X obj 19 172 hsl 595 20 0 1 0 0 empty toEndPctQZ1 empty -2 -8 0 10
-262144 -4032 -1 38600 1;
#X text 42 292 Put everything into a single subpatch except for GUI
elements. Fixed up the loadbang and order;
#N canvas 1193 78 721 722 subpatch1 0;
#X obj 269 219 soundfiler;
#X obj 269 137 openpanel;
#X obj 282 321 expr 44100 / $f1;
#X obj 340 1069 phasor~;
#X obj 275 1494 *~;
#X obj 198 1773 *~;
#X obj 537 1725 line~;
#X msg 537 1692 \$1 20;
#X obj 198 1805 dac~, f 7;
#X floatatom 282 353 10 0 0 0 - - -;
#X msg 382 136 \; pd dsp \$1;
#X floatatom 285 1613 10 0 0 0 - - -;
#X msg 765 213 1;
#X obj 215 252 f;
#N canvas 237 152 1024 621 sigasfloat 0;
#X obj 21 54 inlet~ sigin;
#X obj 138 214 snapshot~;
#X obj 161 154 metro 50;
#X obj 214 72 loadbang;
#X text 235 207 samples a signal and outputs a float each time it receives
a bang, f 34;
#X text 254 153 bangs snapshot ever 50ms;
#X text 314 73 metro needs a bang to start outputing bangs;
#X obj 90 313 outlet float out;
#X connect 0 0 1 0;
#X connect 1 0 7 0;
#X connect 2 0 1 0;
#X connect 3 0 2 0;
#X restore 422 1294 pd sigasfloat;
#X obj 215 286 t b f f;
#X obj 373 909 f;
#N canvas 237 152 1024 621 sigasfloat 0;
#X obj 21 54 inlet~ sigin;
#X obj 138 214 snapshot~;
#X obj 161 154 metro 50;
#X obj 214 72 loadbang;
#X text 235 207 samples a signal and outputs a float each time it receives
a bang, f 34;
#X text 254 153 bangs snapshot ever 50ms;
#X text 314 73 metro needs a bang to start outputing bangs;
#X obj 90 313 outlet float out;
#X connect 0 0 1 0;
#X connect 1 0 7 0;
#X connect 2 0 1 0;
#X connect 3 0 2 0;
#X restore 285 1582 pd sigasfloat;
#X text 384 353 Phasor Freq;
#X text 389 1612 Curr Samp;
#X msg 269 186 read -resize \$1 buf1LQZ1 buf1RQZ1;
#X obj 55 1670 tabread4~ buf1LQZ1;
#X obj 275 1670 tabread4~ buf1RQZ1;
#X obj 265 1773 *~;
#X obj 410 860 t b f;
#X obj 340 1013 *;
#X obj 641 101 loadbang;
#X msg 1171 218 1;
#X obj 744 572 -;
#X floatatom 871 641 5 0 0 0 - - -;
#X obj 504 1140 *~;
#N canvas 237 152 1024 621 sigasfloat 0;
#X obj 21 54 inlet~ sigin;
#X obj 138 214 snapshot~;
#X obj 161 154 metro 50;
#X obj 214 72 loadbang;
#X text 235 207 samples a signal and outputs a float each time it receives
a bang, f 34;
#X text 254 153 bangs snapshot ever 50ms;
#X text 314 73 metro needs a bang to start outputing bangs;
#X obj 90 313 outlet float out;
#X connect 0 0 1 0;
#X connect 1 0 7 0;
#X connect 2 0 1 0;
#X connect 3 0 2 0;
#X restore 556 1201 pd sigasfloat;
#X floatatom 556 1235 5 0 0 0 - - -;
#X obj 386 1210 +~;
#N canvas 237 152 1024 621 sigasfloat 0;
#X obj 21 54 inlet~ sigin;
#X obj 138 214 snapshot~;
#X obj 161 154 metro 50;
#X obj 214 72 loadbang;
#X text 235 207 samples a signal and outputs a float each time it receives
a bang, f 34;
#X text 254 153 bangs snapshot ever 50ms;
#X text 314 73 metro needs a bang to start outputing bangs;
#X obj 90 313 outlet float out;
#X connect 0 0 1 0;
#X connect 1 0 7 0;
#X connect 2 0 1 0;
#X connect 3 0 2 0;
#X restore 201 1273 pd sigasfloat;
#X floatatom 201 1307 5 0 0 0 - - -;
#X msg 1010 218 0;
#X msg 873 215 1;
#X obj 667 535 t b f f;
#X obj 692 642 t b f f;
#X obj 457 962 / 1;
#X obj 398 828 f;
#X obj 565 501 expr min($f1 \, $f2);
#X obj 768 501 expr max($f1 \, $f2);
#X obj 743 603 expr abs($f1);
#X obj 816 460 t b f;
#X obj 593 428 r fromStartPctQZ1;
#X obj 815 427 r fromEndPctQZ1;
#X obj 1010 247 s toStartPctQZ1;
#X obj 873 248 s toEndPctQZ1;
#X obj 190 99 r fromLoadSFQZ1;
#X obj 381 103 r fromDSPQZ1;
#X obj 1171 247 s toSpdQZ1;
#X obj 389 754 r fromSpdQZ1;
#X obj 351 1386 s toGraphicIdxLQZ1;
#X obj 448 1340 s toGraphicIdxRQZ1;
#X obj 764 247 s toAmpQZ1;
#X obj 536 1659 r fromAmpQZ1;
#X obj 640 133 t b b b b b b b b b b b b b b b b b b b b b;
#X connect 0 0 13 0;
#X connect 1 0 20 0;
#X connect 2 0 9 0;
#X connect 3 0 30 0;
#X connect 4 0 17 0;
#X connect 4 0 21 0;
#X connect 4 0 22 0;
#X connect 5 0 8 0;
#X connect 6 0 5 1;
#X connect 6 0 23 1;
#X connect 7 0 6 0;
#X connect 9 0 16 1;
#X connect 12 0 56 0;
#X connect 13 0 15 0;
#X connect 14 0 54 0;
#X connect 14 0 55 0;
#X connect 15 0 16 0;
#X connect 15 1 4 1;
#X connect 15 2 2 0;
#X connect 16 0 25 0;
#X connect 17 0 11 0;
#X connect 20 0 0 0;
#X connect 21 0 5 0;
#X connect 22 0 23 0;
#X connect 23 0 8 1;
#X connect 24 0 16 0;
#X connect 24 1 40 0;
#X connect 25 0 3 0;
#X connect 26 0 58 0;
#X connect 27 0 52 0;
#X connect 28 0 44 0;
#X connect 30 0 31 0;
#X connect 30 0 33 0;
#X connect 31 0 32 0;
#X connect 33 0 34 0;
#X connect 33 0 4 0;
#X connect 33 0 14 0;
#X connect 34 0 35 0;
#X connect 36 0 48 0;
#X connect 37 0 49 0;
#X connect 38 0 28 0;
#X connect 38 1 33 1;
#X connect 38 2 28 1;
#X connect 39 0 41 0;
#X connect 39 1 40 1;
#X connect 39 2 30 1;
#X connect 40 0 25 1;
#X connect 41 0 24 0;
#X connect 42 0 38 0;
#X connect 43 0 28 0;
#X connect 44 0 29 0;
#X connect 44 0 39 0;
#X connect 45 0 43 0;
#X connect 45 0 42 0;
#X connect 45 1 43 1;
#X connect 45 1 42 1;
#X connect 46 0 42 0;
#X connect 46 0 43 0;
#X connect 47 0 45 0;
#X connect 50 0 1 0;
#X connect 51 0 10 0;
#X connect 53 0 41 0;
#X connect 57 0 7 0;
#X connect 58 7 12 0;
#X connect 58 10 37 0;
#X connect 58 12 36 0;
#X connect 58 14 27 0;
#X restore 18 266 pd subpatch1;
