#N canvas 563 69 625 402 12;
#X obj 125 17 bng 25 250 50 0 fromBangOpenpanel empty empty 17 7 0
10 -260097 -260097 -260097;
#X floatatom 13 71 5 0 1.5 0 - toAmp fromAmp;
#X floatatom 12 95 15 0 0 0 - toPhasorFreq fromPhasorFreq;
#N canvas 0 22 450 278 (subpatch) 0;
#X array buf1L 1.23187e+06 float 2;
#X coords 0 1 1.23187e+06 -1 600 100 1 0 0;
#X restore 12 190 graph;
#X obj 15 210 hsl 595 60 0 1 0 0 empty toCsrL empty -2 -8 0 10 -262144
-1 -1 15646 1;
#X obj 93 17 tgl 25 0 fromDSPtog empty empty 17 7 0 10 -257985 -1 -1
1 1;
#X text 121 94 <-phasor frequency;
#X floatatom 12 118 15 0 0 0 - toCurrSamp -;
#X text 121 116 <-current sample index;
#N canvas 0 22 450 278 (subpatch) 0;
#X array buf1R 1.23187e+06 float 2;
#X coords 0 1 1.23187e+06 -1 600 100 1 0 0;
#X restore 12 290 graph;
#X obj 15 312 hsl 595 60 0 1 0 0 empty toCsrR empty -2 -8 0 10 -262144
-1 -1 15646 1;
#X floatatom 56 71 8 0 0 0 - toSpdNB fromSpdNB;
#X floatatom 124 71 8 0 1 0 - toStartPct fromStartPct;
#X floatatom 199 71 8 0 1 0 - toEndPct fromEndPct;
#X obj 15 190 hsl 595 20 0 1 0 0 empty toStartPct empty -2 -8 0 10
-262144 -4034 -1 14100 1;
#X obj 15 270 hsl 595 20 0 1 0 0 empty toEndPct empty -2 -8 0 10 -262144
-4032 -1 15100 1;
#X obj 15 140 hsl 595 25 0 1 0 0 toStartPct empty empty -2 -8 0 10
-4034 -1 -1 13800 1;
#X obj 15 165 hsl 595 25 0 1 0 0 toEndPct empty empty -2 -8 0 10 -4032
-1 -1 15700 1;
#N canvas 719 106 936 831 subpatch 0;
#X obj 64 133 soundfiler;
#X obj 60 57 openpanel;
#X obj 49 170 expr 44100 / $f1;
#X obj 118 366 phasor~;
#X obj 84 440 *~;
#X obj 65 715 *~;
#X obj 93 684 line~;
#X msg 93 651 \$1 20;
#X obj 61 744 dac~, f 7;
#X obj 476 244 unsig~ 50;
#X msg 173 55 \; pd dsp \$1;
#X obj 369 478 unsig~ 50;
#X obj 93 525 loadbang;
#X msg 93 558 1;
#X obj 173 435 send~ toBuf1Graph;
#X obj 476 210 receive~ toBuf1Graph;
#X msg 64 96 read -resize \$1 buf1L buf1R;
#X obj 24 492 tabread4~ buf1L;
#X obj 193 492 tabread4~ buf1R;
#X obj 163 718 *~;
#X obj 119 296 f;
#X obj 118 332 *;
#X obj 340 273 t b f;
#X obj 364 10 loadbang;
#X msg 363 46 1;
#X msg 431 46 0;
#N canvas 206 143 1206 583 partialSample 0;
#X obj 142 36 r fromStartPct;
#X obj 403 40 r fromEndPct;
#X obj 209 243 expr if($f2>$f1 \, $f2-$f1 \, $f1-$f2);
#X floatatom 209 280 5 0 0 0 - - -;
#X obj 403 77 t b f;
#X text 470 76 <-expr will only output with input to left inlet. Use
trigger to force output with input to right inlet., f 37;
#X text 562 244 <-use expr and an if statement to insure that total
percentage is always positive, f 41;
#X obj 171 345 *~;
#X text 213 345 <-multiply phasor 0-1 sig by percentage of the partial
sample, f 61;
#X obj 109 417 +~;
#X text 151 418 <-add start percentage to start at the right point
;
#X obj 108 477 outlet~ adjusted phasor;
#X obj 21 3 inlet~ phasor 0-1;
#X text 350 475 <-use inlet~/outlet~ for signals;
#X obj 266 313 s fromPartPct;
#X text 411 314 <-send to adjust phasor frequency;
#X text 394 161 <-use expr and an if statement to correct start point
;
#X obj 41 162 expr if($f2>$f1 \, $f1 \, $f2);
#X connect 0 0 2 0;
#X connect 0 0 17 0;
#X connect 1 0 4 0;
#X connect 2 0 3 0;
#X connect 3 0 7 1;
#X connect 3 0 14 0;
#X connect 4 0 2 0;
#X connect 4 0 17 0;
#X connect 4 1 2 1;
#X connect 4 1 17 1;
#X connect 7 0 9 0;
#X connect 9 0 11 0;
#X connect 12 0 7 0;
#X connect 17 0 9 1;
#X restore 117 400 pd partialSample;
#X obj 355 208 t b f;
#X obj 340 240 * 1;
#X obj 356 174 expr 1/$f1;
#X msg 493 45 1;
#X obj 431 77 s toStartPct;
#X obj 575 77 s toEndPct;
#X obj 330 77 s toSpdNB;
#X obj 330 107 r fromSpdNB;
#X obj 369 514 s toCurrSamp;
#X obj 93 591 s toAmp;
#X obj 71 620 r fromAmp;
#X obj 428 282 s toCsrL;
#X obj 550 282 s toCsrR;
#X obj 171 17 r fromDSPtog;
#X obj 23 16 r fromBangOpenpanel;
#X obj 351 358 unsig~ 50;
#X floatatom 351 382 5 0 0 0 - - -;
#X obj 356 140 r fromPartPct;
#X floatatom 212 168 5 0 0 0 - - -;
#X floatatom 7 209 5 0 0 0 - - -;
#X obj 101 208 s toPhasorFreq;
#X connect 0 0 2 0;
#X connect 0 0 4 1;
#X connect 0 0 45 0;
#X connect 1 0 16 0;
#X connect 2 0 46 0;
#X connect 2 0 20 0;
#X connect 2 0 47 0;
#X connect 3 0 26 0;
#X connect 3 0 42 0;
#X connect 4 0 11 0;
#X connect 4 0 17 0;
#X connect 4 0 18 0;
#X connect 5 0 8 0;
#X connect 6 0 5 1;
#X connect 6 0 19 1;
#X connect 7 0 6 0;
#X connect 9 0 38 0;
#X connect 9 0 39 0;
#X connect 11 0 35 0;
#X connect 12 0 13 0;
#X connect 13 0 36 0;
#X connect 15 0 9 0;
#X connect 16 0 0 0;
#X connect 17 0 5 0;
#X connect 18 0 19 0;
#X connect 19 0 8 1;
#X connect 20 0 21 0;
#X connect 21 0 3 0;
#X connect 22 0 20 0;
#X connect 22 1 21 1;
#X connect 23 0 24 0;
#X connect 23 0 25 0;
#X connect 23 0 30 0;
#X connect 24 0 33 0;
#X connect 25 0 31 0;
#X connect 26 0 4 0;
#X connect 26 0 14 0;
#X connect 27 0 28 0;
#X connect 27 1 28 1;
#X connect 28 0 22 0;
#X connect 29 0 27 0;
#X connect 30 0 32 0;
#X connect 34 0 28 0;
#X connect 37 0 7 0;
#X connect 40 0 10 0;
#X connect 41 0 1 0;
#X connect 42 0 43 0;
#X connect 44 0 29 0;
#X restore 312 25 pd subpatch;
#X text 154 17 Load Sample, f 6;
#X text 13 17 Start/Stop DSP, f 10;
#X text 11 52 Amp;
#X text 54 52 Speed;
#X text 122 52 Start Pct;
#X text 197 52 End Pct;
