#N canvas 94 155 1467 885 12;
#X floatatom 21 91 8 0 0 2 BaseSpd toBaseSpd fromBaseSpd;
#X floatatom 79 91 5 0 0 2 R1 toR1 fromR1;
#X floatatom 116 91 5 0 0 2 R2 toR2 fromR2;
#X floatatom 153 91 8 0 0 2 SpdCalc toSpdCalc fromSpdCalc;
#N canvas 27 376 1443 660 composer 1;
#X obj 45 57 r fromBaseSpd;
#X obj 84 283 * 1;
#X obj 133 201 r fromR1;
#X obj 133 228 t b f;
#X obj 114 313 / 1;
#X obj 205 230 t b f;
#X obj 205 201 r fromR2;
#X obj 127 370 s toSpdCalc;
#X text 45 27 Calculate Speed Ratio Relationships;
#X obj 77 370 f;
#N canvas 0 22 1920 634 dataRouterSpd 0;
#X obj 471 22 inlet data;
#X obj 32 214 spigot 1;
#X obj 85 189 r fromDataRoute1;
#X obj 215 214 spigot 1;
#X obj 391 214 spigot 1;
#X obj 566 214 spigot 1;
#X obj 742 214 spigot 1;
#X obj 915 214 spigot 1;
#X obj 1091 214 spigot 1;
#X obj 1262 214 spigot 1;
#X obj 1315 189 r fromDataRoute8;
#X obj 1144 189 r fromDataRoute7;
#X obj 968 189 r fromDataRoute6;
#X obj 795 189 r fromDataRoute5;
#X obj 619 189 r fromDataRoute4;
#X obj 444 189 r fromDataRoute3;
#X obj 268 189 r fromDataRoute2;
#X obj 32 247 s toSpdQZ1;
#X obj 215 247 s toSpdQZ2;
#X obj 390 247 s toSpdQZ3;
#X obj 565 247 s toSpdQZ4;
#X obj 736 247 s toSpdQZ5;
#X obj 918 247 s toSpdQZ6;
#X obj 1094 247 s toSpdQZ7;
#X obj 1269 247 s toSpdQZ8;
#X connect 0 0 1 0;
#X connect 0 0 9 0;
#X connect 0 0 8 0;
#X connect 0 0 7 0;
#X connect 0 0 6 0;
#X connect 0 0 5 0;
#X connect 0 0 4 0;
#X connect 0 0 3 0;
#X connect 1 0 17 0;
#X connect 2 0 1 1;
#X connect 3 0 18 0;
#X connect 4 0 19 0;
#X connect 5 0 20 0;
#X connect 6 0 21 0;
#X connect 7 0 22 0;
#X connect 8 0 23 0;
#X connect 9 0 24 0;
#X connect 10 0 9 1;
#X connect 11 0 8 1;
#X connect 12 0 7 1;
#X connect 13 0 6 1;
#X connect 14 0 5 1;
#X connect 15 0 4 1;
#X connect 16 0 3 1;
#X restore 153 427 pd dataRouterSpd;
#X obj 372 28 loadbang;
#X obj 305 137 s toDataRoute1;
#X msg 372 55 1;
#X obj 413 137 s toDataRoute2;
#X obj 521 138 s toDataRoute3;
#X obj 628 138 s toDataRoute4;
#X obj 736 137 s toDataRoute5;
#X obj 843 137 s toDataRoute6;
#X obj 951 138 s toDataRoute7;
#X obj 1059 138 s toDataRoute8;
#X obj 95 91 r from8ve;
#X obj 44 215 *;
#X obj 95 167 t b f;
#X obj 95 125 expr pow(2 \, $f1);
#X connect 0 0 22 0;
#X connect 1 0 4 0;
#X connect 2 0 3 0;
#X connect 3 0 1 0;
#X connect 3 1 1 1;
#X connect 4 0 9 0;
#X connect 4 0 7 0;
#X connect 5 0 4 0;
#X connect 5 1 4 1;
#X connect 6 0 5 0;
#X connect 9 0 10 0;
#X connect 11 0 13 0;
#X connect 13 0 12 0;
#X connect 13 0 14 0;
#X connect 13 0 15 0;
#X connect 13 0 16 0;
#X connect 13 0 17 0;
#X connect 13 0 18 0;
#X connect 13 0 19 0;
#X connect 13 0 20 0;
#X connect 21 0 24 0;
#X connect 22 0 1 0;
#X connect 23 0 22 0;
#X connect 23 1 22 1;
#X connect 24 0 23 0;
#X restore 44 239 pd composer;
#X obj 18 139 tgl 25 0 fromDataRoute1 toDataRoute1 1 7 12 0 18 -257985
-1 -1 1 1;
#X obj 43 139 tgl 25 0 fromDataRoute2 toDataRoute2 2 7 12 0 18 -257985
-1 -1 1 1;
#X obj 68 139 tgl 25 0 fromDataRoute3 toDataRoute3 3 7 12 0 18 -257985
-1 -1 1 1;
#X obj 93 139 tgl 25 0 fromDataRoute4 toDataRoute4 4 7 12 0 18 -257985
-1 -1 1 1;
#X obj 118 139 tgl 25 0 fromDataRoute5 toDataRoute5 5 7 12 0 18 -257985
-1 -1 1 1;
#X obj 143 139 tgl 25 0 fromDataRoute6 toDataRoute6 6 7 12 0 18 -257985
-1 -1 1 1;
#X obj 168 139 tgl 25 0 fromDataRoute7 toDataRoute7 7 7 12 0 18 -257985
-1 -1 1 1;
#X obj 193 139 tgl 25 0 fromDataRoute8 toDataRoute8 8 7 12 0 18 -257985
-1 -1 1 1;
#X text 18 121 Data Routing;
#X floatatom 211 91 5 0 0 2 8ve to8ve from8ve;
#X text 18 43 Speed by ratio;
#X floatatom 529 664 5 0 1000 0 - - -;
#X floatatom 323 82 8 0 1 2 Start toSampStreamWaitStart fromSampStreamWaitStart
;
#X text 327 34 wait dur range;
#X obj 551 500 -;
#X obj 446 649 +;
#X obj 519 446 t f b f;
#X floatatom 467 692 5 0 0 0 - - -;
#X obj 437 469 bng 15 250 50 0 empty empty empty 17 7 0 10 -262144
-1 -1;
#X obj 385 705 delay;
#X obj 480 194 random 8;
#X floatatom 549 268 5 0 0 0 - - -;
#X obj 301 5 bng 25 250 50 0 fromStartSampStream toStartSampStream
empty 17 7 0 10 -261234 -1 -1;
#X obj 414 763 spigot 1;
#X obj 335 351 s toStartQZ1;
#X obj 433 350 s toStartQZ2;
#X obj 525 350 s toStartQZ3;
#X obj 620 348 s toStartQZ4;
#X obj 451 309 route 1 2 3 4 5 6 7 8, f 82;
#X obj 425 265 t b f b;
#X obj 483 160 r fromStartSampStream;
#X obj 411 800 s toStartSampStream;
#X obj 720 348 s toStartQZ5;
#X obj 818 347 s toStartQZ6;
#X obj 910 347 s toStartQZ7;
#X obj 1005 345 s toStartQZ8;
#X floatatom 386 82 8 0 1 2 End toSampStreamWaitEnd fromSampStreamWaitEnd
;
#X obj 330 5 tgl 25 0 fromSampStreamTog toSampStreamTog On 3 12 0 16
-232576 -258113 -262144 0 1;
#X obj 477 720 r fromSampStreamTog;
#X obj 515 395 r fromSampStreamWaitStart;
#X obj 599 426 r fromSampStreamWaitEnd;
#X floatatom 579 538 5 0 0 0 - - -;
#X obj 777 561 random;
#X floatatom 785 516 5 0 0 0 - - -;
#X obj 753 512 bng 15 250 50 0 empty empty empty 17 7 0 10 -262144
-1 -1;
#X floatatom 868 624 5 0 0 0 - - -;
#X obj 503 593 random 1;
#X obj 481 222 + 1;
#X floatatom 500 71 8 0 0 0 - - -;
#X floatatom 560 71 8 0 0 0 - - -;
#X obj 471 68 bng 25 250 50 0 empty empty empty 17 7 0 10 -262144 -1
-1;
#X floatatom 619 71 8 0 0 0 - - -;
#N canvas 61 38 450 300 line 0;
#X obj 118 199 line;
#X obj 106 81 f;
#X floatatom 201 254 5 0 0 0 - - -;
#X msg 122 156 \$1 \, \$2 \$3;
#X obj 123 115 pack f f f;
#X obj 105 253 outlet;
#X obj 23 38 inlet bang;
#X obj 116 17 inlet starttime;
#X obj 188 57 inlet endtime;
#X obj 304 49 inlet dur;
#X connect 0 0 2 0;
#X connect 0 0 5 0;
#X connect 1 0 4 0;
#X connect 3 0 0 0;
#X connect 4 0 3 0;
#X connect 6 0 1 0;
#X connect 7 0 1 1;
#X connect 8 0 4 1;
#X connect 9 0 4 2;
#X restore 492 102 pd line;
#X obj 493 133 s toSampStreamWaitStart;
#X floatatom 716 71 8 0 0 0 - - -;
#X floatatom 776 71 8 0 0 0 - - -;
#X obj 687 68 bng 25 250 50 0 empty empty empty 17 7 0 10 -262144 -1
-1;
#X floatatom 835 71 8 0 0 0 - - -;
#N canvas 61 38 450 300 line 0;
#X obj 118 199 line;
#X obj 106 81 f;
#X floatatom 201 254 5 0 0 0 - - -;
#X msg 122 156 \$1 \, \$2 \$3;
#X obj 123 115 pack f f f;
#X obj 105 253 outlet;
#X obj 23 38 inlet bang;
#X obj 116 17 inlet starttime;
#X obj 188 57 inlet endtime;
#X obj 304 49 inlet dur;
#X connect 0 0 2 0;
#X connect 0 0 5 0;
#X connect 1 0 4 0;
#X connect 3 0 0 0;
#X connect 4 0 3 0;
#X connect 6 0 1 0;
#X connect 7 0 1 1;
#X connect 8 0 4 1;
#X connect 9 0 4 2;
#X restore 708 102 pd line;
#X obj 609 5 bng 25 250 50 0 empty empty empty 17 7 0 10 -262144 -1
-1;
#X obj 609 36 t b b;
#X obj 709 133 s toSampStreamWaitEnd;
#X connect 19 0 46 0;
#X connect 20 0 22 0;
#X connect 20 0 24 1;
#X connect 21 0 20 1;
#X connect 21 1 19 0;
#X connect 21 2 19 1;
#X connect 23 0 51 0;
#X connect 24 0 28 0;
#X connect 25 0 52 0;
#X connect 28 0 36 0;
#X connect 33 0 29 0;
#X connect 33 1 30 0;
#X connect 33 2 31 0;
#X connect 33 3 32 0;
#X connect 33 4 37 0;
#X connect 33 5 38 0;
#X connect 33 6 39 0;
#X connect 33 7 40 0;
#X connect 34 0 24 0;
#X connect 34 1 33 0;
#X connect 34 2 23 0;
#X connect 35 0 25 0;
#X connect 43 0 28 1;
#X connect 44 0 21 0;
#X connect 45 0 19 0;
#X connect 46 0 51 1;
#X connect 47 0 50 0;
#X connect 48 0 47 1;
#X connect 49 0 47 0;
#X connect 51 0 16 0;
#X connect 51 0 20 0;
#X connect 52 0 34 0;
#X connect 52 0 26 0;
#X connect 53 0 57 1;
#X connect 54 0 57 2;
#X connect 55 0 57 0;
#X connect 56 0 57 3;
#X connect 57 0 58 0;
#X connect 59 0 63 1;
#X connect 60 0 63 2;
#X connect 61 0 63 0;
#X connect 62 0 63 3;
#X connect 63 0 66 0;
#X connect 64 0 65 0;
#X connect 65 0 55 0;
#X connect 65 1 61 0;
