#N canvas 40 57 412 532 10;
#X obj 129 127 t f f;
#X obj 77 400 array get samp3L;
#X obj 110 329 array get samp3R;
#X obj 77 431 array set buf1LQZ1;
#X obj 110 369 array set buf1RQZ1;
#X obj 81 34 r fromLoadToPlaySamp3QZ1;
#X obj 129 96 r samp3TotalNumSamps;
#X obj 81 65 s fromsamp3TotalNumSamps;
#X obj 176 157 array size buf1LQZ1;
#X obj 196 217 array size buf1RQZ1;
#X obj 67 217 t b b b;
#X obj 129 186 t b f f;
#X obj 136 266 f;
#X obj 136 296 s fromNumSampsQZ1;
#X connect 0 0 11 0;
#X connect 0 1 8 0;
#X connect 1 0 3 0;
#X connect 2 0 4 0;
#X connect 5 0 7 0;
#X connect 6 0 0 0;
#X connect 10 0 12 0;
#X connect 10 1 1 0;
#X connect 10 2 2 0;
#X connect 11 0 10 0;
#X connect 11 1 12 1;
#X connect 11 2 9 0;
#X connect 12 0 13 0;
