#N canvas 0 22 700 432 10;
#N canvas 0 22 450 278 (subpatch) 0;
#X array buf1LQZ3 86377 float 2;
#X coords 0 1 86377 -1 600 60 1 0 0;
#X restore 36 200 graph;
#X obj 39 200 hsl 595 60 0 1 0 0 empty toGraphicIdxLQZ3 empty -2 -8
0 10 -262144 -1 -1 0 1;
#N canvas 0 22 450 278 (subpatch) 0;
#X array buf1RQZ3 86377 float 2;
#X coords 0 1 86377 -1 600 60 1 0 0;
#X restore 36 280 graph;
#X obj 39 280 hsl 595 60 0 1 0 0 empty toGraphicIdxRQZ3 empty -2 -8
0 10 -262144 -1 -1 0 1;
#X obj 39 180 hsl 595 20 0 1 0 0 toStartPctQZ3 empty empty -2 -8 0
10 -262144 -4034 -1 0 1;
#X obj 39 260 hsl 595 20 0 1 0 0 toEndPctQZ3 empty empty -2 -8 0 10
-262144 -4032 -1 0 1;
#X obj 23 19 cnv 15 310 130 empty empty 3 275 12 0 14 -262130 -66577
0;
#X obj 35 43 bng 25 250 50 0 fromLoadToPlaySamp1QZ3 toLoadToPlaySamp1QZ3
1 7 12 0 18 -260097 -260097 -1;
#X floatatom 36 85 5 0 20 2 Amp toAmpQZ3 fromAmpQZ3;
#X floatatom 189 85 8 0 0 2 Spd toSpdQZ3 fromSpdQZ3;
#X floatatom 73 85 8 0 0 2 Start toStartPctQZ3 fromStartPctQZ3;
#X floatatom 131 85 8 0 0 2 End toEndPctQZ3 fromEndPctQZ3;
#X floatatom 284 121 5 0 0 2 Rel toRelQZ3 fromRelQZ3;
#X floatatom 140 121 5 0 100000 2 Atk toAtkQZ3 fromAtkQZ3;
#X obj 111 114 bng 25 250 50 0 fromTrigADSQZ3 toTrigADSQZ3 ADS 4 13
0 10 -260097 -1 -1;
#X floatatom 177 121 5 0 100000 2 Sus toSusQZ3 fromSusQZ3;
#X floatatom 214 121 5 0 100000 2 Decay toDecayQZ3 fromDecayQZ3;
#X obj 255 114 bng 25 250 50 0 fromTrigRelQZ3 toTrigRelQZ3 Rel 4 13
0 10 -159808 -1 -1;
#X obj 61 114 bng 25 250 50 0 fromStopQZ3 toStopQZ3 Stop 3 13 0 8 -258113
-1 -1;
#X obj 36 114 bng 25 250 50 0 fromStartQZ3 toStartQZ3 Start 3 13 0
7 -4034 -1 -1;
#X obj 86 114 tgl 25 0 fromLoopTogQZ3 toLoopTogQZ3 Loop 1 12 0 10 -262144
-1 -33289 1 1;
#X obj 60 43 bng 25 250 50 0 fromLoadToPlaySamp2QZ3 toLoadToPlaySamp2QZ3
2 7 12 0 18 -260097 -260097 -1;
#X obj 85 43 bng 25 250 50 0 fromLoadToPlaySamp3QZ3 toLoadToPlaySamp3QZ3
3 7 12 0 18 -260097 -260097 -1;
#X obj 110 43 bng 25 250 50 0 fromLoadToPlaySamp4QZ3 toLoadToPlaySamp4QZ3
4 7 12 0 18 -260097 -260097 -1;
#X obj 135 43 bng 25 250 50 0 fromLoadToPlaySamp5QZ3 toLoadToPlaySamp5QZ3
5 7 12 0 18 -260097 -260097 -1;
#X obj 160 43 bng 25 250 50 0 fromLoadToPlaySamp6QZ3 toLoadToPlaySamp6QZ3
6 7 12 0 18 -260097 -260097 -1;
#X obj 185 43 bng 25 250 50 0 fromLoadToPlaySamp7QZ3 toLoadToPlaySamp7QZ3
7 7 12 0 18 -260097 -260097 -1;
#X obj 210 43 bng 25 250 50 0 fromLoadToPlaySamp8QZ3 toLoadToPlaySamp8QZ3
8 7 12 0 18 -260097 -260097 -1;
#X obj 235 43 bng 25 250 50 0 fromLoadToPlaySamp9QZ3 toLoadToPlaySamp9QZ3
9 7 12 0 18 -260097 -260097 -1;
#X text 32 25 Sample to Play;
#N canvas 6 22 1886 1021 subpatch3 0;
#X obj 270 441 expr 44100 / $f1;
#X obj 443 1180 phasor~;
#X obj 389 1561 *~;
#X obj 590 2326 *~;
#X msg 793 2070 \$1 20;
#X floatatom 270 473 10 0 0 0 - - -;
#X floatatom 412 1701 10 0 0 0 - - -;
#X msg -1837 -1332 1;
#N canvas 237 152 1024 621 sigasfloat 0;
#X obj 21 54 inlet~ sigin;
#X obj 138 214 snapshot~;
#X obj 161 154 metro 50;
#X obj 214 72 loadbang;
#X text 235 207 samples a signal and outputs a float each time it receives
a bang, f 34;
#X text 254 153 bangs snapshot ever 50ms;
#X text 314 73 metro needs a bang to start outputing bangs;
#X obj 90 313 outlet float out;
#X connect 0 0 1 0;
#X connect 1 0 7 0;
#X connect 2 0 1 0;
#X connect 3 0 2 0;
#X restore 529 1399 pd sigasfloat;
#X obj 203 406 t b f f;
#X obj 375 784 f;
#N canvas 237 152 1024 621 sigasfloat 0;
#X obj 21 54 inlet~ sigin;
#X obj 138 214 snapshot~;
#X obj 161 154 metro 50;
#X obj 214 72 loadbang;
#X text 235 207 samples a signal and outputs a float each time it receives
a bang, f 34;
#X text 254 153 bangs snapshot ever 50ms;
#X text 314 73 metro needs a bang to start outputing bangs;
#X obj 90 313 outlet float out;
#X connect 0 0 1 0;
#X connect 1 0 7 0;
#X connect 2 0 1 0;
#X connect 3 0 2 0;
#X restore 412 1670 pd sigasfloat;
#X text 516 1700 Curr Samp;
#X obj 169 1737 tabread4~ buf1LQZ3;
#X obj 389 1737 tabread4~ buf1RQZ3;
#X obj 657 2326 *~;
#X obj 412 735 t b f;
#X obj 375 841 *;
#X obj -1673 -1608 loadbang;
#X msg -1408 -1348 1;
#X obj 934 503 -;
#X floatatom 1061 572 5 0 0 0 - - -;
#X obj 494 1225 *~;
#N canvas 237 152 1024 621 sigasfloat 0;
#X obj 21 54 inlet~ sigin;
#X obj 138 214 snapshot~;
#X obj 161 154 metro 50;
#X obj 214 72 loadbang;
#X text 235 207 samples a signal and outputs a float each time it receives
a bang, f 34;
#X text 254 153 bangs snapshot ever 50ms;
#X text 314 73 metro needs a bang to start outputing bangs;
#X obj 90 313 outlet float out;
#X connect 0 0 1 0;
#X connect 1 0 7 0;
#X connect 2 0 1 0;
#X connect 3 0 2 0;
#X restore 647 1306 pd sigasfloat;
#X floatatom 647 1340 5 0 0 0 - - -;
#X obj 454 1347 +~;
#N canvas 237 152 1024 621 sigasfloat 0;
#X obj 21 54 inlet~ sigin;
#X obj 138 214 snapshot~;
#X obj 161 154 metro 50;
#X obj 214 72 loadbang;
#X text 235 207 samples a signal and outputs a float each time it receives
a bang, f 34;
#X text 254 153 bangs snapshot ever 50ms;
#X text 314 73 metro needs a bang to start outputing bangs;
#X obj 90 313 outlet float out;
#X connect 0 0 1 0;
#X connect 1 0 7 0;
#X connect 2 0 1 0;
#X connect 3 0 2 0;
#X restore 284 1392 pd sigasfloat;
#X floatatom 284 1426 5 0 0 0 - - -;
#X msg -1601 -1284 0;
#X msg -1731 -1393 1;
#X obj 857 466 t b f f;
#X obj 882 573 t b f f;
#X obj 463 798 / 1;
#X obj 400 703 f;
#X obj 763 387 expr min($f1 \, $f2);
#X obj 966 387 expr max($f1 \, $f2);
#X obj 933 534 expr abs($f1);
#X obj 1014 346 t b f;
#X obj 791 314 r fromStartPctQZ3;
#X obj 1013 313 r fromEndPctQZ3;
#X obj -1601 -1255 s toStartPctQZ3;
#X obj -1731 -1360 s toEndPctQZ3;
#X obj -1408 -1319 s toSpdQZ3;
#X obj 401 637 r fromSpdQZ3;
#X obj 458 1491 s toGraphicIdxLQZ3;
#X obj 555 1445 s toGraphicIdxRQZ3;
#X obj -1838 -1298 s toAmpQZ3;
#X obj 793 2039 r fromAmpQZ3;
#X obj -1813 -1534 t b b b b b b b b b b b b b b b b b b b b b;
#X obj 1064 2194 vline~;
#X msg 1008 2079 0 \$1;
#X obj 1007 2046 f;
#X obj 1239 2008 * 1;
#X obj 1219 1953 t b f;
#X obj 1228 2051 pack 1 15 1 0 15;
#X msg 1104 2158 \$1 \$2 \, \$3 \$4 \$5;
#X obj 1200 1834 r fromAmpQZ3;
#X obj 1173 1885 f;
#X obj 1172 1921 t f f;
#X obj 1349 1869 t f f;
#X obj 1033 2013 r fromRelQZ3;
#X obj 1018 1833 r fromTrigADSQZ3;
#X obj 1348 1836 r fromAtkQZ3;
#X obj 1482 1835 r fromSusQZ3;
#X obj 1618 1834 r fromDecayQZ3;
#X obj -938 -1323 s toAtkQZ3;
#X msg -938 -1357 15;
#X obj -1078 -1315 s toSusQZ3;
#X msg -1078 -1349 1;
#X obj -1216 -1310 s toDecayQZ3;
#X msg -1216 -1344 0;
#X obj -1296 -1282 s toRelQZ3;
#X msg -1296 -1315 100;
#X obj 1008 1984 r fromTrigRelQZ3;
#X text 377 474 Base Phasor Freq;
#X floatatom 429 896 15 0 0 0 - - -;
#X text 425 868 actual phasor freq;
#X obj 207 1030 f;
#X obj 208 1069 spigot 0;
#X obj 666 1025 r toPhasor0QZ3;
#X msg 667 1065 0;
#X obj 353 1004 r toPhasorFreqSpigotQZ3;
#X obj 52 931 r toBangPhasorFreqQZ3;
#X obj -932 -1389 s toPhasor0QZ3;
#X obj 1649 1588 s toTrigRelQZ3;
#X obj 1713 1750 s toPhasorFreqSpigotQZ3;
#X msg 1674 1717 0;
#X obj 1513 1751 s toPhasor0QZ3;
#X obj 971 1665 t b b b;
#X obj 1258 1750 s toPhasorFreqSpigotQZ3;
#X msg 1089 1702 1;
#X obj 1018 1751 s toBangPhasorFreqQZ3;
#X obj 1602 1558 t b b;
#X obj 1649 1622 r fromRelQZ3;
#X obj 1602 1652 delay;
#X obj 1602 1684 t b b;
#X obj 863 1752 s toTrigADSQZ3;
#X obj 1602 1524 r fromStopQZ3;
#X obj 971 1632 r fromStartQZ3;
#X obj 2909 1497 samplerate~;
#X obj 2909 1527 / 1000;
#X obj 2882 1562 *;
#X obj 2631 1786 f;
#X obj 455 1621 s~ toThreshQZ3;
#X obj 425 335 f;
#X obj 425 285 r toTotalSampsQZ3;
#X obj 425 368 s fromTotalSampsQZ3;
#X obj 1014 460 f;
#X obj 1013 420 r toRealEndQZ3;
#X obj 1013 501 s fromRealEndQZ3;
#X obj 2420 1856 r fromTotalSampsQZ3;
#X obj 2393 1888 *;
#X obj 2393 1823 r fromRealEndQZ3;
#X obj 2568 1950 -;
#X obj 2528 1741 t b b b;
#X obj 2429 1788 s toTotalSampsQZ3;
#X obj 2278 1787 s toRealEndQZ3;
#X obj 2393 1993 r~ toThreshQZ3;
#X obj 2553 2177 threshold~;
#X obj 2754 2412 s toStopSeqQZ3;
#X obj 1504 1494 r toStopSeqQZ3;
#X obj 2530 1605 f;
#X obj 2699 1396 r fromSpdQZ3;
#X obj 2530 1676 route 0 1;
#X obj 2863 1888 r fromTotalSampsQZ3;
#X obj 2836 1924 *;
#X obj 2806 1768 t b b b;
#X obj 2974 1817 s toTotalSampsQZ3;
#X obj 2727 1816 f;
#X obj 664 496 f;
#X obj 664 457 r toRealStartQZ3;
#X obj 664 537 s fromRealStartQZ3;
#X obj 2778 1817 s toRealStartQZ3;
#X obj 2836 1855 r fromRealStartQZ3;
#X obj 2804 1995 * -1;
#X obj 2393 2089 *~ 1;
#X obj 2430 2021 r fromSpdQZ3;
#X obj 2430 2055 expr if($f1<0 \, -1 \, 1);
#X obj 2530 1637 expr if($f1<0 \, 0 \, 1);
#X msg 2681 2059 set \$1 100 \$1 100;
#X obj 2804 1962 +;
#X obj 2432 1475 r fromStartPctQZ3;
#X obj 2432 1506 t b;
#X obj 2490 1537 t b;
#X obj 2490 1506 r fromEndPctQZ3;
#X obj 2837 1396 r fromRelQZ3;
#X obj 2844 1619 *;
#X obj 2802 1513 t b f;
#X obj 2844 1660 expr abs($f1);
#X obj 2837 1426 t b f;
#X obj 2699 1430 t f f;
#X obj -1814 -1608 r toInitQZ3;
#X obj -887 -1442 s toCalcSampRateQZ3;
#X obj 2909 1463 r toCalcSampRateQZ3;
#X obj 203 251 t f f b;
#X obj 270 336 s toInitQZ3;
#X obj 2276 1549 r toCalcThreshQZ3;
#X obj -1982 -1397 s toCalcThreshQZ3;
#X text 2548 2316 loop on;
#X obj 2536 2353 spigot 1;
#X obj 2583 2420 s toTrigRelQZ3;
#X obj 2536 2390 t b b;
#X obj 2583 2454 r fromRelQZ3;
#X obj 2536 2484 delay;
#X obj 2536 2521 s toTrigADSQZ3;
#X obj 2755 2369 spigot 0;
#X text 2848 2367 loop off;
#X obj 2756 2207 route 0 1;
#X obj 2696 2243 t b b;
#X msg 2743 2275 0;
#X msg 2696 2275 1;
#X obj 2799 2240 t b b;
#X msg 2846 2272 0;
#X msg 2799 2272 1;
#X obj -1563 -1322 s toLoopTogQZ3;
#X obj 2756 2174 r fromLoopTogQZ3;
#X obj -792 -671 t f f;
#X text -1033 -302 sends contents of the chosen buffer to the current
playback buffer, f 35;
#X obj -1023 -374 array get samp1L;
#X obj -814 -374 array get samp1R;
#X obj -1022 -334 array set buf1LQZ3;
#X obj -814 -334 array set buf1RQZ3;
#X text -618 -384 gets the array samp1L/R from the 'samplebank' subpatch
loads it into the playback array buf1L/RQZ3, f 33;
#X obj -778 -808 r fromLoadToPlaySamp1QZ3;
#X obj -745 -638 array size buf1LQZ3;
#X obj -724 -565 array size buf1RQZ3;
#X text -1064 -711 Sets size of the current Buf based on which sample
bank you want to play, f 26;
#X text -1024 -857 This loads the chosen soundfile/buffer into the
current playback buffer, f 39;
#X obj -881 -553 t b b b;
#X obj -791 -605 t b f f;
#X obj -785 -481 f;
#X text -746 -482 store total num samps from chosen samp bank;
#X obj 203 193 r fromNumSampsQZ3;
#X obj -785 -441 s fromNumSampsQZ3;
#X obj 282 -989 t f f;
#X obj 230 -716 array get samp2L;
#X obj 263 -787 array get samp2R;
#X obj 230 -685 array set buf1LQZ3;
#X obj 263 -747 array set buf1RQZ3;
#X obj 329 -959 array size buf1LQZ3;
#X obj 349 -899 array size buf1RQZ3;
#X obj 220 -899 t b b b;
#X obj 282 -930 t b f f;
#X obj 289 -850 f;
#X obj 289 -820 s fromNumSampsQZ3;
#X obj 632 -993 t f f;
#X obj 580 -720 array get samp3L;
#X obj 613 -791 array get samp3R;
#X obj 580 -689 array set buf1LQZ3;
#X obj 613 -751 array set buf1RQZ3;
#X obj 679 -963 array size buf1LQZ3;
#X obj 699 -903 array size buf1RQZ3;
#X obj 570 -903 t b b b;
#X obj 632 -934 t b f f;
#X obj 639 -854 f;
#X obj 639 -824 s fromNumSampsQZ3;
#X obj 968 -995 t f f;
#X obj 916 -722 array get samp4L;
#X obj 949 -793 array get samp4R;
#X obj 916 -691 array set buf1LQZ3;
#X obj 949 -753 array set buf1RQZ3;
#X obj 1015 -965 array size buf1LQZ3;
#X obj 1035 -905 array size buf1RQZ3;
#X obj 906 -905 t b b b;
#X obj 968 -936 t b f f;
#X obj 975 -856 f;
#X obj 975 -826 s fromNumSampsQZ3;
#X obj -95 -403 t f f;
#X obj -147 -130 array get samp5L;
#X obj -114 -201 array get samp5R;
#X obj -147 -99 array set buf1LQZ3;
#X obj -114 -161 array set buf1RQZ3;
#X obj -48 -373 array size buf1LQZ3;
#X obj -28 -313 array size buf1RQZ3;
#X obj -157 -313 t b b b;
#X obj -95 -344 t b f f;
#X obj -88 -264 f;
#X obj -88 -234 s fromNumSampsQZ3;
#X obj 246 -407 t f f;
#X obj 194 -134 array get samp6L;
#X obj 227 -205 array get samp6R;
#X obj 194 -103 array set buf1LQZ3;
#X obj 227 -165 array set buf1RQZ3;
#X obj 293 -377 array size buf1LQZ3;
#X obj 313 -317 array size buf1RQZ3;
#X obj 184 -317 t b b b;
#X obj 246 -348 t b f f;
#X obj 253 -268 f;
#X obj 253 -238 s fromNumSampsQZ3;
#X obj 588 -410 t f f;
#X obj 536 -137 array get samp7L;
#X obj 569 -208 array get samp7R;
#X obj 536 -106 array set buf1LQZ3;
#X obj 569 -168 array set buf1RQZ3;
#X obj 635 -380 array size buf1LQZ3;
#X obj 655 -320 array size buf1RQZ3;
#X obj 526 -320 t b b b;
#X obj 588 -351 t b f f;
#X obj 595 -271 f;
#X obj 595 -241 s fromNumSampsQZ3;
#X obj 927 -411 t f f;
#X obj 875 -138 array get samp8L;
#X obj 908 -209 array get samp8R;
#X obj 875 -107 array set buf1LQZ3;
#X obj 908 -169 array set buf1RQZ3;
#X obj 974 -381 array size buf1LQZ3;
#X obj 994 -321 array size buf1RQZ3;
#X obj 865 -321 t b b b;
#X obj 927 -352 t b f f;
#X obj 934 -272 f;
#X obj 934 -242 s fromNumSampsQZ3;
#X obj 1264 -414 t f f;
#X obj 1212 -141 array get samp9L;
#X obj 1245 -212 array get samp9R;
#X obj 1212 -110 array set buf1LQZ3;
#X obj 1245 -172 array set buf1RQZ3;
#X obj 1311 -384 array size buf1LQZ3;
#X obj 1331 -324 array size buf1RQZ3;
#X obj 1202 -324 t b b b;
#X obj 1264 -355 t b f f;
#X obj 1271 -275 f;
#X obj 1271 -245 s fromNumSampsQZ3;
#X text 384 189 get number of samples from chosen sample bank;
#X obj -746 -755 s samp1TotalNumSamps;
#X obj -774 -727 r fromsamp1TotalNumSamps;
#X msg -1563 -1371 1;
#X obj 503 2411 outlet~ L;
#X obj 670 2403 outlet~ R;
#X obj -778 -781 t b b;
#X obj -792 -699 f;
#X obj 298 -1114 t b b;
#X obj 284 -1032 f;
#X obj 298 -1141 r fromLoadToPlaySamp2QZ3;
#X obj 330 -1087 s samp2TotalNumSamps;
#X obj 302 -1060 r fromsamp2TotalNumSamps;
#X obj 638 -1116 t b b;
#X obj 624 -1034 f;
#X obj 638 -1143 r fromLoadToPlaySamp3QZ3;
#X obj 670 -1088 s samp3TotalNumSamps;
#X obj 642 -1060 r fromsamp3TotalNumSamps;
#X obj 982 -1120 t b b;
#X obj 968 -1038 f;
#X obj 982 -1147 r fromLoadToPlaySamp4QZ3;
#X obj 1014 -1092 s samp4TotalNumSamps;
#X obj 987 -1064 r fromsamp4TotalNumSamps;
#X obj -81 -514 t b b;
#X obj -95 -432 f;
#X obj -81 -541 r fromLoadToPlaySamp5QZ3;
#X obj -49 -486 s samp5TotalNumSamps;
#X obj -76 -458 r fromsamp5TotalNumSamps;
#X obj 258 -521 t b b;
#X obj 244 -439 f;
#X obj 258 -548 r fromLoadToPlaySamp6QZ3;
#X obj 290 -493 s samp6TotalNumSamps;
#X obj 263 -465 r fromsamp6TotalNumSamps;
#X obj 603 -523 t b b;
#X obj 589 -441 f;
#X obj 603 -550 r fromLoadToPlaySamp7QZ3;
#X obj 635 -495 s samp7TotalNumSamps;
#X obj 607 -467 r fromsamp7TotalNumSamps;
#X obj 943 -525 t b b;
#X obj 929 -443 f;
#X obj 943 -552 r fromLoadToPlaySamp8QZ3;
#X obj 975 -497 s samp8TotalNumSamps;
#X obj 947 -469 r fromsamp8TotalNumSamps;
#X obj 1279 -533 t b b;
#X obj 1265 -451 f;
#X obj 1279 -560 r fromLoadToPlaySamp9QZ3;
#X obj 1311 -505 s samp9TotalNumSamps;
#X obj 1283 -477 r fromsamp9TotalNumSamps;
#X connect 0 0 5 0;
#X connect 1 0 22 0;
#X connect 2 0 11 0;
#X connect 2 0 13 0;
#X connect 2 0 14 0;
#X connect 2 0 103 0;
#X connect 3 0 286 0;
#X connect 4 0 49 0;
#X connect 5 0 10 1;
#X connect 7 0 46 0;
#X connect 8 0 44 0;
#X connect 8 0 45 0;
#X connect 9 0 10 0;
#X connect 9 1 2 1;
#X connect 9 2 0 0;
#X connect 10 0 17 0;
#X connect 11 0 6 0;
#X connect 13 0 3 0;
#X connect 14 0 15 0;
#X connect 15 0 287 0;
#X connect 16 0 10 0;
#X connect 16 1 32 0;
#X connect 17 0 75 0;
#X connect 17 0 77 0;
#X connect 18 0 48 0;
#X connect 19 0 42 0;
#X connect 20 0 36 0;
#X connect 22 0 23 0;
#X connect 22 0 25 0;
#X connect 23 0 24 0;
#X connect 25 0 26 0;
#X connect 25 0 2 0;
#X connect 25 0 8 0;
#X connect 26 0 27 0;
#X connect 28 0 40 0;
#X connect 29 0 41 0;
#X connect 30 0 20 0;
#X connect 30 1 25 1;
#X connect 30 2 20 1;
#X connect 31 0 33 0;
#X connect 31 1 32 1;
#X connect 31 2 22 1;
#X connect 32 0 17 1;
#X connect 33 0 16 0;
#X connect 34 0 30 0;
#X connect 34 0 129 1;
#X connect 35 0 20 0;
#X connect 35 0 107 1;
#X connect 36 0 21 0;
#X connect 36 0 31 0;
#X connect 37 0 35 0;
#X connect 37 0 34 0;
#X connect 37 1 35 1;
#X connect 37 1 34 1;
#X connect 38 0 34 0;
#X connect 38 0 35 0;
#X connect 39 0 37 0;
#X connect 43 0 33 0;
#X connect 47 0 4 0;
#X connect 48 4 157 0;
#X connect 48 7 7 0;
#X connect 48 10 29 0;
#X connect 48 12 28 0;
#X connect 48 13 285 0;
#X connect 48 14 19 0;
#X connect 48 15 72 0;
#X connect 48 16 70 0;
#X connect 48 17 68 0;
#X connect 48 18 66 0;
#X connect 48 19 83 0;
#X connect 48 20 152 0;
#X connect 49 0 15 1;
#X connect 49 0 3 1;
#X connect 50 0 49 0;
#X connect 51 0 50 0;
#X connect 52 0 54 2;
#X connect 53 0 52 0;
#X connect 53 1 52 1;
#X connect 54 0 55 0;
#X connect 55 0 49 0;
#X connect 56 0 57 1;
#X connect 57 0 58 0;
#X connect 58 0 54 0;
#X connect 58 1 53 0;
#X connect 59 0 54 1;
#X connect 59 1 54 4;
#X connect 60 0 51 1;
#X connect 61 0 57 0;
#X connect 62 0 59 0;
#X connect 63 0 52 0;
#X connect 64 0 54 3;
#X connect 66 0 65 0;
#X connect 68 0 67 0;
#X connect 70 0 69 0;
#X connect 72 0 71 0;
#X connect 73 0 51 0;
#X connect 77 0 78 0;
#X connect 78 0 1 0;
#X connect 79 0 80 0;
#X connect 80 0 1 0;
#X connect 81 0 78 1;
#X connect 82 0 77 0;
#X connect 86 0 85 0;
#X connect 88 0 96 0;
#X connect 88 1 91 0;
#X connect 88 2 90 0;
#X connect 90 0 89 0;
#X connect 92 0 94 0;
#X connect 92 1 84 0;
#X connect 93 0 94 1;
#X connect 94 0 95 0;
#X connect 95 0 87 0;
#X connect 95 1 86 0;
#X connect 97 0 92 0;
#X connect 98 0 88 0;
#X connect 99 0 100 0;
#X connect 100 0 101 1;
#X connect 101 0 146 0;
#X connect 102 0 113 1;
#X connect 104 0 106 0;
#X connect 105 0 104 0;
#X connect 107 0 109 0;
#X connect 108 0 107 0;
#X connect 110 0 111 1;
#X connect 111 0 113 0;
#X connect 112 0 111 0;
#X connect 113 0 139 0;
#X connect 114 0 116 0;
#X connect 114 1 115 0;
#X connect 114 2 102 0;
#X connect 117 0 135 0;
#X connect 118 0 159 0;
#X connect 118 0 165 0;
#X connect 120 0 92 0;
#X connect 121 0 138 0;
#X connect 122 0 150 0;
#X connect 123 0 126 0;
#X connect 123 1 114 0;
#X connect 124 0 125 1;
#X connect 125 0 140 0;
#X connect 126 0 132 0;
#X connect 126 1 127 0;
#X connect 126 2 128 0;
#X connect 128 0 140 1;
#X connect 129 0 131 0;
#X connect 130 0 129 0;
#X connect 133 0 125 0;
#X connect 134 0 139 0;
#X connect 135 0 118 0;
#X connect 136 0 137 0;
#X connect 137 0 135 1;
#X connect 138 0 123 0;
#X connect 139 0 118 0;
#X connect 140 0 134 0;
#X connect 141 0 142 0;
#X connect 142 0 121 0;
#X connect 143 0 121 0;
#X connect 144 0 143 0;
#X connect 145 0 149 0;
#X connect 146 0 148 0;
#X connect 147 0 146 0;
#X connect 147 1 146 1;
#X connect 148 0 128 1;
#X connect 148 0 102 1;
#X connect 149 0 121 0;
#X connect 149 1 101 0;
#X connect 150 0 121 0;
#X connect 150 1 147 0;
#X connect 151 0 48 0;
#X connect 153 0 99 0;
#X connect 154 0 9 0;
#X connect 154 1 104 1;
#X connect 154 2 155 0;
#X connect 156 0 121 0;
#X connect 159 0 161 0;
#X connect 161 0 163 0;
#X connect 161 1 160 0;
#X connect 162 0 163 1;
#X connect 163 0 164 0;
#X connect 165 0 119 0;
#X connect 167 0 168 0;
#X connect 167 1 171 0;
#X connect 168 0 170 0;
#X connect 168 1 169 0;
#X connect 169 0 159 1;
#X connect 170 0 165 1;
#X connect 171 0 173 0;
#X connect 171 1 172 0;
#X connect 172 0 165 1;
#X connect 173 0 159 1;
#X connect 175 0 167 0;
#X connect 176 0 189 0;
#X connect 176 1 184 0;
#X connect 178 0 180 0;
#X connect 179 0 181 0;
#X connect 183 0 288 0;
#X connect 188 0 190 0;
#X connect 188 1 178 0;
#X connect 188 2 179 0;
#X connect 189 0 188 0;
#X connect 189 1 190 1;
#X connect 189 2 185 0;
#X connect 190 0 193 0;
#X connect 192 0 154 0;
#X connect 194 0 202 0;
#X connect 194 1 199 0;
#X connect 195 0 197 0;
#X connect 196 0 198 0;
#X connect 201 0 203 0;
#X connect 201 1 195 0;
#X connect 201 2 196 0;
#X connect 202 0 201 0;
#X connect 202 1 203 1;
#X connect 202 2 200 0;
#X connect 203 0 204 0;
#X connect 205 0 213 0;
#X connect 205 1 210 0;
#X connect 206 0 208 0;
#X connect 207 0 209 0;
#X connect 212 0 214 0;
#X connect 212 1 206 0;
#X connect 212 2 207 0;
#X connect 213 0 212 0;
#X connect 213 1 214 1;
#X connect 213 2 211 0;
#X connect 214 0 215 0;
#X connect 216 0 224 0;
#X connect 216 1 221 0;
#X connect 217 0 219 0;
#X connect 218 0 220 0;
#X connect 223 0 225 0;
#X connect 223 1 217 0;
#X connect 223 2 218 0;
#X connect 224 0 223 0;
#X connect 224 1 225 1;
#X connect 224 2 222 0;
#X connect 225 0 226 0;
#X connect 227 0 235 0;
#X connect 227 1 232 0;
#X connect 228 0 230 0;
#X connect 229 0 231 0;
#X connect 234 0 236 0;
#X connect 234 1 228 0;
#X connect 234 2 229 0;
#X connect 235 0 234 0;
#X connect 235 1 236 1;
#X connect 235 2 233 0;
#X connect 236 0 237 0;
#X connect 238 0 246 0;
#X connect 238 1 243 0;
#X connect 239 0 241 0;
#X connect 240 0 242 0;
#X connect 245 0 247 0;
#X connect 245 1 239 0;
#X connect 245 2 240 0;
#X connect 246 0 245 0;
#X connect 246 1 247 1;
#X connect 246 2 244 0;
#X connect 247 0 248 0;
#X connect 249 0 257 0;
#X connect 249 1 254 0;
#X connect 250 0 252 0;
#X connect 251 0 253 0;
#X connect 256 0 258 0;
#X connect 256 1 250 0;
#X connect 256 2 251 0;
#X connect 257 0 256 0;
#X connect 257 1 258 1;
#X connect 257 2 255 0;
#X connect 258 0 259 0;
#X connect 260 0 268 0;
#X connect 260 1 265 0;
#X connect 261 0 263 0;
#X connect 262 0 264 0;
#X connect 267 0 269 0;
#X connect 267 1 261 0;
#X connect 267 2 262 0;
#X connect 268 0 267 0;
#X connect 268 1 269 1;
#X connect 268 2 266 0;
#X connect 269 0 270 0;
#X connect 271 0 279 0;
#X connect 271 1 276 0;
#X connect 272 0 274 0;
#X connect 273 0 275 0;
#X connect 278 0 280 0;
#X connect 278 1 272 0;
#X connect 278 2 273 0;
#X connect 279 0 278 0;
#X connect 279 1 280 1;
#X connect 279 2 277 0;
#X connect 280 0 281 0;
#X connect 284 0 289 1;
#X connect 285 0 174 0;
#X connect 288 0 289 0;
#X connect 288 1 283 0;
#X connect 289 0 176 0;
#X connect 290 0 291 0;
#X connect 290 1 293 0;
#X connect 291 0 194 0;
#X connect 292 0 290 0;
#X connect 294 0 291 1;
#X connect 295 0 296 0;
#X connect 295 1 298 0;
#X connect 296 0 205 0;
#X connect 297 0 295 0;
#X connect 299 0 296 1;
#X connect 300 0 301 0;
#X connect 300 1 303 0;
#X connect 301 0 216 0;
#X connect 302 0 300 0;
#X connect 304 0 301 1;
#X connect 305 0 306 0;
#X connect 305 1 308 0;
#X connect 306 0 227 0;
#X connect 307 0 305 0;
#X connect 309 0 306 1;
#X connect 310 0 311 0;
#X connect 310 1 313 0;
#X connect 311 0 238 0;
#X connect 312 0 310 0;
#X connect 314 0 311 1;
#X connect 315 0 316 0;
#X connect 315 1 318 0;
#X connect 316 0 249 0;
#X connect 317 0 315 0;
#X connect 319 0 316 1;
#X connect 320 0 321 0;
#X connect 320 1 323 0;
#X connect 321 0 260 0;
#X connect 322 0 320 0;
#X connect 324 0 321 1;
#X connect 325 0 326 0;
#X connect 325 1 328 0;
#X connect 326 0 271 0;
#X connect 327 0 325 0;
#X connect 329 0 326 1;
#X restore 35 354 pd subpatch3;
